<?xml version="1.0" encoding="UTF-8"?>
<svg id="Layer_1" xmlns="http://www.w3.org/2000/svg" width="2048" height="1536" version="1.1" xmlns:xlink="http://www.w3.org/1999/xlink" viewBox="0 0 2048 1536">
  <!-- Generator: Adobe Illustrator 30.1.0, SVG Export Plug-In . SVG Version: 2.1.1 Build 136)  -->
  <defs>
    <style>
      .st0 {
        stroke: #a61a26;
        stroke-miterlimit: 10;
        stroke-width: 40px;
      }

      .st0, .st1 {
        fill: none;
      }

      .st2 {
        fill: #faf7ea;
      }

      .st3 {
        fill: #a61a26;
      }

      .st4 {
        fill: #599592;
      }

      .st5 {
        fill: #dfa52a;
      }

      .st6 {
        clip-path: url(#clippath);
      }

      .st7 {
        fill: #d46020;
      }
    </style>
    <clipPath id="clippath">
      <ellipse class="st1" cx="1015.87" cy="763.2" rx="806.25" ry="537.5"/>
    </clipPath>
  </defs>
  <g class="st6">
    <rect class="st2" x=".07" width="2048" height="1536"/>
    <g>
      <path class="st3" d="M1852.22,743.96v59.99l-509.01.05c-.49-24.56-11.98-45.99-33.65-60.08l542.66.04Z"/>
      <path class="st3" d="M584.08,803.9c-2.46,1.39-6.22,1.36-8.73.02h-16.94c-2.15,1.29-5.34,1.36-7.55-.02l-20.45.02c-4.24,1.49-11.55,1.41-15.75,0l-338.14-.31v-60l559.11.41c-21.96,14.94-33.03,36.59-33.02,60.04l-118.54-.16Z"/>
    </g>
    <g>
      <path class="st4" d="M1852.15,950.15v57.7l-547.04-.05c5.85-11.03,9.39-21.5,9.67-32.87l.6-24.79h536.77Z"/>
      <polygon class="st4" points="176 1008.34 176 950.34 704.61 950.13 704.34 1007.73 176 1008.34"/>
    </g>
    <path class="st7" d="M1852.15,815.94v58.02l-386.29.03c-.7-20.33-5.41-38.66-11.33-58.05h397.62Z"/>
    <path class="st5" d="M1852.15,883.76v56.57l-399.46-.05c7.71-19.14,13.1-36.67,13.58-56.48l385.88-.04Z"/>
    <g>
      <path class="st7" d="M538.98,814.51l1.36.15c-3.28,18.9-10.27,37.75-10.54,57.75l-405.56.32v-58c.26-.52.68-.58,1.24-.22h413.5Z"/>
      <path class="st5" d="M129.95,942.69v-57l404.9.52c1.09,19.39,6.46,37.86,14.06,56.44l-418.96.04Z"/>
    </g>
    <path class="st2" d="M605.63,804.09l98.22.16c2-21.27,9.11-41.35,25.46-56.04l-472.36-.41h-80.41l79.17-493h1536l60.51,493.53-61.47-.13-475.41-.04c16.37,14.66,24.52,34.37,26.12,56.08l449-.05,1.25,2,60.45,12.99-61.72-.12-333.64-.64c4.59,17.49,8.19,35.31,8.96,53.42,107.96.72,216.19.92,324.7.58l1.25,2v9.8l-.96,2-324.88.04c-1.16,17.89-4.57,35.38-10.23,52.48l334.82.05,1.25,2v9.82l-.96,2c-149.84-.3-299.59-.12-449.23.54,1.01,18.17-1.43,35.88-7.33,53.12l456.26.05,1.25,2v270.49H255.7v-270l.95-2c149.28-.07,298.56-.35,447.84-.84l.21-52.74c-148.92-.68-298.17-.82-447.76-.42l-1.25-2v-10l.96-2,335.24-.04c-5.41-16.81-9.4-34.15-10.47-51.81-107.88-.94-216.04-1.32-324.49-1.15l-1.24-2v-9l.95-2,324.69-.32c1.44-17.51,4.07-34.9,7.89-52.16h0l.5-1.73h0c-110.58,0-223.44.06-334.05.06l-52.39-.03c-.64.1-.47-1.5-.5-2.18l52.9-10.63.96-2"/>
    <path class="st2" d="M575.37,803.63"/>
    <path class="st7" d="M1424,544.07l-141.42-15.57-123.36-8.24,2.05-8.1c50.48,2.38,99.66,5.92,149.78,12.29,38.2,5.28,75.5,9.81,112.95,19.62Z"/>
    <path class="st7" d="M625.82,543.58c43.22-11.66,87.19-16.88,131.73-22.61,39.93-4.24,78.88-7.12,118.77-9.03,1.07,2.86,1.51,5.42,1.31,8.51-84.52,3.47-167.22,12.28-251.81,23.13Z"/>
    <polygon class="st5" points="637.24 445.9 615.22 461.41 623.18 435.95 601.81 420.16 628.85 419.47 637.12 395.06 645.84 419.54 672.24 420.02 651.25 435.71 659.01 461.2 637.24 445.9"/>
    <path class="st5" d="M1186.9,478.49l-18.69,13.1c1.3-7.91,4.01-14.37,6.16-21.88l-18.65-14.16,23.67-.68,7.74-22.08,7.68,22.15,23.61.57-18.56,13.84,6.99,23.07-19.93-13.93Z"/>
    <path class="st7" d="M1027.81,630.48v.05c-.06.45-.22.89-.46,1.27l-10.46,16.02-10.04-16.07c-.35-.55-.98-2.21-.63-2.58,2.29-2.42,7.03.07,10.79,2.62,2.55-2.36,5.75-4.28,9.3-3.44.97.23,1.62,1.15,1.5,2.13Z"/>
    <polygon class="st5" points="1408.32 445.85 1386.34 461.53 1394.53 435.89 1373.93 420.25 1399.96 419.5 1408.4 395.44 1416.96 419.73 1444.08 419.86 1422.64 435.63 1430.13 461.13 1408.32 445.85"/>
    <path class="st7" d="M743.18,650.69c-2.95.5-3.07-4.42-.29-5.1,1.56-.51,4.54-.99,6.12-1.08l1-.53,109.58-7.33,138.54-2.97c-.09,3.73-.57,6.96-2.38,10.35-84.67.12-168.59,1.5-252.57,6.67Z"/>
    <path class="st7" d="M1168.01,636.65l1.09.03c69.45,2.58,138.49,8.59,207.73,18.33,5.86.82,10.72.37,16.36,2.1-77.86-4.3-157.59-9.76-237.04-11.51-2.76-.95-1.86-2.93.55-4.22-1.51-2.32-1.38-3.92.39-4.82l10.93.09Z"/>
    <path class="st7" d="M1156.14,645.6l-28.13-.62-1-.02c-.65.02-1.63.05-3,0-4.5,0-3.34,0-6.08-.15l-82.3-.97c0-3.14.63-6.47,1.76-10.2l99.62,1.88,1,.1,6.89.08c2.04.07-.62,0,4.19.09l7.99.78.81,2.78"/>
    <path class="st7" d="M675.3,654.87l-20.36,1.71c-4.56.38-8.77,2.58-13.25.17l18.01-2.29c27.83-3.54,62.76-9.38,90.31-10.48l-6.83,6.71"/>
    <path class="st5" d="M1138.01,635.6l-1-.1,1,.1Z"/>
    <path class="st5" d="M1127.01,644.96l1,.02-1-.02Z"/>
    <polygon class="st5" points="846.12 478.58 826.29 492.63 833.56 469.71 814.88 455.63 838.35 454.76 845.99 432.96 854.02 454.99 877.99 455.42 858.83 469.35 865.95 492.29 846.12 478.58"/>
    <path class="st3" d="M997.57,511.83c-15.31-.49-17.44-16.84-15.8-28.03l20.85.12c-.16,3.84.09,8.83,2.31,10.49l19.28.58c2.14.06,5.05-2.38,5.06-4.48l.06-14.17c.04-10.7-20.22-5.7-25.53-1.75l-21.34-5.76-.09-46.14,64.86-.02.06,17.28h-43.77s.08,20.07.08,20.07c5.05-3.74,9.18-6.3,15.31-6.69,11.39-.72,30.09-1.27,31.06,15.1.55,9.3.59,18.5.14,27.89-.44,9.24-8.08,15.53-17.15,15.72-11.77.25-23.06.2-35.4-.2Z"/>
    <path class="st3" d="M965.39,511.9l-70.07-.06-.1-25.59c-.03-7.89,4.12-14.66,11.61-18.04,9.95-4.49,20.24-8.24,30.54-12.2,4.2-1.61,5.97-4.01,5.68-8.83-.14-2.41-.78-5.49-2.18-7.86-7.41-.55-14.99-.6-22.53.03-1.55,3.38-1.76,6.92-1.8,10.85l-20.5-.06c-1.06-11.87,1.55-26.55,16.11-27.39,11.93-.69,23.81-.68,35.74.03,8.82.53,15.37,6.89,16.2,15.56,1.17,12.31,1.61,25.69-11.39,30.9l-26.3,10.55c-2.69,1.08-6.34,2.37-8.46,4.51-1.88,1.9-1.32,7.12-.84,10.14l48.2.06.11,17.39Z"/>
    <path class="st3" d="M1122.56,512.08c-15.25.51-33.79,1.25-46.35-1.52-5.83-5.07-8.75-10.76-8.71-18.27l.27-51.88c.05-10.01,7.91-17.59,17.44-17.63l35.81-.17c9.89-.05,17.9,7.58,18.16,17.85.46,18.53.5,36.56.02,54.98-.23,8.98-7.42,16.33-16.63,16.64Z"/>
    <path class="st2" d="M1113.21,495.2l-19.36-.08c-2.54-.01-4.69-2.1-4.7-4.74l-.15-45.13c-.01-3.09,1.67-5.69,4.94-5.69l18.14.02c3.21,0,5.74,2.37,5.74,5.75l-.03,45.08c0,2.23-2.53,4.8-4.58,4.79Z"/>
    <polygon class="st3" points="800.27 357.7 811.66 398.3 820.09 396.97 823.4 409.23 787.84 418.28 783.65 405.22 792.96 402.44 778.25 349.29 769.59 351.09 765.68 338.4 800.21 328.65 837.17 371.81 850.6 315.03 884.08 306.74 887.59 319.42 878.46 322.49 891.86 376.29 900.29 375.2 903.61 387.79 866.14 396.53 862.9 383.91 871.52 381.08 861.39 340.12 850.72 390.85 833.02 395.39 800.27 357.7"/>
    <polygon class="st3" points="943.41 370.58 972.3 368.33 972.5 357.38 987.2 356.68 990.35 381.31 913.09 387.28 911.74 373.69 921.57 372.37 915.56 317.44 905.94 317.17 904.48 304.27 980.78 297.72 984.12 322.27 968.39 323.39 966.9 313.51 937.71 315.97 940.09 334.97 971.43 332.06 972.73 346.8 941.44 349.26 943.41 370.58"/>
    <path class="st3" d="M1182.38,377.56c-1.47,5.06.98,10.41,5.73,11.82l17.87,5.31c3.86,1.15,7.36-1.85,8.22-5.14l2.27-8.63,21.29,6.57c-1.31,7.48-3.07,14.83-8.41,20.28-4.66,4.75-12.58,5.31-19.04,3.97-13.29-2.75-25.73-6.68-38.39-11.49-10.11-3.84-15.72-14.27-12.72-25.15l11.39-41.22c3.12-11.28,12.26-18.13,24.63-16.48,13.43,1.79,26.85,5.94,39.37,11.51,6.08,2.71,11.78,7.92,12.78,14.53,1.05,6.98-1.2,13.67-3.18,20.35l-21.08-6.26,1.8-9.55c.51-2.73-1.04-6.64-3.88-7.7-7.44-2.76-24.91-10.21-27.66-.68l-10.98,37.95Z"/>
    <polygon class="st3" points="1140.72 394.17 1100 387.02 1101.71 374.26 1111.64 375.26 1119.8 318.97 1109.8 316.58 1111.92 303.78 1154.61 310.93 1152.56 323.63 1142.13 322.39 1133.39 379 1142.84 381.5 1140.72 394.17"/>
    <polygon class="st3" points="1276.22 404.99 1268 413.81 1276.6 418.32 1271.7 430.48 1234.86 415.79 1239.84 403.79 1247.93 406.35 1290.44 360.65 1281.68 356.31 1287.28 343.77 1330.58 362.04 1331.43 439.14 1341.31 443.45 1336.23 456.07 1295.97 439.29 1300.51 426.99 1308.86 429.57 1308.98 418.18 1276.22 404.99"/>
    <polygon class="st2" points="1309.96 403.26 1286.42 393.33 1309.33 368.37 1309.96 403.26"/>
    <path class="st3" d="M714.11,424.5c-.4,3.09-.03,7.87.34,10.88l7.41-2.3,4.73,12.28-34.41,14.94-5.67-12.82,8.78-4.1-3.89-59.01-9.26,3.63-5.34-13.21,39.07-16.76,55.13,53.07,7.77-3.02,5.6,12.52-36.06,15.44-6-11.71,7.78-4.48-7.8-7.58-28.17,12.23Z"/>
    <polygon class="st2" points="731.62 401.43 711.65 410.38 708.02 378.11 731.62 401.43"/>
    <path class="st3" d="M1047.01,349.71l-13.52-.9-.63,19.06,9.52.9.05,12.9-40.72-1.44.05-13.01,9.47-.38.94-55.79-9.72-1.01v-12.91c21.8.11,42.67-.07,64.41,2.33,7.81.86,15.89,5.26,17.68,13.06,1.88,8.2,1.38,17.19-.48,25.18-1.62,6.98-8.33,10.29-15.44,11.23l12.95,21.25,9.72,1.25-.24,12.95-25.75-1.71-18.31-32.95Z"/>
    <path class="st2" d="M1063.18,329.86c-.08,4.38-3.81,6.18-7.06,5.99l-22.4-1.27.55-22.67c6.95.98,29.28-1.8,29.1,8.15l-.18,9.8Z"/>
    <polygon class="st5" points="651.13 890.64 623.98 909.45 633.42 877.85 606.79 858.35 640.15 857.76 650.99 826.03 661.99 857.66 695.38 858.32 668.87 877.82 678.78 909.79 651.13 890.64"/>
    <path class="st5" d="M1372.84,1117.96c16.29-8.67,32.95-14.69,51.67-11.99-14.36,21.94-39.83,32.19-65.16,26.3l-25.67,20.44c16.99-3.79,33.17-3.01,49.46,3.1-18.1,16.71-46.47,20.1-67.5,7.53l-28.38,13.12c16.98-.55,31.71,2.21,45.23,11.9-21.17,11.12-48.02,12.43-65.75-4.88l-34.45,8.31c17.06,1.68,34.22,9.22,46.46,22.97-22.35,7.32-49.92.05-62.17-20.2l-35.12,3.97c16.67,5.22,30.3,14.76,37.69,31.28-21.61,2.82-46-9.26-53.95-30.58l-30.91,1.94c15.91,6.01,27.52,16.45,33.63,32.36-21.18.53-43.95-10.89-51.5-31.45l-35.56,2.49c17.61,3.87,33.08,15.02,39.47,33.22-20.99,1.06-42.93-10.16-51.34-30.87-12.78,1.4-25.34,4.06-37.29,9.63,7.17,5.55,15.01,11.91,20.13,18.61,1.19,1.85-4.25,7.14-6.84,4.13-5.99-6.96-13.29-13.71-21.79-18.74-8.95,5.82-15.32,12.31-22.69,19.68-1.96.86-6.34-2.2-6.25-4.59,5.6-7.3,12.86-13.21,20.85-18.99-11.37-5.28-24.32-8.47-37.21-9.68-8.9,20.84-29.83,31.01-51.72,30.96,5.83-17.67,21.22-29.24,39.08-33.32l-35.11-2.42c-7.65,21.21-30.85,31.76-51.8,31.61,6.24-15.93,18.02-26.33,34.08-32.59l-31.26-1.9c-7.4,21.14-32.92,33.04-53.62,30.44,7.31-16.55,20.76-26.08,37.85-31.2l-35.34-4.28c-12.8,21.13-39.49,27.7-62.39,20.37,12.28-13.82,28.45-20.24,45.75-22.83l-33.68-8.26c-17.82,17.21-44.36,16.3-65.93,4.52,14.49-9.54,30.69-13.03,47.51-11l-30.41-13.81c-21.88,13.01-48.93,8.64-67.69-7.33,15.66-6.27,31.11-6.87,48.41-3.5l-24.74-20.19c-25.33,6.09-49.94-4.58-64.99-25.97,19.86-3.4,35.12,3,52.03,12.12l-12.87-18.96c-22.73-10.51-31.49-34.32-28.36-58.05,19.52,13.92,30.06,31.47,31.75,54.62,3.07,7.42,9.61,14.59,15.79,20.64-5.78-18.08-5.39-36.3,6.65-50.91,11.83,17.14,13.8,46.2,4.16,63.32,9.16,8.9,18.9,16.09,30.42,22.42-10.2-16.51-12.97-34.64-4.7-51.84,15.23,16.28,22.17,37.26,16.94,58.84,11.41,6.58,23.16,11.4,36.22,15.11-15.71-15.35-23.77-27.35-20.89-50.31,20.84,12.66,32.27,29.2,32.94,54.67,12.03,3.81,24.2,6.7,37.18,8.49-17.12-12.04-28.04-22.29-29.16-45.43,21.34,6.89,39.34,23.96,41,47.1,13.33,2.04,25.6,3.6,39.62,4.14-17.27-8.31-30.76-20.92-34.71-40.61,21.64,3,43.78,18.07,47.1,41.38l37.3,2.15c-17.86-7.74-31.1-21.98-33.27-41.73,21.1,4.46,42.29,19.68,44.44,42.35l36.33,2.76c-17.68-9.25-29.92-23.5-30.63-43.65,21.02,5.81,40.32,20.96,42.01,44.58,15.83,1.64,30.52,7.37,44.53,12.43,13.76-5.71,28.55-10.23,43.49-12.5,2.35-23.3,19.78-37.62,42.33-44.54-.49,19.08-12.08,34.01-29.59,43.43l35.29-2.51c1.37-23.55,23.01-37.87,44.07-42.24-1.75,19.59-15.49,33.09-32.6,41.65l37.24-2.22c2.09-23.27,24.72-37.52,46.15-41.54-1.63,11.67-7.78,21.72-16.48,29.44-5.05,4.48-10.74,7.22-16.74,11.27,13.46-.37,25.73-2.02,38.66-4.25,1.33-23.55,19.78-40.16,41.04-46.87-.99,20.75-11.11,33.2-27.93,44.12-2.35.93-1.27,1,.62.84,12.15-1.84,23.58-4.22,35.39-8.11.62-25.58,11.05-39.81,30.83-53.85.28-.2,1.92-.8,1.96-.47l.24,1.8c2.52,18.91-5.74,35.07-21.23,47.76,12.86-2.42,24.27-8.3,36.14-14.75-4.52-18.65.04-36.52,11.22-51.44l4.19-5.59c4.2-5.61,6.41,14.36,6.51,15.95.7,11.6-2.47,21.57-8.14,31.93-.11-.09.83.71,1.14.98,10.2-6.24,19.04-12.84,27.76-21.17-10.19-20.15-7.08-44.15,4.45-63.41,12.05,14.39,11.67,31.89,7.66,49.5,23.23-20.44,10.97-28.96,22.55-48.14,6.1-10.11,13.67-19.21,23.85-25.59,2.75,24.72-5.72,47-28.27,58.37l-12.64,18.19Z"/>
    <circle class="st2" cx="1286" cy="1176.84" r=".63"/>
    <circle class="st2" cx="914" cy="1200.84" r=".63"/>
    <path class="st3" d="M1100.39,1126.61l-40.28-.1-.08-16.31c-.02-4.52,2.67-8.85,7.05-10.66l19.34-7.95c1.99-.99,1.85-7.48.41-9.2-3.88-.77-8.59-.72-13.12-.54l-1.6,6.05h-11.75c.07-3.04.12-5.37.42-8.33,1.06-10.74,19.42-8.37,29.29-8.06,5.2.16,9.66,4.16,10.14,9.38.75,8.08.81,16.77-7.2,20.16l-19.19,8.11c-1.62.68-1.68,5.53-.62,6.91l27.24.3-.03,10.25Z"/>
    <path class="st3" d="M1161.7,1126.58l-.08-17.04c-.02-4.19,3.35-8.53,7.28-10.13l19.25-7.84c1.01-2.72.97-6.71.02-9.57l-13.3-.2-1.48,6.14-11.63-.06c-.61-6.44.55-15.39,8.53-16.02,7.63-.61,14.8-.57,22.41,0,4.28.32,8.08,4.1,8.42,8.45.73,9.36,1.52,17.35-7.38,20.99l-18.87,7.7c-.43,2.02-.63,4.74-.64,7.06l27.23.22.11,10.23-39.89.08Z"/>
    <path class="st3" d="M901.88,1126.31h-14.25s21.8-43.59,21.8-43.59l-26.88-.25-.04-10.87,40.63.05c.88,5.96.03,10.69-2.37,15.65l-18.89,39.01Z"/>
    <path class="st3" d="M853.05,1126.29l-14.26.04,21.84-43.58-26.64-.34-.04-10.85,40.4.13c0,3.36.86,8.22-.37,10.8l-20.93,43.81Z"/>
    <path class="st3" d="M794.74,1126.57l-.31-9.78,10.91-.42.05-31.9-10.86,2.92.09-9.34,13.91-5.95c2.05-.88,6.48-.34,9.43-.26l.1,44.35,9.91.31-.13,10.11-33.1-.04Z"/>
    <circle class="st3" cx="1017.43" cy="1098.21" r="11.72"/>
    <path class="st3" d="M1238.61,1091.94c7.17-.06,13.37,3.46,13.67,10.83.18,4.41.16,9.27-.09,13.77-.33,5.94-5.21,9.88-10.94,10.07-7.13.24-14.05.21-21.26-.34-5.28-.4-9.18-5.81-9.19-10.93l-.05-33.05c0-5.5,3.89-10.16,9.45-10.55,7.71-.54,15.82-.85,23.42.42,6.77,1.13,8.93,9.3,7.5,14.91l-11.47.05-1.66-5.23-14.46-.1.21,15.8c4.77-4.53,8.34-5.59,14.88-5.65Z"/>
    <path class="st2" d="M1239.4,1116.35l-15.25.02c-.57-4.21-1.22-9.32.4-12.19,3.98-3.55,9.88-2.85,14.69-.93l.16,13.1Z"/>
    <path class="st3" d="M944.92,1097.48c6.93-8.53,26.95-7.15,28.16,2.41.69,5.46.58,11.46.24,17.09-.73,12.31-19.52,9.75-30.33,9.32-6.07-.24-10.78-4.92-10.79-10.93l-.09-33.08c-.02-5.45,4.43-10.44,9.88-10.66,9.04-.37,24.49-2.12,28.82,4.45,2.06,3.13,2.6,8.11,1.59,10.94l-11.51.21-1.2-5.25h-14.8s.03,15.51.03,15.51Z"/>
    <path class="st2" d="M960.63,1116.06c-4.73.92-9.75.95-14.72.22-1.17-2.8-1.93-9.62.07-11.82,3.59-3.94,9.97-2.99,14.54-1.26l.11,12.86Z"/>
    <path class="st3" d="M1151.95,1115.37c.01,14.18-18.52,11.34-30.95,11.13-6.21-.11-11.24-4.78-11.23-11.14l.03-33.03c0-5.75,4.58-10.5,10.19-10.71,7.14-.27,13.91-.27,21.04-.07,6.42.18,10.87,5.39,10.88,11.75l.03,32.07Z"/>
    <path class="st2" d="M1139.02,1115.77c-6.24.48-10.55.5-16.53-.14l-.08-32.86c5.92-1.2,10.9-1.22,16.74.17l-.13,32.83Z"/>
    <path class="st5" d="M1395.81,890.49l-27.61,19.03,9.73-31.44-27.06-19.96,33.55-.32,11.24-31.55,10.92,31.37,33.48.69-26.48,19.66,9.89,31.47c-10.02-5.72-17.36-11.4-27.65-18.94Z"/>
    <path class="st4" d="M1073.74,1029.17l-96.82-.17c-28.1-.05-50.27-23.94-53.06-51.35-1.9-18.68-2.04-36.26-2.66-54.87l87.48.03.17,30.25,27.85.05-.05-47.54-21.82.07c-6.42,2.98-11.02,7.21-16.03,12.33l-75.53-16.94-.16-159.05,199.75-.05.33,76.99-114.87-.06-.04,17.54c7.19-1.55,13.66-3.46,20.92-3.43l32.2.11c31.64.11,59.34,21.24,60.24,53.32.88,31.32,2.18,61.45,1.45,92.76-.62,26.57-22.49,50.06-49.35,50.02Z"/>
    <path class="st2" d="M937.07,890.34l-1.04-2.71.05-132.41,1.08-.7,172.33.09.42,51.52-114.13-.04.42,51.53c9.07-5.95,17.94-10.13,28.38-11.93l40.83.15c10.92.04,21.54,4.41,29.81,11.12,11.62,9.43,15.21,22.93,15.36,37.41l.82,77.92c.09,8.9-1.36,17.28-5.59,25.08-6.3,11.61-18.2,20.4-32.1,20.38l-93.21-.14c-22.7-.03-40.44-17.39-44.24-39.48-2.46-14.29-1.89-27.94-2.31-42.6l62.54-.08.34,24.06c.04,2.59,2.33,5.54,5.11,5.57l43.23.53c2.41.03,5.09-2.66,5.1-5.27l.23-59.03c.02-4.4-2.67-8.19-7.47-8.23-9.01-.07-17.89-.07-26.93.42-7.81.42-14.13,5.12-20.25,9.68l-58.76-12.84Z"/>
    <path class="st4" d="M1103.91,943.3l-.18,33.82c-.09,17.7-12.39,33.37-31.76,33.39l-88.92.1c-18.82.02-34.41-11.21-38.79-29.9-2.8-11.98-2.42-24.2-2.06-36.73l46.21-.16.53,16.51c.24,7.36,5.95,12.53,13.12,12.59l44.97.36c14.55.12,10.6-21.1,10.95-29.95l45.92-.04Z"/>
    <path class="st3" d="M988.01,813.5l-.92,2c-13.86,0-27.73-.01-41.6-.02l-1.19-2-.02-50.92,156.98.1-.08,35.8-112.6-.02c-.29,5.28-.59,10.12-.56,15.06Z"/>
    <path class="st5" d="M1099.06,873.41c3.44,7.23,4.58,13.67,4.62,22l.23,47.89-45.92.04-.26-42.04c.65-8.08-5.03-14.97-13.35-15.31-17.73-.73-36.51-2.32-50.6,9.86l-49.41-10.88-.14-11.53.7-2h42.17c1,.88,2.39.88,4.18,0,35.21,0,70.23,0,105.08-.01l2.71,2Z"/>
    <path class="st7" d="M988.01,813.5l.35,57.58,15.69-9.92c5.94-3.75,13.51-7.73,20.87-7.98,14.91-.51,29.35-.55,43.89.28,13.69.78,24.88,8.64,30.26,19.95l-154.83.02.06-59.95,43.72.02Z"/>
    <path class="st4" d="M717.78,1029.79l.15-93.35c.02-11.65,2.86-22.02,6.83-32.59,7.35-13.84,18.39-25.32,33.33-31.2l70.26-27.63.27-25.66-27.16-.27-.17,28.61-83.75.02.36-46.55c.13-16.99,7.91-32.52,20.06-43.7,11.68-10.54,25.42-15.55,41.09-15.41l70.86.66c33.25.31,60.16,23.71,62.09,57.78,1.02,18.07.84,36.17.31,54.53-.7,24.62-15.7,45.2-38.49,53.96l-71.71,27.57.63,15.08h110.87s-.01,78.01-.01,78.01l-195.81.13Z"/>
    <path class="st2" d="M899.97,964.46c-.76,17.27,4.92,34.96-2.96,53.27-40.5-.03-122.95.16-165.01-.3l-1-2.23-.09-80.39s-.3.04.31-1.72c-.05-22.63,13.03-42.29,34.9-50.92l67.96-26.81c2.48-.98,7.31-3.71,7.34-6.5l.35-35.6c.03-3.16-2.69-5.82-5.73-5.92l-41.13-1.37c-1.23-.04-3.72.49-4.55,1.16-1,.8-1.72,3.5-1.72,5.02l-.05,22.55-57.57.02c-.03-13-.29-24.4.8-36.41,2.32-25.64,22.49-44.2,48.26-43.87,25.91.33,50.92.18,76.57,2.36,23.67,2.01,41.26,20.94,42.61,44.32,1.08,18.68,1.05,36.55-.02,55.19-1.04,18.08-11.14,33.7-28.08,40.35l-72.93,28.65c-5.26,2.07-8.29,6.39-8.14,11.96.25,9.29-.55,18.4,1.06,26.88,33.8-.6,69.15-.85,102.88.27"/>
    <polygon class="st4" points="891.78 972.8 892.16 1009.81 739.63 1009.93 739.31 943.36 782.59 943.38 782.79 972.62 891.78 972.8"/>
    <path class="st3" d="M892.1,813.52l-.68,2c-13.58.02-27.15.04-40.74.06l-1.2-2c.05-7.57-5.69-13.58-12.64-13.79l-42.94-1.3c-3.63-.11-8.25,1.74-10.16,4.09-2.19,2.7-2.69,6.51-2.79,9.75l-1.31,2.88c-13.15.66-26.37.79-39.66.38l-1.17-2.01c-.35-7.82-.31-14.77,1.24-22.08,3.44-16.21,17.01-28.38,33.93-29.28,13.15-.7,25.82-.2,39.03.24l42.33,1.42c13.05.44,24.64,8,31.14,18.68,6.06,9.95,5.57,20.34,5.62,30.95Z"/>
    <path class="st5" d="M811.16,872.16c24.76-.8,49.61-.98,74.55-.52l1.21,2c-4.55,9.37-12.57,14.86-22.3,18.63l-68.9,26.66c-9.52,3.68-14.82,13.53-13.12,24.45q-15.02-.03-32.4-.02c-3.82,0-6.76.27-10.88,0-1.36-22.32,3.13-42.48,24.77-52.75,15.49-7.35,31.56-12.2,47.08-18.45Z"/>
    <path class="st7" d="M892.1,813.52l.16,35.8c.04,8.88-1.78,16.96-5.35,24.33l-67.94-.19c-2.78,0-5.66-.61-7.82-1.3l28.32-11.41c5.09-2.05,9.77-7.69,9.81-13.3l.21-33.87,42.61-.07Z"/>
    <path class="st7" d="M738.82,813.59l38.25.25c1.01,0,3.36-1.08,3.89-1.5l-.47,14.52-41.54-.02c-.32-4.57-.4-8.92-.13-13.25Z"/>
    <path class="st4" d="M1271.59,1031.05l-82.6-.39c-30.35-.14-52.82-27.67-52.98-57.48l-.89-159.73c-.07-12.57.91-24.02,5.86-35.42,8.96-20.61,28.59-34.81,51.24-34.96l71.98-.46c32.61-.21,63.23,23.63,63.45,57.87l1.08,168.74c.12,18-5.78,34.85-18.8,46.98-10.29,9.59-23.6,14.91-38.33,14.84Z"/>
    <path class="st2" d="M1148.21,977.21l-.41-2.47c-.2-56.68-.12-113.32.24-169.91l.34-3.04c.3-26.65,20.98-45.99,48.47-45.92l73.55.18c23.68.06,44.84,21.14,44.95,45.66l.74,168.43c.05,10.36-1.98,19.53-7.21,28.04-7.45,12.14-20.16,20.39-34.94,20.35l-81.95-.24c-22.84-.07-41.21-18.6-43.79-41.08Z"/>
    <path class="st4" d="M1265.78,943.39l43.29-.11-.17,29.14c-.12,20.65-13.7,38.63-34.16,38.65l-85.36.07c-17.87-2.73-31.43-16.58-33.13-35.01-1-10.82-.25-21.46-.45-32.78h43.24s0,16.04,0,16.04c0,8.44,6.97,13.73,14.9,13.73h40.1c6.23-.01,11.38-5.59,11.47-11.7l.27-18.03Z"/>
    <path class="st3" d="M1308.33,812.34c.11.6.19,1.07-.42,1.33,0,.78-.2,1.97-.69,2-11.17.53-26.15.6-37.21-.18-2.45.51-3.92-.16-4.39-2.02-.02-7.39-5.6-13.84-13.61-13.86l-40.94-.14c-9.58-.03-11.53,7.95-13.01,14l-.67,2c-13.44.02-26.87.03-40.32.05l-1.18-2c0-6.24-.41-12.44,1.06-19.13,3.84-17.45,18.61-30.94,37.06-30.99l72.91-.2c14.89-.04,26.74,6.02,35.21,18.51,4.95,7.31,7.51,22.8,6.2,30.63Z"/>
    <path class="st5" d="M1198.2,873.53l.84,69.85h-43.24s.14-69.93.14-69.93l.68-2c13.46.03,26.93.05,40.4.08l1.18,2Z"/>
    <path class="st5" d="M1265.78,943.39v-69.95s.68-2,.68-2l38.3.28c1.77-.82,3.17-.61,4.2.61l.1,70.94"/>
    <path class="st7" d="M1307.91,813.67c.15-.43.43-.41.79-.03l.27,58.7c-.52.35-2.94,1.39-4.19,1.38l-39-.27-.15-59.98,42.29.21Z"/>
    <polygon class="st7" points="1198.07 813.47 1198.2 873.53 1155.94 873.45 1155.9 813.52 1198.07 813.47"/>
    <path class="st5" d="M1308.7,813.64l-.79.03c.12-.36.36-.99.42-1.33.07.03.37.93.37,1.3Z"/>
    <path class="st4" d="M1254.44,965.19h-41.38c-5.02,0-6.25-3.46-6.26-7.97l-.26-144.79c0-3.07,2.65-5.34,5.35-5.34l40.1.12c3.14,0,6.13,2.83,6.13,6.23l-.08,144.83c0,1.81-1.38,6.92-3.61,6.92Z"/>
    <rect class="st2" x="1219.8" y="819.66" width="24.94" height="133.3" transform="translate(-1.08 1.51) rotate(-.07)"/>
    <ellipse class="st0" cx="1015.87" cy="763.2" rx="806.25" ry="537.5"/>
  </g>
</svg>