<?xml version="1.0" encoding="UTF-8"?>
<svg id="Layer_1" xmlns="http://www.w3.org/2000/svg" width="2048" height="1536" version="1.1" xmlns:xlink="http://www.w3.org/1999/xlink" viewBox="0 0 2048 1536">
  <!-- Generator: Adobe Illustrator 30.1.0, SVG Export Plug-In . SVG Version: 2.1.1 Build 136)  -->
  <defs>
    <style>
      .st0 {
        stroke: #000;
      }

      .st0, .st1, .st2, .st3 {
        fill: none;
      }

      .st0, .st2, .st3 {
        stroke-miterlimit: 10;
      }

      .st4 {
        fill: #fcfcfc;
      }

      .st5 {
        fill: #070706;
      }

      .st6 {
        fill: #34483f;
      }

      .st7 {
        fill: #586c58;
      }

      .st8 {
        fill: #f2e8c9;
      }

      .st9 {
        fill: #090908;
      }

      .st2 {
        stroke: #8b6f47;
        stroke-width: 20px;
      }

      .st10 {
        fill: #8b6f47;
      }

      .st11 {
        fill: #1f3d2b;
      }

      .st3 {
        stroke: #1f3d2b;
        stroke-width: 40px;
      }

      .st12 {
        clip-path: url(#clippath);
      }
    </style>
    <clipPath id="clippath">
      <ellipse class="st1" cx="1031.323" cy="781.969" rx="806.25" ry="537.5"/>
    </clipPath>
  </defs>
  <g class="st12">
    <g>
      <rect class="st8" y="85.5" width="2048" height="1365"/>
      <polyline class="st8" points="1648 1184 400 1184 400 352 1648 352"/>
      <path class="st8" d="M1071.89,1053.089c.832.49,1.388,1.313.795,2.108-.485,5.441-12.446,4.798-10.964-1.6.495-2.137,3.448-7.677,6.024-6.466l.931-.59,3.213,6.548h0Z"/>
      <circle class="st7" cx="1490.5" cy="575.5" r=".5"/>
      <polygon class="st10" points="747.854 809.586 722.383 827.197 729.96 796.847 705.64 776.827 736.126 776.391 746.853 746.447 757.906 776.343 788.205 776.867 764.722 796.881 772.8 826.841 747.854 809.586"/>
      <polygon class="st10" points="1324.493 805.239 1299.559 821.842 1306.709 791.953 1283.344 772.289 1313.304 771.682 1324.075 741.915 1335.211 772.049 1365.297 772.479 1341.397 792.537 1349.266 822.623 1324.493 805.239"/>
      <path class="st9" d="M770.615,917.134c-2.147.833-3.97,1.097-5.47.79-1.502-3.537,2.035-6.706,2.731-10.735.362,3.836,3.576,6.69,2.738,9.945h0Z"/>
      <path class="st9" d="M1241.011,975.089c-.155,2.794-1.521,2.646-2.241,0,.494-1.29-.708-2.971.993-4.492,2.163,1.192.663,3.229,1.248,4.492h0Z"/>
      <path class="st9" d="M1333.006,880.089c-1.414,2.494-2.386,1.754-2.189-1,.071-.792-.478-3.069,1.138-3.048,1.619.384.887,2.924,1.051,4.048Z"/>
      <path class="st10" d="M1161.219,477.809l-13.897,7.442c-.061-5.325,3.077-9.697,3.688-14.924l-12.059-11.673,16.93-.497,7.131-14.684,5.88,15.853,16.215,2.054-13.695,10.322,2.627,15.282-12.821-9.175h0Z"/>
      <path class="st10" d="M1306.925,513.769c-17.022,9.191-40.695.346-40.969-7.772-.134-3.973-.569-8.779,1.234-12.284,1.865-1.993,8.318-1.091,10.487.497.824,5.395,2.12,10.83,7.531,12.251,4.75,1.248,10.228-.616,12.409-5.913,2.226-5.408,3.287-11.79,1.348-17.451-2.451-7.155-9.768-9.938-17.038-9.524-4.173.237-7.542,2.066-12.063,1.46l5.948-43.785,46.683,6.226c-.374,5.73-1.43,10.677-2.979,16.319-10.057-2.843-19.736-4.555-29.971-5.936-1.065,4.692-1.644,8.595-1.953,13.468l11.27.966c13.352,1.145,21.736,12.36,21.334,25.768-.306,10.2-3.915,20.66-13.271,25.712v-.002Z"/>
      <path class="st10" d="M1251.481,510.962l-52.769-4.708c-.263-3.083-1.185-8.427,1.45-11.036,10.405-10.299,21.507-19.064,30.815-30.25,9.494-11.409,10.975-26.532,1.986-29.556-3.239-1.09-7.037-.723-8.892,2.515-1.876,3.277-1.051,7.115-1.315,11.162-5.477,1.572-11.277.699-17.185-1.142-2.736-10.544,4.284-20.919,15.228-23.162,8.365-1.714,16.894-.606,24.654,2.868,10.518,4.71,14.998,15.828,11.793,26.872-2.107,7.259-6.984,12.866-12.642,17.904l-22.19,19.756c30.464,6.136,23.756-5.121,29.292-5.77,1.417-.166,3.234-.284,3.901,1.462l-4.126,23.083v.002Z"/>
      <path class="st10" d="M1437.386,508.864c-7.581,2.661-13.64,6.569-21.357,8.397l9.368-20.368-16.29-19.798,24.001,4.192,12.968-20.271,4.813,23.848,23.394,5.633-21.363,11.584,1.518,23.02-17.051-16.237h0Z"/>
      <path class="st10" d="M1384.254,510.685c-5.545,13.455-17.821,19.462-31.108,17.004-13.071-2.419-22.757-12.139-24.14-25.888-1.489-14.801.222-30.345,5.559-43.99,5.019-12.832,16.372-18.697,29.478-16.897,13.288,1.826,23.581,10.463,25.564,24.519,2.093,14.844.533,30.97-5.353,45.252h0Z"/>
      <path class="st8" d="M1365.44,509.69c-1.221,5.155-4.703,7.928-8.956,7.757-3.993-.161-8.289-3.48-8.353-8.653-.209-16.833,1.506-33.833,5.545-50.036,1.159-4.648,4.771-7.79,8.772-7.528,4.296.281,8.024,3.995,8.321,9.11.952,16.365-1.44,32.939-5.328,49.351h0Z"/>
      <path class="st10" d="M766.917,458.692l4.372,46.945c.417,2.125,5.308,3.232,3.93,6.793-7.315.949-14.91,2.285-22.811,2.039.388-4.103,3.601-5.303,4.788-8.547-1.49-22.757-3.282-45-6.095-67.536-1.843-2.921-5.126-3.563-5.829-7.919,8.643-1.578,16.895-2.171,25.049-2.457l17.62,31.957,12.316-35.512,23.783-2.549c5.541,2.886-3.162,6.16-2.779,11.336l4.857,65.676,4.947,8.36c-9.012,1.211-17.951,1.854-27.106,2.388-5.219.304,3.917-9.06,2.226-11.668l-3.433-44.483-14.011,43.084-21.823-37.906h-.001Z"/>
      <path class="st10" d="M859.489,468.385l1.342,23.889c7.41-.083,16.189,1.429,19.333-5.425,1.018-2.219,6.76-4.461,7.568-1.681,1.724,5.935.338,12.257.874,18.553l-48.605,3.311c-7.523.513,1.705-5.432,1.317-12.06l-3.604-61.545c-.502-8.568-7.024-6.4-5.013-11.96l49.786-3.481c.14,6.601,2.049,12.682.64,18.746-.562,2.419-6.351.795-7.403-1.308-3.131-6.259-12.766-4.842-18.463-3.372l1.382,23.497c13.14,2.766,12.823-5.838,17.813-3.242.967,6.187,1.684,12.898.91,18.731-6.36,1.945-1.74-5.565-17.876-2.652h-.001Z"/>
      <path class="st10" d="M1042.727,482.849c1.23-2.275,5.847-5.274,7.207-2.306,1.977,4.315.063,9.893.346,15.015-10.429,5.909-22.884,7.748-34.334,3.18-6.416-2.56-10.992-8.661-13.067-15.546-6.49-21.534-8.238-70.976,25.386-70.617,7.803.083,15.097,1.597,22.091,4.944-.426,5.872,1.228,12.413-.532,17.289-8.413,4.584-7.628-11.892-20.256-9.737-3.943.673-6.803,4.499-7.512,9.296-2.169,14.675-2.419,29.656-.032,44.286.813,4.983,3.977,8.808,8.252,9.796,4.435,1.026,9.682-.476,12.451-5.599h0Z"/>
      <path class="st10" d="M990.16,489.933c.063,8.913,20.348,11.693-24.561,10.401.187-4.152,3.293-5.496,4.36-8.643l-.812-64.606c-.086-6.82-4.58-7.402-4.584-10.539-.004-3.564,24.525-1.787,29.916-1.886-.233,4.528-3.929,5.804-4.787,9.398l.467,65.876h0Z"/>
      <polygon class="st10" points="630.591 505.521 613.657 521.321 614.904 498.524 593.695 486.225 617.508 481.282 622.291 457.77 634.679 477.878 658.469 474.934 642.829 493.364 652.192 515.006 630.591 505.521"/>
      <path class="st10" d="M925.039,471.426c-.724-1.758-4.223-1.56-5.015-.359.236,7.39.169,15.907,1.193,23.181,1.584,2.568,4.065,3.503,4.65,7.212-9.8,1.236-19.639,1.266-29.561,1.473-.054-4.028,2.987-5.545,4.159-8.893l-2.412-64.008c-.289-7.657-9.39-12.698-2.012-12.97l35.826-1.323c13.332-.492,21.705,9.439,22.374,22.237.572,10.943-1.485,21.826-11.526,28.385,4.161,9.174,8.349,17.673,13.409,26.369,1.539,2.645,4.71,3.645,5.292,7.72l-26.015.76c-.225-4.284-1.162-7.439-2.58-10.884l-7.78-18.9h-.002Z"/>
      <path class="st8" d="M932.193,453.776c-1.895,5.171-7.583,5.83-12.555,5.123l-1.076-30.656c5.362-.687,11.008-.754,13.119,4.148,2.717,6.309,3.005,14.582.512,21.385h0Z"/>
      <path class="st10" d="M700.173,501.092c-4.377,17.874.8,11.361,2.29,19.894-2.863.376-22.2,4.378-22.835,2.266-1.17-3.891,3.949-4.885,4.788-10.16l10.821-68.019c.337-2.115-5.11-4.132-3.108-7.199l29.002-3.826c.197,4.964,1.798,8.829,3.423,13.329l20.916,57.916c1.253,3.469,4.751,4.638,5.694,9.256l-27.904,4.113c-3.525-7.815,6.332-1.757-1.965-20.285l-21.122,2.717v-.002Z"/>
      <path class="st8" d="M718.046,486.869c-5.693,1.686-10.932,2.076-17.121,2.766l5.363-38.98,11.759,36.214h0Z"/>
      <path class="st10" d="M1095.77,480.506l-20.706-.458c-5.838,20.007,2.407,12.483.976,20.331-6.966.576-14.456.089-21.869-.564-2.093-5.1,3.716-3.46,5.691-11.239l15.568-61.303c1.605-6.32-5.886-11.728-1.586-11.861,10.672-.33,20.786.515,31.414,1.142-.042,3.484-1.892,4.871-2.609,7.588l16.382,68.674c.793,3.323,4.002,4.917,3.633,9.02l-27.772-.728c-1.018-8.466,6.331.612.879-20.605v.003Z"/>
      <path class="st8" d="M1093.646,469.439c-5.729.331-10.81.265-16.491-.325l8.327-36.41,8.164,36.735h0Z"/>
      <path class="st6" d="M1473.898,570.165c1.605.807,1.89,1,.063,1.425l-59.58-10.324c-117.835-20.418-237.374-27.456-357.402-29.135-117.225-1.639-234.163,5.223-350.245,19.23-41.276,4.981-81.454,11.707-121.61,18.79-.878-.204-.852-.504.011-.892,35.148-10.674,70.096-18.411,106.477-24.458,183.038-30.422,391.019-32.391,575.36-12.932,62.661,6.614,148.021,20.264,206.926,38.295h0Z"/>
      <path class="st10" d="M741.764,644.57c-1.139.071-1.312-.23-.525-1.084,89.937-13.279,179.573-18.428,270.025-19.228.32,3.659.661,6.572-.151,9.63-90.631-.375-179.871,4.213-269.349,10.682h0Z"/>
      <path class="st10" d="M1323.013,643.997c1.726.382,1.754.739.018,1.192-90.065-7.434-179.529-10.882-269.356-11.45-.506-3.365-.39-6.074.018-9.459,89.792,1.05,180.795,6.366,269.32,19.718h0Z"/>
      <path class="st10" d="M1042.366,628.734l-10.251,11.763c-3.705-4.29-7.198-7.667-10.183-12.07l9.823-12.116,10.612,12.422h-.001Z"/>
      <path class="st7" d="M585.134,569.26l-.011.892c-5.866,1.035-11.296,4.758-17.415,4.31,5.97-2.821,11.926-3.664,17.426-5.202h0Z"/>
      <path class="st6" d="M741.239,643.486l.525,1.084c-4.413.319-7.908,1.588-12.047,1.002-.856-.121-1.847,1.498-2.717,1.428-.873-.284-.86-.618,0-1-1.073-2.412,13.167-2.27,14.239-2.514h0Z"/>
      <path class="st7" d="M1473.961,571.591l-.063-1.425c5.555,1.7,10.547,2.219,15.204,4.592-5.593-.142-10.267-2.322-15.141-3.167h0Z"/>
      <path class="st7" d="M1323.031,645.189l-.018-1.192c5.371.81,10.728,1.169,16.114,2.579-5.801.218-11.15.066-16.095-1.388h-.001Z"/>
      <path class="st7" d="M727,646v1c-3.736-.301-6.533.629-10.088-.487,3.416-.626,7.098-2.367,10.088-.513Z"/>
      <path class="st8" d="M1002.471,560.243c4.137-1.435,8.542,1.018,9.487,5.731"/>
      <path class="st10" d="M872.531,1158.544c-2.623-.492-2.543-.995.05-1.751,44.115,1.72,87.166,6.07,130.81,7.434-.535,4.147-1.489,7.163-2.743,11.073l-71.265-6.974c-19.636-1.922-38.085-6.304-56.852-9.783h0Z"/>
      <path class="st10" d="M1182.387,1156.552c2.656.319,2.541,1.239,0,2-20.873,3.618-40.725,8.104-61.72,10.082l-68.364,6.44c-.644-3.779-1.255-6.73-1.439-10.759l106.659-5.15c8.795-.425,16.779-1.289,24.865-2.613h0Z"/>
      <path class="st11" d="M1086.402,1139.624l-26.832-.164c-.155-12.532,17.385-20.197,17.961-36.278.099-2.756-.847-5.047-3.104-5.524-2.466-.521-5.233.138-5.738,3.495-.235,1.561-.195,3.636-1.031,4.41-.93.861-4.645,1.246-5.857.176-1.955-1.726-1.482-7.848.915-9.85,5.745-4.798,15.632-4.85,21.2.077,5.202,4.603,4.173,12.611.162,17.462l-15.057,18.209c15.227,1.124,9.434-1.803,18.231-4.752.24,4.09-.218,7.824-.849,12.738h0Z"/>
      <path class="st11" d="M1127.466,1139.549c-1.055-2.846-.034-5.833,1.739-8.291l10.036-13.915c3.78-5.241,9.018-18.24,2.084-19.626-2.684-.537-4.8.743-5.513,3.668-.36,1.475-.239,3.573-1.094,4.161-1.026.705-4.817,1.053-5.839-.044-1.811-1.943-1.221-7.963,1.441-9.96,5.608-4.207,14.68-4.323,20.258-.112,5.605,4.232,5.016,12.522.967,17.472l-14.893,18.205c5.906,1.827,12.303.536,17.205-5.027,1.341,4.969.201,8.552.056,13.417l-26.446.053h-.001Z"/>
      <path class="st10" d="M1322.865,1137.535c-23.802,9.627-39.268,9.884-54.852-13.264,21.979-4.342,36.874-.667,54.852,13.264Z"/>
      <path class="st10" d="M1331.577,1120.991c-9.284,2.645-18.345-.112-26.333-4.924,13.948-11.503,30.876-17.049,49.174-17.562-3.404,10.517-11.67,19.304-22.841,22.486Z"/>
      <path class="st10" d="M1277.866,1154.904c-26.906,4.601-34.892-4.3-44.515-26.573,21.277-1.961,32.078,11.777,44.515,26.573Z"/>
      <path class="st10" d="M1252.013,1122.469c-1.816.679-3.651.263-1.929-.775,4.837-1.837,18.876-1.889,21.459-6.079,9.344-15.154,24.681-21.263,41.427-24.379-4.304,14.601-14.948,24.748-29.786,26.963-6.269.935-25.312,3.791-31.172,4.27h0Z"/>
      <path class="st11" d="M879.995,1139.432c.442-2.761,2.54-2.846,3.861-4.691l-.192-31.812-4.712-.603c-.865-.111-1.82-2.326-1.235-3.162,3.897.047,17.087-10.225,17.123-5.14l.285,40.779c.011,1.564,3.655,2.091,2.914,4.722-5.887.337-11.708.306-18.044-.093Z"/>
      <path class="st10" d="M1229.404,1160.778c-12.045-3.788-27.963-26.364-21.036-33.677,3.983-4.205,16.371-.333,20.459,9.973,2.92,7.361,3.836,15.512.577,23.704Z"/>
      <path class="st11" d="M907.471,1139.214c1.011-13.864,6.509-25.742,12.429-37.908-14.551-.498-10.486.989-13.213,3.33-.586.503-2.977,1.164-3.176-.013-.623-3.696.606-7.34.924-11.682l25.041.142c-.005,3.48-1.69,5.889-2.948,8.699-5.328,11.902-9.232,23.955-8.73,37.408-3.234.886-6.379.945-10.328.024h0Z"/>
      <path class="st10" d="M1244.89,1121.118c-.87,2.844-8.886,1.894-10.869.039-1.164,1.57-1.758,1.026-.913-.822,1.564-1.38,2.626-3.411,3.686-5.577,6.881-14.056,18.793-18.683,34.52-20.71-2.138,14.298-12.727,24.993-26.424,27.069h0Z"/>
      <path class="st11" d="M937.503,1139.266c1.344-13.627,6.794-24.991,12.485-37.555-16.448-2.036-10.023,5.241-15.814,3.055-1.242-3.617.599-8.211,1.123-12.113l24.128.394c-4.866,16.742-12.394,27.09-11.48,46.287-3.253.697-6.51.887-10.443-.069h.001Z"/>
      <circle class="st11" cx="1027.468" cy="1117.853" r="10.454"/>
      <path class="st10" d="M1218.927,1119.287c.877.187,15.045,2.378,14.182,2.741-.084.481-27.154-2.478-31.995-6.8,1.611-.547,3.112-.122,3.75-.573.435-.308-1.186-2.014-.834-2.563,5.956-9.275,18.978-9.883,26.607-2.548-2.897,5.674-8.298,6.197-11.71,9.743h0Z"/>
      <path class="st10" d="M1028.327,1186.018c-3.767-4.446-5.765-9.438-9.005-14.257l8.92-11.588,9.033,12.092c-3.554,4.268-5.343,8.305-8.948,13.753h0Z"/>
      <path class="st10" d="M830.482,1108.72c9.68-7.095,20.867-4.838,27.561,4.991-10.002,8.213-26.999,9.638-40.125,8.227-15.895-1.708-27.456-12.855-30.486-28.422,21.461,3.52,30.452,6.028,40.662,26.365,4.94,1.221,9.658.223,13.996-1.323-5.512-1.945-9.831-4.144-11.607-9.837h0Z"/>
      <path class="st10" d="M781.97,1134.683c-12.82,14.298-32.372,8.604-47.334,1.367,15.884-12.447,35.78-16.642,55.539-12.075-2.32,4.088-5.185,7.07-8.205,10.708Z"/>
      <path class="st10" d="M825.922,1128.979c.913-.37,1.144.009.795,1.026-2.156,3.71-4.405,7.478-6.436,11.651-7.201,14.796-23.374,16.127-39.003,13.374,11.445-15.55,25.078-27.643,44.644-26.051Z"/>
      <path class="st10" d="M793.793,1120.202c1.599.774,1.821,1.133-.003,1.58-26.705-7.211-36.812-1.834-49.706-31.665,16.994,3.482,30.019,5.563,39.594,21.048,2.436,3.939,5.862,7.714,10.114,9.037h0Z"/>
      <path class="st10" d="M749.911,1115.989c-7.239,4.451-15.67,6.308-23.997,5.052-12.109-1.825-21.193-10.98-23.93-22.922,17.309,1.572,33.518,6.93,47.927,17.87Z"/>
      <path class="st10" d="M853.499,1128.278c6.009,7.15-11.687,27.564-22.617,31.241-2.857-10.201-2.405-21.069,4.604-28.733,4.525-4.947,13.462-7.923,18.013-2.508h0Z"/>
      <path class="st11" d="M1107.364,1140.234c-18.762.231-15.419-28.895-12.936-38.66,1.678-6.601,7.026-9.676,13.471-9.495,6.482.182,11.456,3.73,12.837,10.339,1.872,8.96,1.895,18.485-.083,27.434-1.412,6.39-6.278,10.297-13.29,10.383h.001Z"/>
      <path class="st8" d="M1111.29,1100.699c.491,5.491,2.982,34.988-3.818,34.512-6.494-.455-4.308-28.502-3.8-34.136.218-2.414,1.863-4.092,3.644-4.251,1.962-.175,3.759,1.46,3.974,3.875Z"/>
      <path class="st11" d="M1170.948,1110.261c5.102-2.719,12.091-4.273,15.29,1.311,3.747,6.54,3.6,15.701.33,22.354-2.517,5.121-8.006,6.589-13.15,6.298-4.851-.275-10.049-3.12-11.66-8.842-2.648-9.405-3.76-31.756,7.837-37.272,5.177-2.463,11.55-2.845,15.72.437,1.516,1.193,1.084,6.526-.535,6.716-2.621-.899-3.446-4.012-5.722-3.962-2.387.053-5.16-.041-6.45,2.511-1.482,2.931-2.909,5.698-1.66,10.449h0Z"/>
      <path class="st8" d="M1178.162,1116.741c.539,3.502,1.759,17.705-2.775,18.26-6.111.748-5.194-13.568-4.75-17.94.231-2.268,1.892-3.503,3.753-3.584,1.607-.07,3.432,1.055,3.772,3.263h0Z"/>
      <path class="st11" d="M974.346,1110.209c5.26-2.73,11.429-4.057,14.9.553,4.93,6.55,4.68,16.509.793,23.589-2.593,4.722-7.791,5.969-12.629,5.992-4.605.022-10.091-2.266-11.834-7.771-3.062-9.668-4.156-34.175,8.507-38.925,4.986-1.87,10.084-1.849,14.491.909,1.695,1.061,1.482,6.944-.362,7.005-2.666-.378-3.386-3.509-4.785-3.888-2.143-.581-5.178-.892-6.785,1.224-2.301,3.029-2.967,7.321-2.296,11.312h0Z"/>
      <path class="st8" d="M982.041,1116.919c.61,3.687,2.041,18.287-3.642,18.209-5.505-.076-4.354-12.777-4.137-17.939.095-2.258,1.734-3.46,3.32-3.7,2.087-.316,4.043.913,4.459,3.43h0Z"/>
      <path class="st11" d="M1009.695,981.622c-11.062,4.141-2.769,15.983-10.192,13.531-1.588-.525-.917-2.508-1.331-4.152-2.291-9.089-14.729-2.905-16.528-4.897,4.922-3.328,10.415-3.56,15.669-5.743,1.075-.447,1.481-2.861,2.558-3.471,1.607-.911,2.51,2.053,3.836,1.884l15.949-2.031c-2.756,2.415-6.405,3.547-9.962,4.878h.001Z"/>
      <path class="st11" d="M1029.613,1007.771c-3.785-2.265-.861-5.655-1.846-8.077-4.004-2.553-8.238-1.497-13.404-1.875,3.119-3.652,8.422-1.972,12.346-3.708,3.086-1.365,4.037-1.371,7.541-1.431l15.666-.269-12.353,4.263c-3.744,1.292-4.546,7.444-7.949,11.098h-.001Z"/>
      <path class="st11" d="M977.021,1024.042c2.633.498,2.452,1.431-.131,2.047.044,1.598-2.743,1.428-3-.108-.273.726-.869,1.778-1.338,1.634-9.213-2.832-21.149-7.387-29.983-11.261-3.566-.627-5.383-2.021-5.45-4.184-.863-.277-.861-.631-.034-1.06,1.653-.002,3.738.214,5.816.944l34.121,11.988h0Z"/>
      <path class="st11" d="M920.89,1053.089c-.284.873-.618.86-1,0,5.458-13.591-17.849-38.157-21-50,.284-.873.618-.86,1,0,.748-.541,1.541-.741,2.393-.495,5.885,11.486,12.314,22.783,19.288,33.893,1.8,4.641,5.065,14.676-.681,16.602Z"/>
      <path class="st11" d="M937.084,1011.11l.034,1.06-1.261,1.694-33.759-10.958c-.525-.506-1.261-.445-2.208.183h-1c-.252-.946.055-3.217,1.346-4.053,12.395,4.146,25.424,6.514,36.849,12.074h-.001Z"/>
      <path class="st9" d="M1162.822,962.244c-.311.869-.66.85-1.045-.016-1.542-2.042-4.395-4.225-3.423-7.328,3.369,1.724,4.138,4.751,4.468,7.344Z"/>
      <path class="st9" d="M1155.977,966.089c.859.409,2.348,1.567,1.432,1.824-2.097.659-5.363-2.173-6.553-4.287l-2.539-3.788,7.66,6.251h0Z"/>
      <path class="st9" d="M1326.565,910.147c4.754,2.19,2.381,12.502-2.089,14.598-2.958-.219-6.452.522-8.767-2.653,3.045-2.178,6.599-1.657,9.586-4.499-2.632-1.791-5.392-.2-8.239-.146,1.426-5.124,5.53-6.06,9.51-7.3h-.001Z"/>
      <path class="st9" d="M1342.874,935.908c-4.35,3.657-7.307-5.032-.991-6.159.573,1.12,1.936.938,4.088-.544,2.808.577,5.975.045,8.654,1.32-3.313,6.586-6.417,1.623-11.751,5.384h0Z"/>
      <path class="st9" d="M1340.683,915.816c-3.2-.994-.312-3.512,2.189-3.94l3.496,4.607c-2.665.699-4.136-.212-5.685-.667h0Z"/>
      <path class="st9" d="M1344.014,924.197c-3.057.095-4.246-2.078-1.979-4.318,1.471.395,4.727.201,5.209,2.363.354,1.587-2.293,1.767-3.23,1.955Z"/>
      <path class="st9" d="M1249.888,1010.176c-2.668-.098-2.63-.996-.152-1.932.605-.166,1.503-.213,2.084.25.416.331,1.551,1.466.568,1.527l-2.5.155Z"/>
      <path class="st9" d="M1228.89,1004.008c1.946-.184,1.938.622,0,1.231l-1.461-.171c-.65-.076-.72-.925-.011-.969l1.473-.091h0Z"/>
      <path class="st9" d="M759.958,951.349c3.457,2.027-.722,15.156-4.906,11.787-.908-2.637-4.558-.953-6.439-3.102l10.062-3.853-8.267-2.198c3.131-3.045,6.632-1.295,9.55-2.634h0Z"/>
      <path class="st9" d="M778.363,949.764c-2.415-.263-4.043-3.191-1.446-4.601,2.644.122,5.293.373,7.99,1.923-1.652,2.755-4.199,2.379-6.544,2.678h0Z"/>
      <path class="st9" d="M754.68,945.228c2.664,2.04,2.741,3.327.231,3.861-1.252-.404-2.747.521-4.219-1.025,1.566-1.4,2.724-2.163,3.988-2.836Z"/>
      <path class="st9" d="M760.727,938.183c2.534.689,2.265,1.711.123,2.85-.909.114-3.74.572-3.91-1.064-.186-1.784,2.816-1.363,3.787-1.787h0Z"/>
      <path class="st9" d="M761.985,932.099c2.969.422,2.663,2.864.194,3.995l-2.289-.005c-.827-.255-.724-1.472,0-2-.022-.667.176-1.389.745-1.67.466-.23.938-.228,1.35-.32h0Z"/>
      <path class="st9" d="M758.89,936.089c-.103.823-.831,1.433-1.505.982-1.017-.681-.54-1.623-.011-2.016.464-.345.904-.79,1.516-.965.827.255.724,1.472,0,2h0Z"/>
      <path class="st9" d="M762.893,925.021c2.872.068,2.743,2.427.016,3.163-.595-.421-1.8-.969-1.999-1.653-.459-1.581,1.052-1.547,1.983-1.51h0Z"/>
      <rect class="st5" x="758.89" y="934.089" width="1" height="2"/>
      <path class="st11" d="M1302.004,951.664c.636.093,3.245,1.578,3.886,1.658.251.714,2.285,1.085,2.784.411.401-.542-.863-1.657.216-2.395,2.387.165,4.497-1.179,6.85-1.249.638-.019,1.651.16,2.136-.506.273-.375-.066-1.156.035-1.554.89-3.504-6.831.474-9.273-2.857,1.836-1.094,3.685-1.235,5.252-1.983,2.234-1.066,4.062,2.042,6.657.055-2.24-2.363-4.721-.709-6.733-1.242l-5.911-3.608,2.152-3.925c.326-.594,2.215.057,2.798-.852.271-.424-1.409-1.116-2.365-2.248,3.215-4.182,14.162-1.574,13.988-6.624-.087-2.517,1.787-4.626,2.443-7.223.623-2.467-.53-5.084-.354-7.376.048-.622.174-1.407.063-2.018,1.162-.211,1.874-1.385,2.185-3.022-1.369.428-2.104.803-2.944,1.245-1.777-.485-3.216-3.533-1.883-4.565l3.743-2.896c.605-.468-2.686-1.675-2.791-2.536-.155-1.263.952-2.485,2.277-2.982,2.495-.935-.051-3.483.571-5.015,1.348-3.323,2.748-6.133,3.031-9.268l2.189,1c.385,2.64,2.177,4.748,3.1,7.398,1.916,5.501-1.534,8.857-.174,10.107.908.835,1.813,1.873,2.922,2.463-.099.913.338,1.787,1.215,2.121-.416,1.094-.273,2.781-1.241,3.675.22-1.126-.947-.635-1.447-.794-1.09-.347-1.702.496-1.507,1.482.066.337.711.4,1.038.596.557,1.166,1.007,2.499.995,3.777l-.016,1.643c-.004.429.732.779,1.482.533.401-.131.154-1.346.518-1.363.797-.037,2.433-.573,2.982.15-1.093,1.093-2.131,2.337-2.189,3.94-.653.024-1.346.042-1.974.418-.531.317-.597,1.02-.653,1.648-.037.418-.293,1.11-.19,1.673.07.385.795.686,1.433.553.4-.083.728-.538.675-1.134l2.06.906c.34,1.582,1.46,2.809,1.979,4.318l-4.003.803c-.346-.419-.346-.866-.711-.94-.669-.136-1.346.176-1.438.557-.163.678.141,1.22.495,1.485.297.223,1.443-.327,1.697.014.474.754.996,1.44,1.832,1.827.19.289-.096,1.173.106,1.613.199.432.565.737,1.114.391.397-.251.544-.918.785-1.169l2.081.428c.057,2.766-4.041,1.9-5.579,3.331-1.709,1.623,1.583,2.728,2.482,3.373,2.473,2.486,7.981,1.2,11.027,3.607-2.386,3.202-6.321,2.072-9.99,3.241l14.358,5.664c-3.58,2.467-7.683,1.224-12.068,2.564,3.578,3.76,8.328,3.815,12.416,5.592,2.825.946-10.516,7.206-12.812,5.727,18.679,11.284,19.222,3.609,21.975,1.903,1.923-1.192,6.869.846,8.135-3.432-4.414-.476-8.404.647-12.723-.929,2.5-3.806,6.041-1.621,8.818-3.258-4.21-2.123-9.072-2.158-11.393-6.126,4.846-3.188,9.932-2.987,15.314-4.485-.238-1.636-2.359-.708-3.623-2.081l6.69-3.583c-5.579-.314-11.818-.42-16.789-3.97-.211-5.41,11.524-1.085,16.042-6.732-4.741-.579-8.751.522-12.836-2.866,5.352-2.009,9.803-3.488,14.684-6.082-4.105-1.908-8.286.145-11.541-3.42,4.848-1.263,8.944-1.542,13.419-3.48-2.93-3.605-9.798,2.897-14.273-6.443,2.096-.782,3.678-.027,5.088-.791-4.064-6.126,9.724-1.605,15.3-7.271-3.97-1.336-7.741-.183-11.062-3.322l11.208-5.215c-3.047-1.69-5.897.279-9.993.566,1.947-7.626,10.284-4.067,11.497-11.769-1.555-.805-3.489-1.165-3.861-2.609-.215-.836-.992-2.599.405-3.209,1.247-.544,2.767-.168,3.623-1.081.6-.639.399-2.091-.392-2.57-.519-.314-1.776-.415-2.235-1.249-1.203-2.44,2.934-2.827,3.583-4.888.413-1.311-2.26-2.864-1.617-4.121.532-1.041,2.204-1.618,2.591-2.805l3-9.195c3.682,7.138.404,9.668,6.804,14.028-1.402,2.785-4.528,6.587-1.566,8.939,2.131,1.693,3.829,2.713,3.628,5.336-.155,2.03-2.78,2.72-3.096,4.093-.572,2.488,3.006,6.63,5.975,4.695,1.418,2.532,2.848,3.602,3.531,6.262-3.719-.155-5.899-1.592-9.045-.845,2.222,4.559,10.385,4.115,10.569,6.296.295,3.482-7.432,2.597-8.757,4.148,4.844,3.289,10.028,3.007,15.647,3.972-.113,8.731-11.756,3.602-9.58,7.737.909,1.727,8.396,1.092,10.429,3.737-3.957,2.393-8.119,1.284-12.789,2.436,5.446,4.68,12.324,4.087,18.303,8.093l-15.345,2.903c4.941,3.133,10.601,5.637,16.579,7.242-.202,3.906-4.018,2.167-5.986,3.198-3.577,1.874-6.193,2.256-10.489,2.443,4.15,2.611,7.438,4.592,11.27,6.602,2.406,1.262,5.559.496,6.914,4.419-12.059,5.826-8.123-1.01-13.611,5.105-.839.373-2.643.602-1.575,1.432.538.419,1.453,1.506,1.979,1.375,4.427-1.103,4.89,1.695,7.481,3.333l6.289,3.977c2.097,1.326,5.654-.41,7.533,3.055-14.547,9.018-8.647.583-17.947,6.811,9.877,3.499,6.08,6.24,12.885,5.524-.587,1.462.514,2.639.764,3.853,1.463.453,6.88,1.497,6.241-1.822l.003-2.982c.644-.109,1.366-.35,2.008-.37.221.258.383.883.74,1.108.586.37,1.054.145,1.276-.358.206-.467-.335-1.327-.097-1.645.293-.391,1.121-1.093.778-1.386-.686-.585-1.706-.708-2.546-.714-2.263-.017-6.668-.758-4.769-3.371,2.216-2.058,7.417.139,9.254-3.498-2.351-1.492-5.558-.585-7.82-3.262l9.558-3.234c-2.142-1.394-4.605-.346-6.631-2.281,2.265-2.033,5.046-2.153,7.442-3.74-2.431-1.294-3.943.604-6.634.582-.43-5.465,7.469-4.735,7.107-8.451-2.122-.886-3.061-1.969-2.814-3.919.158-1.249,2.099-1.955,3.227-2.901-1.665-3.344,2.876-15.707,3.903-20.913,2.225,6.095,3.245,11.656,4.459,17.65.112.554-1.437,1.457-1.177,2.024,1.683,3.661,4.9,1.721,3.204,4.9-.385.722-1.342.835-2.61,1.935,3.137,1.212,5.237,2.357,5.07,5.439-1.785-.436-3.666-1.142-5.398.491,2.891,2.147,6.061,2.285,8.773,5.069l-7.013,2.457c2.011,1.98,4.028,1.399,5.59,2.351.064.694-.09,1.553.211,2.362.321.86,1.371.465,2.07.386.947-.108,2.072.091,2.953.092.409.704.153,2.019-1.147,2.191l-7.99,1.058c.479,1.825,2.017,1.45,3.035,1.995,3.062,1.637,6.92.498,9.911,3.846-2.956,1.858-6.391,1.468-9.654,2.698,2.548,3.278,6.998,2.173,11.134,4.494-3.338,1.921-6.692.133-10.18,1.596,3.352,3.061,8.05,3.949,12.611,6.634-3.747,3.446-10.763.867-10.803,4.357-.012,1.011-.645,1.799-2.032,2.806,1.593,1.166,3.012-.628,4.113-1.68.827.675,1.942.898,2.94,1.168-.041,1.642,8.662-.071,9.15,1.487-1.945.845-12.119,4.447-15.201,4.808,4.162,8.975,11.031,5.588,13.978,11.089l-12.839,4.067c.976,3.184,4.372,2.041,5.847,3.521,6.349,6.367,15.039,8.476,13.975,10.311-1.262,2.177-11.843,1.508-15.132,4.337,3.698.723,6.352,1.759,9.325,3.303,2.281,1.184,12.172,1.267,8.123,3.087-4.205,1.89-8.574,2.652-13.519,3.008l16.297,6.507-55.035,8.217c-46.988,7.016-120.039,10.678-168.149,10.676l-455.482-.021-91.414-1.902c-47.998-.999-102.753-9.73-150.099-16.812,5.905-4.092,11.764-1.49,16.849-6.055-5.166-.886-10.104-.393-14.282-3.225.174-2.232,2.73-1.061,4.349-1.566l13.28-4.142c-2.988-3.118-16.088-1.705-14.842-5.16.104-.288,8.957-4.041,14.339-9.048,1.706-1.587,6.227.361,5.791-3.777-3.891-.356-8.393.718-11.331-2.13,5.221-8.684,7.801-.402,11.87-8.645.429-.359,1.958.192,2.076-.507.148-.875.304-2.143-.476-2.468-.478-.199-1.21.045-1.621.048-1.386.012-2.71-.42-3.919-1.087l-.084-4.761c2.425-.766,4.52-1.609,7.343-2.839-5.361-1.594-9.866-1.081-14.541-3.193,1.791-3.154,12.376-1.824,14.671-6.654-4.391-.496-8.037,1.038-11.863-1.421,4.796-2.494,9.489-1.861,13.683-5.189-3.608-1.506-7.41.34-10.502-2.192l11.476-3.292c-1.745-.996-11.52-1.046-10.8-3.922.768-3.068,8.313.654,13.863-4.308-3.643-1.03-6.535-.083-9.373-2.248,3.084-2.093,6.597-1.356,9.395-4.341-2.933-1.605-5.302.96-7.947-.098,3.204-6.188,7.868-3.898,8.053-9.06-.887-.844-2.88-1.388-2.484-2.933,1.33-5.185,3.882-2.936,3.77-5.819-.025-.653-1.261-1.761-1.074-2.594,1.116-4.981,3.213-9.145,4.746-14.359l3.427,10.461c1.063,3.244.725,6.159.602,9.17,1.247.945,3.732,1.288,3.385,3.007-.349,1.732-1.683,2.245-3.367,3.201.661,6.716,6.883,4.647,7.744,8.875-2.532.731-4.91-.239-6.978,1.245,3.796,3.071,8.395,1.105,11.95-.053-.831-1.162-1.894-1.726-1.72-2.162s1.792-1.168,2.326-1.065c4.312.832,6.394-3.025,8.822-4.818,2.697-1.991,9.114.196,8.554-5.586-5.061.336-10.396,1.461-14.943-1.68,3.341-1.732,5.578-2.636,6.683-5.571,2.318-.67,5.03.255,6.853-1.304.589-5.565-.43-2.386,3.523-6.475l-14.957-.214c-1.338-.019-2.853-1.268-2.588-2.175.224-.766,1.21-2.652,2.322-2.732,3.871-.279,5.894-2.56,9.128-3.731l8.16-2.956c-1.785-.105-18.607-3.82-18.184-5.228,5.918-2.821,11.904-3.743,17.147-7.36l-9.135-.773c-.777-.756-1.126-1.794-1.249-2.853l13.039-5.234c-4.191-2.439-8.703-.237-12.67-3.321l13.764-4.876c-3.519-2.079-7.3.048-10.044-2.086-9.393-7.304,7.996-2.055,14.307-8.084l-10.191-2.775,11.177-5.043c-2.523-1.648-5.107-.184-8.57-.328,1.271-6.789,8.592-4.717,9.191-10.623-2.054-1.125-3.607-1.931-3.318-3.953.646-4.536,7.468-5.402,4.785-9.796-.912-1.493-1.692-2.504-1.445-4.284.144-1.037,1.985-1.624,2.626-2.922,1.714-3.472,1.088-7.5,3.923-10.299.956,5.914,2.142,9.556,5.596,12.606-.826.671-1.901,1.416-2.31,2.683-.309.96.947,1.458,1.517,2.125.979,1.145,2.602,4.618,1.234,4.492l-1.938-.179c-3.317-.306,3.908,3.999,3.553,6.292-.195,1.261-2.353,1.827-2.687,2.855-2.273,6.99,8.794,4.194,9.64,11.261-3.448.052-5.846-2.424-9.261-1.026,2.151,4.044,6.599,2.619,9.917,5.356-2.054,3.269-5.552,2.01-9.08,3.211,3.562,3.968,8.282,3.463,13.949,3.963-1.328,7.623-6.12,4.694-9.316,7.687-2.048,1.918,10.734,2.23,12.609,5.015-3.423,2.16-6.787.516-10.939,1.748,4.457,3.266,9.282,4.975,14.161,7.516-2.664,4.397-5.204.861-11.096,3.408,7.132,5.088,16.639-.536,15.888,6.823-4.41,1.544-9.244,2.735-13.797,3.683-.802-2.086-2.77-.901-2.673-1.077-.333.61-.29,1.697.371,1.769.563.061,1.928-.159,2.278.276,2.499,3.097,4.295,1.324,9.503,6.922,3.036-2.043,4.198.644,6.118,1.678,2.551,1.373,7.072-.969,8.865-2.959-3.873-1.449-6.892.834-9.982-2.092l12.29-4.464-10.919-2.488,10.414-2.614-9.012-1.892,12.488-3.994c-2.959-2.252-6.54.675-9.561-2.875,1.519-2.169,12.278-2.723,10.696-5.355-.976-1.624-7.153,1.471-6.912-2.744l8.069-3.642c-2.377-1.077-4.351.556-6.13-.795l6.821-5.974c-1.751-.585-3.067-1.809-3.106-3.099-.066-2.176,1.719-2.748,3.731-3.547l-1.916-4.297c1.16-.836,1.829-1.655,2.323-2.289.61-.781-1.244-2.609-.865-3.292,2.036-3.675,3.074-6.969,3.783-11.273,3.531,9.168,5.668,12.139,4.304,20.756.95,1.203,3.66,2.097,3.205,3.953-.317,1.294-1.471,2.247-3.05,3.181l1.945,5.315c3.56-.122,6.212,1.6,6.109,5.086l-6.218.171c-.708,4.177,10.177.872,9.064,8.663-2.665.397-5.258-1.001-7.242,1.025,5.182-.051,9.617-.309,11.999,4.612-1.891,2.447-5.649,1.721-9.211,3.008,2.341,3.863,6.665,1.566,9.524,4.092-3.4,1.5-6.678.272-9.463,1.869l12.644,7.245c-3.451,2.217-6.886,1.089-10.823,2.88,3.754,3.38,8.516,2.758,14.312,4.617-3.152,5.118-9.3,4.882-14.557,4.948,5.328,8.848,7.57,4.27,15.138,10.213-4.293,2.245-8.277,4.808-13.996,4.653.861,3.27,4.265,3.302,6.717,5.189l5.677,4.369c3.468,2.669,7.528,2.637,11.149-.932-3.468-1.556-7.148-.537-10.759-3.548,3.989-1.972,7.242-1.422,10.018-3.081,5.068-3.028-.507.678,4.689-7.147.244-.816-1.918-1.889-1.254-2.883.354-.53,1.481-.893,1.471-1.758-.029-2.405-3.257-1.682-5.047-2.26l-.231-3.861c.315-.168.849-.194,1.207-.205.005.424-.336,1.887.498,1.955.029.002,2.192-1.649,1.505-2.016l1-.047c.412.627.963.947,1.456,1.234.695.403,1.59-.316,1.469-1.01-.054-.313-.293-.588-.524-.922.58-.437,1.44-1.052,1.418-1.711-.035-1.038-1.349-1.079-1.859-1.473-.511-.811-.341-1.974-.123-2.85.81-.353,2.434-1.032,1.451-2.089-.637-.953.222-2.904-.194-3.995.87-.194,1.55-.79,1.751-1.596.235-.945-.107-1.776-.827-2.32l-.016-3.163c.496-.261,1.439-1.054,1.531-1.648.119-.765-1.459-1.716-1.081-2.363l1.802-3.086c1.02-.246,1.264-1.374,2.051-2.477.532-.746,2.274-1.031,2.595.043.155.52.366.959.824,1.643-.153.597.182,1.295.081,1.906-.804-.117-.746.732-.61,1.317.071.304.447.571.642.816-.349,2.111,3.147,2.839,3.211,4.94-.433,1.839-2.783,2.9-2.218,4.483,1.147,3.214,6.373,1.716,5.572,5.44-2.049.856-3.542-.792-4.948.592,1.212,1.635,3.084,1.857,4.545,2.364l-.168,2.895c-1.041.061-2.137-.332-3.623.617.766,1.054,2.385,2.593,3.817,2.659.217,1.635,1.952,2.821,1.446,4.601-.805.265-2.173.065-2.593,1.215,3.134,1.999,6.031.458,8.915,2.853-2.783,2.256-5.707.599-7.736,2.784,3.115,2.114,6.251,1.842,9.541,3.422l-6.244,2.98,5.626,2.976-1.052,2.094c-1.574.877-3.597.987-4.959,2.561l11.274,4.078c-3.258,3.245-6.945,3.408-11.14,3.445,2.144,7.049,6.149,4.365,11.316,8.939-2.82,2.995-6.501,3.261-10.309,3.895.142,2.859,3.231,2.242,4.718,3.418,3.855,3.048,7.748,5.629,12.986,7.414-4.321,4.224-9.032,1.974-12.843,4.797l13.567,4.316c-3.679,3.334-7.836,2.982-12.593,3.36,3.829,3.536,8.655,2.328,13.605,4.779l-10.303,4.989,16.643,8.044c-2.314,2.582-5.928.981-7.891,2.112-2.385,1.374-3.971,1.973-7.098,1.74,7.051,4.721,10.685,5.099,17,8.29-4.292,3.665-9.318,3.667-15.28,4.003,4.231,4.773,17.457,4.827,20.227,8.611-.074-3.12-.96-5.072.436-7.702,1.209.777,1.319,2.074,1.738,3.132.474,1.198.069,2.682,1.033,4.122,1.246-.803,1.678-2.414,2.445-2.53,1.652-.251,1.364,1.873,2.05,2.823.957,1.326,1.711-.834,2.309-1.21,1.003-.63,3.098-1.263,3.779-2.866,1.974-4.648,6.934-6.499,9.61-10.383,2.285-3.316-.107-9.518-1.047-13.196-2.05,3.15-1.838,6.552-3.351,9.804-2.607.269-3.986-1.941-5.027-3.094-2.203-2.44-.145-4.246.179-6.651.745-5.528-.709-11.813,1.696-17.187l6.899-15.418c4.634-10.357,13.008-5.092,20.509-15.382,1.732-2.376,4.54-3.513,7.385-3.264,2.118.185,5.059,1.933,6.087,4.506,1.509,3.775-.43,7.337-1.116,10.891-.677,3.509-.815,6.35-5.585,7.106,1.332,3.779-.147,8.076,1.523,11.679,2.498,5.389,18.349,17.58,9.963,23.049-1.015.662-1.881,1.068-2.874.592-1.451-.694.544-4.276-.971-5.022-.509-.251-1.247.362-2.112,1.416-2.164-6.683-4.868-2.761-12.448-11.275-4.122,3.677,7.606,12.067,7.72,18.255l.342,18.719c4.305.405,8.522.358,12.404-.655.588-.153.634-2.248,1.876-1.746,1.06.429,2.466.897,2.936.348l2.355-2.749c.577,2.418.144,4.406,2.863,4.287,2.222-.097,4.21.329,5.65-2.964,1.73,3.359,16.016,4.898,14.986.114,3.316,3.034,7.302,1.435,10.976.982.502.486,1.164.821,1.861.924l3.345-1.597c11.031.58,22.069.482,33.114-.294-2.747-3.549-9.889-12.921-3.346-15.204l22.948,3.141c5.575-7.634,5.259-9.781-.95-6.442-5.035-.698-7.124-7.036-2.012-7.828.166-1.852,3.673-1.185,4.971-.021.544-.4.554-.611,0-1-1.109.836-2.612.448-2-1l.131-2.047c1.751.615,4.514-.695,5.562-1.812,1.325-1.413,1.335-3.531,1.239-5.23-.077-1.351-.633-2.625-1.123-3.866.681-2.452,3.321-2.633,5.684-2.191,2.948.551,1.77,3.563,2.84,6.027,1.242,2.859,3.551,5.199,4.248,8.528.741,3.543,2.613,5.722,6.433,7.139-1.515,2.048-3.005.881-4.807.727l-.707,12.287c24.105,1.804,47.629-.48,71.526-4.846,1.556-.284.859,3.439,1.034,4.096-.912.388-.732,1.599-1.205,2.231-1.982,2.648-3.243,5.456-5.034,8.928,3.847.491,7.451,1.291,9.973-.862l1.202-.076c1.09-.702.935-1.941,1.12-3.892.575-.297.711.567,1.035,1.102.133.22.502.437.639.068.235-.636.298-1.082.673-1.943,1.401.652,1.799,2.678,2.814,4.305,2.821-1.592,5.097,1.198,7.68,1.456,11.588,1.155,22.53.271,34.23.502.457-2.678,1.968-4.297,1.037-7.165-.04-.848,1.446.226,2.091.578.969,1.266-.418,3.893,2.325,4.09.235-1.916-.539-3.564.032-4.978l.4-2.654c.713-4.734,1.165,5.927,4.083,6.869.924.298,2.089.468,4.453-.279.19,3.912,5.186,4.923,8.296,3.125,1.225-28.176-16.668-26.922-15.832-50.272l.477-13.327c-5.689-.511-8.199-4.703-8.439-9.501l.732-.62c-.548-2.566.411-.959-.842-1.582-2.94-1.461-7.926-2.649-9.342-6.286-2.305-5.92-.324-13.587,3.82-17.368.16,4.249-2.64,6.875-1.342,10.574,4.087-.9,3.19-14.214,9.656-16.895-1.415,4.722-4.43,8.057-3.929,13.236,3.35-.856,4.505-3.61,6.094-6.403,1.177.919,1.615,2.002,2.536,2.083.847.074,1.451-1.152,2.643-.396l-11.973,8.717c-1.089,7.236,3.601,12.029,10.496,13.449l1.522-5.979c2.377,2.967.434,5.888,1.875,8.855,3.318.649,6.626.821,9.848.242,1.107-2.66-.141-5.083,1.339-7.747,1.79,1.892.82,4.19,2.007,5.769,6.019-1.129,9.502-4.31,9.661-9.764h1.087c2.454,1.346,2.87,1.161,1.248-.555l.012-2.101-2.262-.42c-.033-.976-.112-1.949.003-2.924.039-.33.099-.668.087-1-.033-.901-1.765-9.339-2.018-10.214.473.039,3.204,7.338,3.677,7.298.64,1.899.99,4.246,3.026,5.611,1.382-2.536.71-4.631,1.116-6.556l1.045.016c.568,4.473,3.026,9.659,2.636,14.209-3.101,4.299-8.923,5.061-13.553,7.012.655,1.118,2.074.663,3.74,1.154.054,4.903-3.85,8.311-8.429,9.966-1.499,1.699-.922,6.793,1.077,8.173,17.629,12.177,38.635-8.77,58.831,12.072,2.594,3.907-1.013,11.068-2.763,14.654-5.219,10.694,5.249,15.649,4.837,18.873l-1.276,9.976c4.059-.12,7.941.676,12.609-.501l-6.571-3.982c3.466-1.681,7.136-1.092,10.06-3.291-2.878-1.432-5.503-.059-7.752-2.503l9.723-3.46c-3.441-1.977-6.558-1.011-9.629-3.578,4.884-2.779,9.297-4.732,12.728-8.575-2.984-.803-6.085-.196-7.078-2.829,3.62-1.705,7.293-2.491,8.38-6.076-3.388-.373-6.142.341-8.05-2.541,2.368-1.987,5.061-1.126,7.211-3.685-1.734-2.005-4.023-1.153-5.284-3.144l5.345-2.282c-1.241-.439-2.589-.493-3.757-1.681,2.408-1.622,4.797-1.29,7-3.191-1.203-1.185-2.615-1.617-3.964-1.775v-1.231c1.523-.094,2.982-.273,5.057-1.004-.207-1.282-1.327-1.178-2.099-1.329l-.026-2.528c1.353-.404,2.578-.928,4.099-2.034-.867-.749-1.598-.58-2.225-.843-.403-2.98,3.478-4.321,2.265-7.234-.229-.549.222-1.312.073-1.892.837-.438.878-1.474.829-2.318-.193-3.364.711-6.616,1.906-9.738h2.241c1.712,3.689,2.048,7.912,2.774,11.885-1.964-.292-1.644.95-1.542,2.592.082,1.322.653,1.659,1.508,2.597,1.145,1.256,2.582,1.342,4.093,2.462-1.265,1.745-2.792.713-4.294,1.708,1.982,2.075,3.933,1.748,5.322,2.715l.039,1.089c-1.25.79-2.876.945-3.919,2.079-1.507,1.638.114,3.982,1.877,4.693.9.363,1.577,1.69,2.866,1.336l.152,1.932c-7.025,1.528,4.636,2.644,4.224,5.057-1.963.768-4.034.336-5.501,1.848,2.193,2.295,4.994,1.444,7.701,2.987-1.048,3.68-4.303,3.223-7.704,3.079-.677,7.65,14.743-.338,18.029-3.066-3.54-2.815-7.91-.966-10.328-4.762,5.595-2.157,10.747-1.516,14.695-5.086-5.402-.056-10.083.278-13.903-3.195,4.621-1.835,9.479-1.421,13.467-5.086l-12.503-4.03c4.368-2.854,8.624-4.44,12.498-7.572,1.749-1.414,5.453-.661,5.976-4.157-3.659.255-7.145.61-10.711-1.963,5.423-6.524,10.39-2.561,10.661-10.464-4.721.291-8.56.213-10.889-3.849,4.663-1.008,8.62-2.332,12.377-4.343-3.563-1.965-6.843-1.721-9.678-4.537,3.55-2.223,7.408-1.722,10.739-4.357-2.839-1.461-5.825-.011-7.982-2.576,2.651-1.832,5.475-1.174,8.959-2.367.368-1.588-8.291-.386-7.032-4.911.93-3.341,6.591,1.577,9.932-3.696-3.626-.291-6.559,1.128-8.824-1.923,1.554-2.946,12.433-1.271,9.804-5.364-.743-1.157-6.467.714-6.434-1.9,1.985-2.688,5.317-1.677,7.566-3.473-1.898-1.587-3.599-.207-5.335-1.174,1.353-2.504,3.508-2.664,5.554-4.096-.356-2.361-2.837-3.208-2.178-5.375,1.304-.591,3.412-1.258,2.84-2.148l-1.649-2.563c-.345-.536,1.684-1.355,2.096-1.904-1.959,2.607,3.325-13.193,3.017-12.253,1.328,3.77,1.803,6.498,3.341,9.474,1.009,1.953-1.302,4.615.187,6.449,1.027,1.265,2.671,2.089,2.616,3.585-.052,1.409-1.432,2.352-2.706,3.691,1.478,2.447,4.402,1.833,5.256,5.015-1.551.939-3.511-.31-5.369,1.338l8.353,3.384c-1.86,2.873-4.706,1.3-7.204,2.836,3.007,3.354,7.119,1.461,10.553,4.328-2.836,2.474-5.947,1.354-8.882,2.72,1.821,5.434,11.1-3.675,9.117,5.462-2.253.968-5.302.58-7.754,1.264,1.853,1.14,2.953,1.676,3.856,2.522-.057.937-.088,1.879.05,2.811-.069,1.392-.627,1.532-1.473.551"/>
      <path class="st11" d="M982.699,1013.134c3.082-.346,3.568,1.928,1.123,3.866-.907-.343-2.307-.564-2.878-1.498-.887-1.449.869-1.989,1.755-2.369h0Z"/>
      <path class="st11" d="M920.819,1056.333c-1.355,2.49-2.437,1.873-1.861-.924l.932-2.32h1c2.742.506,2.574,2.363-.071,3.244Z"/>
      <path class="st8" d="M1190.664,1049.235c-.192,2.257,2.897,5.146.969,7.986-1.319,1.944-5.846.552-7.977.381-.471-1.723-.163-3.099-1.101-3.163-3.667,4.583-10.921,4.069-15.012,1.577-2.338.882-5.978,2.441-9.422.491l3.909-17.528c7.248.27,13.827.133,20.978-1.921,2.246,4.714,4.273,8.866,7.656,12.177h0Z"/>
      <path class="st8" d="M854.304,1057.878c-6.508,1.096-11.664,1.166-17.396.466,7.85-10.945,12.525-6.231,13.61-17.98,1.054-11.416,4.219,20.058,3.786,17.514Z"/>
      <path class="st9" d="M1437.882,983.189c2.484.524,2.857,2.276-.003,2.982-.066,2.526-4.522,3.388-6.241,1.822-3.266.045-4.062-3.085-.764-3.853,2.346-.247,4.681-.556,7.008-.95h0Z"/>
      <path class="st9" d="M1326.628,908.128c-.111-.606-.726-1.122-.759-1.777-.915-3.281,3.194-4.004,4.252-1.136.973,2.638-1.399,5.395-3.493,2.913h0Z"/>
      <path class="st9" d="M1339.974,918.974c3.512,5.51-8.057,2.003-1.919-1.092.841-.022,1.263.804,1.919,1.092Z"/>
      <path class="st9" d="M1339.89,911.727c1.64.542.605,2.662-1.07,2.947-2.851.485-4.236-3.316-.914-3.761.756-.044,1.611.076,1.984.814h0Z"/>
      <path class="st9" d="M1338.827,905.853c-.52.48-1.58.507-1.916,1.283-1.185,2.949-3.7.334-2.776-2.043,1.148-2.954,6.318-2.799,4.692.759h0Z"/>
      <path class="st9" d="M1343.89,928.777c1.948,3.595-7.283,2.177-2.005-.835.746.04,1.574.159,2.005.835Z"/>
      <path class="st9" d="M1441.809,981.924c5.665,2.662-4.097,6.604-1.919.895.433-.629,1.193-.825,1.919-.895Z"/>
      <path class="st9" d="M1340.069,902.178c-2.724,1.51-3.594-.092-1.215-2.121.457.243,1.477-.222,2.037.554.565.783-.65,1.116-.821,1.567h0Z"/>
      <path class="st9" d="M1340.011,925l.042,1.115c-.974,3.873-5.089.813-3.835-2.172,1.175-2.798,5.522-2.29,3.793,1.056h0Z"/>
      <path class="st9" d="M1248.911,1000.136c-.885-.281-.884-.645-.039-1.089.423.295,1.078-.171,1.5.035.616.3.674.675.008,1.007-.408.203-1.037-.226-1.469.047h0Z"/>
      <path class="st8" d="M1352.772,979.876c-1.592-1.071-.694-2.62,1.087-1.551,5.267.258,10.236,1.912,16.179,3.212-4.406,2.485-9.34,4.512-14.204,3.157,1.805-.887,5.532-1.231,3.941-3.299-1.943-1.721-5.153-.387-7.002-1.519h-.001Z"/>
      <path class="st8" d="M1315.995,957.043c-5.329,3.885-12.21,3.882-18.009-.557.6-.726,1.788-.483,2.799-.648"/>
      <path class="st8" d="M1437.832,997.333c-6.295,4.004-9.557,2.794-16.135-1.213,5.609-1.137,10.395.027,16.135,1.213Z"/>
      <path class="st8" d="M1366.654,993.516c-1.818,1.21-9.401,2.866-10.034,1.378-.263-.618-1.164-2.364.284-2.562,3.359-.46,6.329-.214,9.749,1.184h0Z"/>
      <path class="st8" d="M1437.88,986.17l1.369.487c.522.186.899.63.882,1.023-.042.994-1.101,1.317-2.042,1.565-2.833.748-5.839,1.725-6.451-1.253,2.138-.393,4.163-1.203,6.241-1.822h.001Z"/>
      <path class="st8" d="M1312.613,980.577c.077,1.504-2.86,1.962-4.652,1.765-.477-.052-1.368-1.007-.942-1.403.891-.827,5.506-2.079,5.594-.362Z"/>
      <path class="st9" d="M1246.869,1006.908c-3.179,3.479-6.965-4.918-1.877-4.693l6.918,1.648-5.041,3.044h0Z"/>
      <path class="st9" d="M1243.785,986.974c.267,1.458.429,2.947,2.227,4.246-.208,1.092-1.588.919-2.261.943-5.507,2.021-4.071-9.968.034-5.189h0Z"/>
      <path class="st9" d="M1233.696,996.27c-.334.539-1.71.802-2.234.489-.49-.292-.954-1.721.203-1.82.712-.061,2.085-.848,2.829-1.687.371-.418-1.987-.614-1.94-1.379.247-1.571,2.268-2.114,3.407-2.837,4.546-.086.744,6.761-2.265,7.234Z"/>
      <path class="st9" d="M1231.822,999.147c2.79.339,2.677,1.758.026,2.528-1.132-.06-3.011.076-3.372-1.653.521-.915,2.472-.614,3.346-.875Z"/>
      <path class="st9" d="M1236.864,984.827c3.186.503,2.354,3.154-.829,2.318-.509-.247-1.379-1.059-1.115-1.526.376-.666,1.411-1.461,1.944-.791h0Z"/>
      <path class="st8" d="M1264.951,1032.631c-5.091,1.333-6.397,4.846-10.907,3.633-1.874-.505-3.034-1.854-3.881-3.797,5.415-1.191,10.021-1.639,14.787.165h0Z"/>
      <path class="st6" d="M1273.872,983.644c-1.054.793-2.281.606-4.064.179.577-1.149,1.703-1.067,4.064-.179Z"/>
      <path class="st9" d="M1437.267,992.518c.036-.885,1.604-.345,2.047-.417.333-.054.833.449.563,1.457-.542,2.02-2.532-2.942-2.61-1.039h0Z"/>
      <path class="st9" d="M978.89,1028.089v-1c1.176-.026,1.172,1.001,0,1Z"/>
      <path class="st9" d="M1158.15,970.433c2.055,1.912,2.541,3.917-.511,2.993-.312.874-1.424.523-1.836-.337.03-1.023.118-2.053.084-3.076.677-2.734,2.021-2.301,2.262.42h.001Z"/>
      <path class="st8" d="M1153.332,1056.751c-1.668-.161-3.967.419-4.082-.546.648-6.29.986-11.647,2.539-18.056,3.203,6.625,1.171,12.647,1.543,18.601h0Z"/>
      <path class="st8" d="M1204.015,1058.051c-2.699,1.02-5.312.641-7.982-.191l3.227-9.493c2.58,2.28,4.817,5.382,4.755,9.683h0Z"/>
      <path class="st8" d="M1157.641,973.276c.673-.684.635-1.756.509-2.843,1.439.267,2.207,1.574,2.672,2.504.822,1.646-.765,4.575-2.282,3.788-1.397-.725-.876-2.709-.899-3.45h0Z"/>
      <path class="st8" d="M1116.964,974.069c-1.019.929-1.987-.277-2.308-1.028-.47-1.102.033-1.86,1.509-2.705.488.666.501,1.431.799,3.733h0Z"/>
      <path class="st8" d="M1126.89,984.089c2.096,1.078,4.392,1.474,3.512,3.262-2.111-.79-3.056-2.059-3.512-3.262Z"/>
      <path class="st9" d="M761.292,944.218c6.385,1.375-3.608,7.476-2.402.698.238-1.054,1.605-.636,2.402-.698Z"/>
      <path class="st9" d="M776.722,941.887c-2.911-.078-2.551-2.35.168-2.895.664.23,1.888-.246,1.975.63.091.914.322,2.141-.487,2.446-.548.206-1.251-.205-1.656-.181h0Z"/>
      <path class="st9" d="M770.727,921.173c-3.614,1.329-3.755-3.493-.031-2.134.46.354,1.244.944,1.156,1.467-.097.573-.729.77-1.124.667h0Z"/>
      <path class="st9" d="M757.89,944.963c4.25,3.38-4.355,5.073-2.003.06l2.003-.06Z"/>
      <path class="st8" d="M706.468,941.786c-9.981,5.878-8.291,5.932-18.653,3.97,1.78-1.465,3.879-.017,4.829-2.115-2.433-1.668-5.046-1.691-7.78-2.473-1.195-.342-2.337-3.08-1.064-2.924,3.606.441,7.092.092,10.084.81,4.113.986,7.546,2.378,12.583,2.733h.001Z"/>
      <path class="st8" d="M702.45,953.493c.837,1.832-2.163,4.875-4.026,4.88-2.827.008-5.184-.46-7.179-2.844-1.589-1.9-7.13-1.116-7.994-3.112-.383-.885-.555-1.681.28-1.853-1.09.224,10.673-.118,10.915,3.199,2.347-.505,5.358-1.781,8.004-.27h0Z"/>
      <path class="st8" d="M755.212,978.23c-1.67,3.981-4.459,5.042-7.125,5.482-3.971.656-7.03-1.272-10.028-3.201,6.446-3.654,9.278-1.371,17.153-2.282h0Z"/>
      <path class="st8" d="M637.907,974.922c-2.689.494-6.299,2.574-8.464,1.464-3.184-2.595-6.119-2.911-11.364-2.604,1.416-3.858,4.996-1.24,7.414-1.363,4.508-.229,8.57-.663,12.413,2.503h0Z"/>
      <path class="st8" d="M637.134,985.34c-5.514,1.992-13.279,7.046-17.005.985l17.005-.985Z"/>
      <path class="st8" d="M744.966,992.144c-1.953.205-1.985-.635-.076-1.315,2.724.368,4.574-1.019,7.169.186-1.909,2.011-5.42,3.815-7.093,1.129Z"/>
      <circle class="st4" cx="587.288" cy="1050.599" r=".556"/>
      <path class="st11" d="M1018.956,797.065c3.762,3.064-.43,8.412-5.191,8.475-.95,1.593-2.204,2.603-3.761,3.032-5.334-.981-10.043,1.176-14.129,6.472,1.136,3.953-6.738,6.121-8.329,2.716l.164-67.8c1.374-2.87,4.617-3.902,9.73-3.095l79.375.613c2.19-2.627,4.544-5.168,7.06-7.625-.832-1.213-.75-2.48.247-3.803-7.387,1.117-14.724,1.964-22.012,2.54-2.556,2.28-4.928,1.671-7.116-1.827l-2.663.742c-8.46-3.115-15.61-1.739-22.459,4.114-2.42-.355-3.648-1.845-3.512-4.259-4.74-1.664-9.995-2.234-15.763-1.711-5.238,3.91-8.809,4.071-10.712.483,0,0-6.137.177-18.411.531l.44,3.573c-3.476,11.81-4.77,24.037-3.884,36.68-2.144,13.534-2.4,26.847-.767,39.939l-3.779,14.048c3.985-2.575,7.739-5.766,11.263-9.571l3.249-.4,1-1.598c25.478-7.375,59.127-8.282,78.207,13.455,4.441,5.059,11.062,13.561,9.533,20.146-.31.724-2.183.854-3.465.921-.656,6.441-8.632,8.533-10.482,1.836-1.771,1.372-3.17,3.093-4.197,5.164-4.076.641-5.064,3.789-2.964,9.444l-1.737,2.819c3.637,3.76.973,12.426-.662,17.323-9.523,28.534-33.019,29.522-56.444,17.024-3.082,3.245-5.967,3.401-8.654.465-3.524-4.734-6.418-9.861-8.683-15.381-2.333,4.077-4.218,35.586-3.269,37.208,4.66-4.623,9.605-8.917,14.835-12.882,38.158,17.195,88.078,4.859,87.065-44.348l1.862-2.557c1.148-5.693,7.596-7.23,12.867-7.973.325-6.512.003-12.812-.964-18.901l-2.315-1.03-4.904-11.71,1.324-2.255c.244-1.712-.451-2.588-1.974-3.236-2.738.038-5.298-1.638-7.682-5.027-2.753-1.591-4.211-3.51-4.373-5.758-3.119-1.519-.511-5.229,1.078-7.232.514-.648,1.215-1.112,1.909-1.555,14.622,8.149,25.711,21.27,27.966,37.785.31,1.37-.634,2.282-2.832,2.738.708,1.868,1.679,2.425,2.912,1.671l1.898,1.61c7.563,39.269-2.903,77.373-42.797,93.154-30.609,12.108-61.448,6.054-92.233-2.126l.596-60.849,27.794,4.428c-.588,11.885,7.329,18.936,18.065,20.079,12.103,1.289,23.202-3.608,28.474-15.176,5.549-12.177,4.419-26.785-3.27-37.932-7.619-9.163-18.635-13.348-30.625-13.473-16.125-.177-31.209,3.571-47.101,8.302l4.76-121.686,126.966.839-1.265,47.212-78.993-5.89-1.203,30.946c2.02-.082,3.619.451,4.938.138h0Z"/>
      <path class="st11" d="M1074.906,805.296c.736,5.869-3.312,3.969-2.987,8.787l-2.951.637c-11.867-7.15-26.26-12.411-40.042-9.114l-31.06,10.878-1.992-1.44c1.06-4.149,5.007-8.717,9.757-8.836,1.718-.043,3.098,1.295,4.531.59.83-.408,1.32-2.242,2.583-2.956,1.865-1.055,4.529-.226,5.051-2.26l1.16-4.517c19.478-4.628,39.442-.969,55.95,8.231h0Z"/>
      <path class="st11" d="M1102.872,843.081c.289,2.114,2.905,3.924,1.979,6.018-1.603.075-3.699,1.767-4.77.364-.976-1.279-2.818-3.536-1.687-4.919,1.165-1.426,3.259-1.148,4.478-1.463Z"/>
      <path class="st11" d="M1079.94,869.974c.596,7.068-.61,14.358-2.607,21.51-10.41,37.285-56.733,41.352-86.164,27.156l-17.18,15.914,1.396-35.445c.128-3.243,1.59-5.35,2.113-7.87.408-1.966-3.567-4.965-.788-7.115,5.178,5.909,10.116,23.64,15.773,24.108,1.101.091,2.05-2.787,3.435-3.309,7.487,3.108,15.389,7.883,23.828,8.04,7.91.147,16.09-.731,21.653-6.454,8.687-8.938,12.578-21.369,12.492-33.386.164-1.304.476-2.429.938-3.376l6.952-3.608c2.849-3.497,6.267-5.877,10.252-7.141.093-7.288,4.388-8.908,7.525-.883,1.362,3.483,3.267,9.263.383,11.861v-.002Z"/>
      <path class="st11" d="M1083.874,739.853c-1.959,2.949-3.179,6.379-6.329,9.371l-87.833-.459-.169,69.925c2.683-.072,4.72-2.042,6.332-3.646l20.237-6.81c13.641-4.59,13.433-7.226,30.253-4.721,9.631,1.434,17.681,6.154,25.555,10.57,4.764,2.672,8.238,6.815,12.055,10.785,2.122-.945,2.882,1.549,1.974,3.236,1.556,4.859,4.876,9.994,5.895,14.995-1.557,2.664-4.153,4.721-7.787,6.17-3.079,5.041-5.52,6.264-7.321,3.667-14.907-39.694-53.046-40.332-88.74-32.003-2.119,2.477-7.469-2.863-8.813-5.115-1.869-3.13-1.921-6.05,1.96-7.161-.14-1.393-.017-2.85.369-4.374-1.75-3.46-1.637-6.474.34-9.043-2.364-4.568-2.079-6.992,1.498-10.922-1.885-3.715-1.675-7.705.633-11.971-4.251-2.812-3.714-6.048-.17-9.179-4.08-11.145-.296-21.938,13.39-20.242l59.881.85c9.107.996,17.218-.491,24.333-4.459l2.459.534-.002.002Z"/>
      <path class="st11" d="M1083.874,739.853c-5.058,4.603-10.564,5.607-17.849,5.749l-8.943.175-44.093-.76c-3.815-.066-21.983-.453-23.877.575-6.124,3.321-5.583,11.873-3.068,17.556-.311,1.827-4.22,3.602-2.947,5.755.708,1.197,2.758,1.48,2.856,2.778.424,5.597-4.813,4.349-.117,13.105-2.537,1.918-4.969,5.85-2.738,9.044.371.531,2.4.078,2.533.829.241,1.363.136,2.365-1.617,2.717-5.416,1.086,2.269,5.794-1.662,10.104,1.205.502,1.85.412,2.29.665.529.304.376,1.043.22,1.405-.549,1.276-3.814.671-4.512,1.536-2.457,3.046,5.756,8.442,7.646,9.85-4.906,4.86-9.905,9.818-16.432,14.303-1.159-6.591,2.783-12.021,3.733-18.278-3.57-12.271.965-31.262.82-44.179-.106-9.418-.372-19.137,2.463-28.113,1.129-3.574,2.871-6.155-.978-10.418,7.939.149,15.182-1.217,22.978.07,1.079.178,1.872,3.652,3.583,2.624,8.625-5.182,3.27-2.698,19.772-3.208.692-.021,1.349,2.555,2.107,1.777.445-.458.828-1.246,2.331-1.497,1.423,2.105-1.724,3.974,1.319,5.988,6.39-7.179,15.025-7.176,22.797-4.433.971.342,3.425-2.514,4.323-1.024.451.749.818,3.012,2.401,4.058,1.847-3.444,5.708-1.483,7.91-1.909,6.821-1.318,13.141-3.466,20.749-2.326-.381,2.571-2.818,3.711-3.997,5.486v-.004Z"/>
      <path class="st11" d="M1091.843,843.099c1.891,1.101,2.943,2.961,2.947,5.978l.02,14.91c-12.668,1.38-7.179,1.801-14.869,5.985-.471-5.586-1.884-11.382-4.512-16.627-2.933,2.786-.834,4.843-1.452,7.793-5.342-.314-7.272,3.267-10.267,6.004-2.612,2.387-7.262,3.042-9.819,5.977-.028-3.922-2.146-8.315-.699-12.75,1.141-.425,3.013-.083,3.976-.803,1.448-3.027,3.404-5.337,6.772-6.752l1.592,4.711c1.463.489,3.938.039,5.135-1.158,1.113-1.113.985-3.149,2.2-5.185,1.552.601,2.537,1.864,3.868,1.752,5.41-.455,1.393-3.771,9.95-7.409,1.813-.771,2.946-3.213,5.158-2.428v.002Z"/>
      <path class="st11" d="M1085.948,828.105c-1.18-.489-1.511-2.284-1.974-3.236-.146-1.343,1.628-.736,2.444-.85,1.177-.163,1.496,1.491,1.365,2.47-.094.707-1.028,1.25-1.836,1.616h.001Z"/>
      <path class="st11" d="M1246.888,756.958c-1.419,2.739-.63,7.229,3.136,6.21,4.594,10.129,7.182,19.994,8.721,31.119,4.509,32.591,4.799,65.058-1.244,97.473-2.313,12.41-6.795,23.758-14.371,33.638-20.371,26.564-60.312,29.269-90.148,18.656-32.267-11.478-39.335-42.197-42.702-72.235-3.57-31.85-6.846-76.945,4.436-107.05,7.444-19.863,23.202-34.404,43.861-39.978,31.864-8.597,73.781,1.147,88.31,32.168h0Z"/>
      <path class="st8" d="M1201.029,884.911c-.672,12.395-3.917,29.01-18.547,28.79-14.405-.217-17.161-20.884-17.895-32.647-1.875-30.049-1.853-59.676-.736-89.836.487-13.169,2.345-32.487,17.536-33.13,15.435-.652,17.835,15.784,18.684,28.188,2.262,33.012,2.75,65.577.959,98.635h0Z"/>
      <path class="st11" d="M1246.888,756.958c2.214,1.742,2.696,4.082,3.136,6.21l-1.96,3.421c-2.527.311-4.412-8.128-4.114-8.908.361-.944,1.966-.875,2.937-.724h0Z"/>
      <path class="st11" d="M1183.861,732.9l6.06-.047c.573-.137,1.326.346,1.871.136,1.961,1.925,4.299,2.561,7.016,1.908,6.56.885,13.159,2.869,19.034,6.05,2.953,2.854.474,4.589-3.004,3.188-1.679,2.821-.637,5.433,3.126,7.836,1.805,2.411,4.372,6.074.747,7.186-8.924-10.178-20.644-16.125-34.831-16.113-10.344.009-21.35.671-29.302,7.758-11.086,9.881-14.984,23.954-16.408,38.521-2.722,27.846-2.038,55.3-.218,82.726-.916,1.641-1.714,1.727-3.197,1.105-4.403,7.343-10.762,5.599-8.191-3.078-1.996-1.564-2.808-4.185-2.435-7.865-4.1-2.292-7.019-5.222-8.756-8.788,3.633-5,2.514-10.563-2.414-13.965l-.857-2.255-.01-4.257c1.631-2.507,2.343-5.761,2.135-9.761l4.799-4.15c-2.976-.787-6.876-2.859-4.281-5.798.104-.29-.111-.802.063-1.042,2.439-2.136,2.676-5.214.711-9.233l.208-3.85c1.169-2.492,1.206-4.518.11-6.077.166-.668-.013-1.462.234-2.102.778-.787,1.268-1.547.848-2.761,1.232-2.28,1.543-4.467,2.008-6.919-1.073-1.1-1.094-2.683-.061-4.75,1.298-2.41,1.688-4.858,1.169-7.342.166-.616-.154-1.411.068-2.005,3.355-2.55,5.575-6.501,6.37-10.635,3.197-3.322,6.349-6.493,9.454-9.515.284-.35.661-.637.916-1.01,1.779-1.758,3.636-2.517,5.571-2.275,1.084-3.55,4.074-5.228,8.971-5.034,3.883-3.127,7.782-3.982,11.697-2.565,2.076-2.189,5.068-3.802,8.977-4.84,3.951.279,8.342-.772,11.803,1.619h0Z"/>
      <path class="st11" d="M1231.943,806.265c-.543,1.448-1.182,3.127-1.918,5.036-2.628,2.412-4.185,5.105-4.673,8.079,6.372-.121,4.929,4.799.616,7.562,4.789,1.726,6.65,4.859,5.584,9.399.473,2.133,1.267,4.075,2.383,5.827l.01,1.827c-1.006,3.163-2.281,6.076-3.827,8.739,2.044,3.554,2.671,11.465-.733,14.307,2.668,2.827,2.916,9.68-1.91,8.384-1.331,4.331-4.876,5.558-9.075,4.615-.723,4.094-9.307,8.395-11.193,3.908l.463-14.951-.024-58.862-1.196-18.82c-.444-6.983-2.958-13.593-1.198-20.362l5.139,2.575c-.452-3.82,6.433-9.434,6.927-9.382,1.111.117,1.676,2.145,4.334,1.834-.79-2.314-2.989-4.26-2.942-6.821.073-3.969-2.524-6.51-5.919-9.388-1.729-1.466-.465-7.127,1.57-7.652,1.03-.266,2.411.87,3.025.75.826-.161.538-1.271.456-1.92,2.899,1.57,4.924,4.22,8.011,6.366,6.83,4.747,19.422,21.463,14.111,27.342-.745.825-3.208,1.69-4.223.685-.936-.927-.416-3.723-2.109-3.793-2.542-.105-4.438,1.601-7.364,2.395,4.378,7.628,5.147,29.334,5.674,32.323v-.002Z"/>
      <path class="st11" d="M1233.945,843.995c.099,17.286-1.118,34.711-5.186,51.963-2.36,10.008-7.04,19.531-15.134,25.852-18.175,14.194-50.28,8.579-63.356-9.695,5.205-5.197,16.632,10.67,30.725,10.649,11.942-.018,22.805-10.189,24.419-21.669.864-6.146,1.625-11.652,1.795-17.147,2.873.801,5.25-1.166,8.92-2.235-.051-1.401-1.466-2.617-.932-4.621,3.484,1.128,8.599,2.613,9.99-1.367.411-1.176.872-3.359,1.356-3.093l2.364,1.296c1.312.719.841-5.098-1.988-6.106.243-2.272,2.194-2.713,3.149-4.656-1.273-2.892.034-5.894-.686-8.583-.16-.599-2.174-.72-2.752-.863-.846-.208-1.784-2.18-.464-2.922.898-.506,2.372.406,3.086-.061,1.699-1.111,1.519-6.801,4.694-6.742h0Z"/>
      <path class="st11" d="M1231.943,806.265c2.067,11.746,1.923,23.926,1.992,35.903-.482-.048-2.207-.148-2.994-.458-.606-.239-.065-1.377-.179-2.516-1.679-2.157-1.523-4.649-.764-7.306-1.281-1.928-4.146-1.802-5.409-3.503-1.947-2.623,1.734-4.035,3.003-5.488.907-1.039-.552-2.114-1.254-1.734-.958.519-1.046,1.8-3.04,2.191-.493-12.224,4.113-8.118,6.383-16.485.172-.634,2.03-.421,2.262-.604h0Z"/>
      <path class="st11" d="M1114.746,813.236c1.951,4.204,4.805,4.102,8.923,3.071,3.191,3.71-10.417,4.613-7.658,10.816,1.102-.452,1.749-1.105,2.366-1.009.662.102.698,1.151.511,1.498-.401.745-1.796.353-2.703.985-1.119.78-.894,2.291-1.181,3.089-.406,1.13-1.807,1.171-2.912,1.26-.006-2.32-1.783-21.273,2.654-19.709h0Z"/>
      <path class="st11" d="M1172.058,731.281c-.138,2.153-2.815,2.768-5.005,2.554-1.805,1.193-1.544,3.94-4.226,4.751-9.41-6.981-5.063,5.564-17.553,1.526-.76,2.457-.154,4.265-1.061,6.278-2.971-1.227-5.206-1.175-7.37-.395,5.333-7.829,16.128-10.295,25.591-12.522,3.552-.836,6.308-2.426,9.624-2.192Z"/>
      <path class="st11" d="M1114.809,812.194c1.761-2.428-.53-4.517-.941-7.091-.682-4.276,1.078-8.479,1.97-12.069,8.068-.054-1.87,2.354,2.423,12.731.493,1.192.875,3.614.465,4.592-.497,1.186-2.922,1.294-3.917,1.837h0Z"/>
      <path class="st11" d="M1118.927,781.252c-4.562.812-.11-11.042,1.108-12.092.894.816,2.199,1.4,2.945,2.843-1.353,3.201-3.465,6.15-4.053,9.249h0Z"/>
      <path class="st11" d="M1135.927,747.005c1.027,2.277-1.901,2.777-2.831,4.326-1.54,2.564-2.311,5.265-6.01,5.446,2.053,2.947-4.409,12.075-6.983,10.378,1.378-3.685,10.789-21.893,15.824-20.15h0Z"/>
      <path class="st11" d="M1198.809,734.897c-.929,1.422-2.636,2.527-4.279,2.126-1.877-.458-2.775-2.295-2.737-4.034,2.615-1.007,4.761,1.604,7.016,1.908h0Z"/>
      <path class="st11" d="M1189.922,732.853c-1.393,2.55-4.29,1.27-6.06.047,1.488-1.601,4.312-1.085,6.06-.047Z"/>
      <path class="st6" d="M1116.071,790.932c.337-.874.401-1.935.848-2.761l1.615.707c.946.414-1.277,2.171-2.463,2.054Z"/>
      <path class="st11" d="M1212.115,762.293c.417-.516,1.507-.12,2.217-.195.403-.043.883.793.546,1.482-.421.861-1.141.426-1.531.54-.897.262-2.226-.596-1.232-1.827h0Z"/>
      <path class="st11" d="M1137.953,872.05c.079,1.191.327,3.031.724,4.139-1.664,2.231-1.606,4.11.173,5.638,2.779,9.249,3.212,18.95,8.806,27.43-1.847.426-3.037-.275-3.498.693-.5,1.049-.217,3.273-1.64,3.913-2.162.972-4.537-1.695-6.557-.349-1.15.766-2.308,2.193-4.163,3.823l-2.66-5.24c-5.881-3.308-7.826-8.761-8.946-14.882-.805-4.395-2.721-8.623-3.276-13.373-1.839-15.76-4.776-31.199-4.814-46.641,3.507.988,5.666,3.495,6.722,6.579,1.296,3.785,1.268,6.776-1.781,9.686,6.222,8.152,10.452,4.046,9.093,13.508-.11.767,2.044,1.491,2.312,2.144.686,1.673-1.69,4.968.085,6.721,1.4,1.382,4.46-4.146,5.114-4.445,1.45-.664,2.975.364,4.305.654v.002Z"/>
      <path class="st11" d="M1138.678,876.189c.642,1.788-.318,4.004.173,5.638-1.846.501-3.044-.269-3.117-2.265-.06-1.648,1.099-3.349,2.943-3.373h0Z"/>
      <path class="st11" d="M1131.734,883.688c1.034-1.195,1.887-.663,2.157-.087.265.564.035,1.2-.51,1.491-.588.313-1.528.2-1.647-1.404h0Z"/>
      <path class="st11" d="M817.601,904.863c8.565-1.284-.92,13.402-4.573,15.817-4.325,1.058-4.607,2.438-3.683,6.608,1.227-3.395,4.202-9.906,7.49-5.531l.682-2.004c38.569-.05,77.015-.351,115.339-.903l15.125-33.541c-5.744,6.65-12.014,12.521-18.81,17.614-4.266,1.892-12.378,4.741-15.107.156l-2.381-1.054c-12.736.934-25.513,1.268-38.331,1.004l-5.745,1.376c2.342,1.161,2.559,2.671.186,3.827-.741.706-1.504,1.379-2.342,1.94-3.264,2.183-24.677,7.943-29.537,8.522-3.536.421-4.337.216-4.589-3.161,23.17-21.314,45.381-44.134,66.632-68.463,17.292-18.968,29.962-46.013,29.003-71.85l1.783-3.281c-5.217-6.972.969-9.367,7.827-6.658-1.807-14.112-13.955-28.586-27.828-32.553l-1.61-2.39-1.018,1.166c-28.779-5.255-61.293,9.381-80.232,31.13,2.729,3.598,3.398,6.783,2.006,9.557,1.405,2.062.32,2.761-3.257,2.098-4.193,4.646-1.921,11.794-.052,17.092l-.413,2.762,8.684-4.012c-.869-4.133-.188-6.781,2.044-7.946-1.232-3.161,2.612-9.24,4.72-12.166,14.976-20.782,47.473-33.338,69.776-17.265,3.508,2.528,10.257,7.934,8.294,12.224.369,2.527-1.434,3.171-3.664,3.747-9.602-2.157-12.178,11.143-10.787,18.428.108,6.175-1.228,11.525-4.008,16.049,2.676.344,2.396,1.149-.152,1.921-2.378,8.484-8.756,21.937-14.432,28.7-1.865,2.223-6.909,2.31-7.626-.86,9.084-15.1,21.543-33.561,17.988-51.832-1.405-7.219-6.921-11.017-14.038-11.403-20.514-1.111-26.034,17.151-29.45,33.976l-34.933-.38-4.728-48.98c26.714-22.358,56.776-36.055,91.936-33.348,23.624,1.818,41.991,16.273,49.874,38.533,6.415,18.112,4.564,37.631-2.584,55.733-12.828,32.488-42.013,55.996-67.891,79.391l37.623-.84c11.796-.264,14.445-11.483,17.26-20.677l22.894.534-2.315,71.661-153.583.464.205-30.124c3.776-4.479,8.599-7.586,12.327-10.811v.003Z"/>
      <path class="st11" d="M816.835,921.758c-5.235-.331-4.488,7.853-8.225,9.482-1.712-3.659-2.115-7.654-.947-11.221,9.804-.328,12.133-12.482,11.795-12.932-.632-.843-1.243-1.553-1.857-2.223,20.426-23.458,41.812-45.957,59.415-71.898,1.641-.31,4.949,1.221,6.615-.178,4.789-6.89,8.006-14.397,11.991-21.784,1.186-2.198.843-5.253,3.452-5.878,2.654-.703,3.015,1.099,2.948,3.533-.072,2.583-11.869,24.106-14.263,27.129l-3.168,2.438c-12.175,18.08-25.49,35.412-39.945,51.996-8.925,8.269-17.166,17.072-24.721,26.409-.428,2.631-1.458,4.34-3.09,5.128h0Z"/>
      <path class="st11" d="M907.132,730.341c3.539.938,1.783,4.805-1.515,5.186,3.676,1.838,13.237,7.553,13.771,12.001.197,1.637.126,2.373-.645,3.914,3.878.274,5.803,1.808,5.774,4.602,5.23.274,5.362,3.666,1.293,6.534l-.492,1.902c1.026,2.503,2.168,4.99,3.426,7.462,2.513,28.171-11.541,56.532-30.337,77.647-19.086,21.44-38.687,41.674-59.052,61.894-2.304,2.287-5.799,2.695-6.721,6.115,12.172-3.701,23.633-6.578,35.16-9.365l.935-2.265c14.8-2.31,29.648-3.665,44.545-4.064l.791,1.177c20.879,3.079,23.259-15.343,38.73-23.578l-18.727,41.53-41.004.332-76.227.393c-.303-5.593,3.619-10.07,7.607-14.071l17.458-17.519c3.51-3.523,6.73-7.243,9.792-11.101l16.047-20.22,6.758-9.918c3.548-5.206,6.085-11.076,11.842-14.495l10.858-19.397c1.803-3.221,4.236-6.406,1.876-9.912l.152-1.921,1.919-2.89c.884-5.44,2.443-9.578,9.026-8.688.923-4.737,2.606-9.343,6.819-3.79.733,1.649,6.148-4.144,6.256-4.559.749-2.888-4.613-13.343-6.614-16.096l1.053-2.201c-5.464-10.004-16.667-16.801-28.696-17.166-17.653-.535-33.669,6.045-44.95,19.446-3.882,4.611-5.841,10.237-9.144,14.927-3.2,2.834-8.852-7.496-7.008-9.995-1.793-2.069-1.167-6.671-4.896-9.347,6.354-6.934,12.093-14.406,20.552-17.993,3.661-1.553,6.053-3.679,9.252-5.616,10.724-6.496,23.36-8.588,35.401-10.88,7.045-1.341,12.864.897,18.935,1.982v.003Z"/>
      <path class="st11" d="M917.685,764.981c2.641,4.835,6.194,9.06,6.767,15.44.11,1.226,2.321,2.608.939,3.707l-3.049,2.424c-1.806,1.435-1.815,3.74-3.96,3.687-2.4-.059-3.472-1.268-4.471-3.771-1.656,2.288-.648,5.653-3.207,7.441-10.318-2.461-4.38,8.994-11.478,9.295.6-7.571,2.956-14.973,1.701-23.09-.497-3.212,5.302-16.874,13.002-13.286,1.463-.566,2.488-1.582,3.757-1.847h-.001Z"/>
      <path class="st11" d="M928.743,771.942c-1.27-1.267-3.575-2.259-4.478-4.028-1.827-3.578-1.087-7.22,3.097-8.877-1.555-1.893-3.558-.246-4.9-1.607-.591-.6.428-2.292.003-2.805-1.091-1.316-3.435.042-6.221-2.52-1.039-.955.944-2.016,1.625-3.238-5.518-11.481-16.302-9.402-14.778-15.499.165-.661,2.694.549,3.264.196.869-.539.661-2.22.776-3.224,10.292,1.839,18.453,8.718,24.591,17.916,3.836,5.75,7.732,11.96,6.669,19.391-3.656-.062-6.078-2.182-9.395-1.45-.301,2.013-.404,4.06-.254,5.744h.001Z"/>
      <path class="st11" d="M827.888,772.194c2.807,3.239,3.444,7.662,7.008,9.995-.018,2.807-.408,5.463.09,9.141l-12.721,6.094c-1.071-2.405.556-4.418.345-6.133-2.385-4.395-4.431-16.65,2.058-19.266.852-.343,2.935,1.6,3.22.169h0Z"/>
      <path class="st11" d="M914.063,903.081c-1.988-.293-4.043,1.672-6.055,1.488-9.978-.909-30.999,1.436-40.215,3.664.404-1.151-.21-1.989-1.404-2.125-.558-.063-1.957.107-2.902-1.482,5.385-5.53,22.256-3.803,29.817-3.199,8.848.707,22.37-3.832,20.759,1.654Z"/>
      <path class="st11" d="M1071.596,981.339c-11.484-2.763-11.243,11.693-16.02,5.505-1.022-1.324.645-2.591,1.222-4.185,3.191-8.814-10.577-10.654-10.953-13.311,5.941-.002,10.622,2.882,16.199,4.015,1.14.232,2.829-1.541,4.063-1.444,1.841.145.93,3.107,2.123,3.709l14.352,7.248c-3.635.458-7.293-.647-10.985-1.536h-.001Z"/>
      <line class="st0" x1="1226.423" y1="1121.075" x2="1251.226" y2="1122.314"/>
      <ellipse class="st3" cx="1029.848" cy="781.292" rx="806.25" ry="537.5"/>
      <ellipse class="st3" cx="1031.323" cy="781.969" rx="806.25" ry="537.5"/>
    </g>
  </g>
  <ellipse class="st2" cx="1030.328" cy="781.672" rx="775.522" ry="507.045"/>
  <metadata>
    <sfw xmlns="http://ns.adobe.com/SaveForWeb/1.0/">
      <slices/>
      <sliceSourceBounds x="0" y="0" width="2048" height="1365" bottomLeftOrigin="true"/>
    </sfw>
  </metadata>
</svg>