<?xml version="1.0" encoding="UTF-8"?>
<svg id="Layer_1" xmlns="http://www.w3.org/2000/svg" width="2048" height="1536" version="1.1" xmlns:xlink="http://www.w3.org/1999/xlink" viewBox="0 0 2048 1536">
  <!-- Generator: Adobe Illustrator 30.1.0, SVG Export Plug-In . SVG Version: 2.1.1 Build 136)  -->
  <defs>
    <style>
      .st0 {
        fill: #eee3ca;
      }

      .st1, .st2 {
        fill: none;
      }

      .st2 {
        stroke: #8c3e3c;
        stroke-miterlimit: 10;
        stroke-width: 40px;
      }

      .st3 {
        fill: #29406f;
      }

      .st4 {
        clip-path: url(#clippath);
      }

      .st5 {
        fill: #8c3e3c;
      }
    </style>
    <clipPath id="clippath">
      <ellipse class="st1" cx="1019.024" cy="768" rx="806.25" ry="537.5"/>
    </clipPath>
  </defs>
  <g class="st4">
    <ellipse class="st1" cx="1019.024" cy="768" rx="806.25" ry="537.5"/>
    <rect class="st3" x="-20.823" width="2079.694" height="1536"/>
    <rect class="st3" x="330.174" y="354.995" width="1367.728" height="911.818"/>
    <path class="st0" d="M943.845,1056.468c9.419-6.866,22.884,26.612,60.23,20.39,14.315-2.385,26.039-31.048,11.234-47.068-6.661-7.207-17.472-9.431-27.195-8.708l-51.905,3.855c-10.085.749-4.071-19.713-6.642-25.889-10.493,16.769-23.872,30.282-37.331,44.966-8.852,9.658-18.739,16.842-26.281,28.534,13.749,1.031,25.691,1,37.952-.92,12.782-2.002,15.736-17.39,26.918-14.044,7.161,2.143-4.444,56.914-6.242,68.839-.877,5.815-2.798,12.444-10.016,12.476l-158.29.706-.666-38.101c-.034-1.921-3.171-5.905-1.713-7.541l47.905-53.774c14.859-16.679,28.634-33.163,40.127-52.226,5.738-9.517,13.383-31.278,6.133-38.141-3.235-3.062-7.371-3.923-11.893-2.245-20.907,7.756-11.223,30.306-32.858,30.556-9.973.115-20.097-.169-29.963-.89-5.755-.42-8.061-5.143-7.957-10.409.419-21.319-.615-41.511-1.444-62.609,25.763-22.585,57.242-33.099,91.358-32.772,28.752.276,61.142,6.143,80.019,31.852l1.25-28.847,95.484-.516c23.341-.126,45.944-.071,69.644.035,4.483,2.754-.132,10.886-.716,14.819-2.761,18.613-5.981,35.976-7.35,54.684-6.568,1.849-12.05-.682-18.229-.814l-57.972-1.231c-1.395,5.913-1.434,10.326-.175,15.895,33.808-.847,64.675,2.57,84.877,35.435,4.125-36.781-1.08-85.434,35.071-106.016,31.981-18.208,69.447-19.801,103.98-5.396,23.13,9.648,37.713,31.143,42.119,55.748,6.8,37.976,7.373,75.519,5.033,114.176-1.102,18.206-5.515,34.611-13.276,50.84-22.272,46.57-88.205,52.764-128.53,31.541-18.34-9.652-29.969-27.053-36.77-46.62-26.992,70.442-113.957,66.167-169.793,43.802l1.893-66.203c.09-3.157-.457-6.394,1.981-8.171v.002Z"/>
    <path class="st0" d="M653.765,477.818c1.154,18.535-4.032,39.154,4.602,53.496l6.55,10.88c-11.006,2.176-21.651,4.6-32.828,2.331,4.266-6.145,7.515-10.102,6.817-16.436l-9.065-82.351c-.437-3.974-5.977-5.101-5.785-10.382l34.801-3.089,21.55,40.109c5.316-15.657,9.264-29.565,15.6-43.837,12.141-1.347,23.194-2.522,35.364-1.255-1.306,5.206-5.327,6.492-7.252,10.645l7.199,89.081c2.136,2.912,5.347,3.336,7.257,8.252-12.832,4.267-26.324,3.958-39.932,3.295l4.324-12.25-3.809-52.43-18.869,48.447-26.525-44.506h.001Z"/>
    <path class="st0" d="M856.743,494.253l.694,22.308c.162,5.215,3.383,7.196,7.062,12.88-13.798,2.415-25.879,2.496-41.105,1.15,6.568-6.819,7.095-12.05,6.728-19.768l-3.574-75.102c-.315-6.616-3.712-8.411-8.914-14.219,19.714-2.035,38.065-3.725,56.171-2.338,18.347,1.405,28.454,14.683,27.911,31.944-.422,13.398-3.425,25.475-16.035,33.034,7.496,15.667,14.752,29.33,24.329,44.007-12.038,1.955-22.076,1.259-33.264.879-2.624-4.111-15.371-37.349-15.072-37.185-1.703-.934-5.039-1.009-4.933,2.409h.002Z"/>
    <path class="st0" d="M1452.599,559.091c-19.252-1.845-33.552-12.244-35.325-31.58-1.981-21.602.022-45.023,9.582-64.397,7.457-15.112,21.74-19.906,37.005-18.906,18.796,1.231,33.677,12.622,35.705,32.239,2.25,21.76-.756,44.42-9.91,63.964-7.073,15.101-20.29,20.287-37.058,18.68h0Z"/>
    <path class="st0" d="M584.065,527.112c-4.813-2.686-15.476.859-20.541,1.614-5.879,6.736-3.796,18.041,4.18,24.235-11.97,3.313-22.54,4.889-33.68,3.121-.151-4.496,5.155-6.734,5.696-11.023l10.624-84.211c.8-6.344-3.103-9.482-7.97-14.359,17.016-6.42,33.632-6.735,51.92-9.108-3.103,7.844-2.644,12.702-.466,19.399l22.179,68.19c2.552,7.847,6.076,13.437,12.301,21.072-14.27,4.252-26.739,4.918-40.996,5.479,2.584-7.973,4.923-19.852-3.247-24.41h0Z"/>
    <path class="st0" d="M1096.423,503.992c-6.199,1.44-15.283-2.294-22.124,1.002-6.439,3.102-5.513,17.258,1.164,22.449-12.331,2.241-22.808,2.619-34.384-.681,3.012-4.677,7.281-5.747,8.385-10.479l20.088-86.142c-.712-3.528-5.362-5.57-4.712-10.058,17.392-1.955,33.311-.532,51.003-.331-4.572,5.959-5.393,9.713-4.177,15.657l16.111,78.768c1.089,5.324,2.623,9.036,7.723,13.914-5.009,3.713-38.884,2.223-39.537.554-2.003-5.116,6.499-11.831.461-24.653h0Z"/>
    <path class="st0" d="M1369.623,547.235c-16.121,1.524-32.332-3.1-44.451-11.883-3.091-5.813-.353-13.892-.38-20.501,8.279.822,15.455.891,22.886,3.307-.063,5.01.326,9.73,3.096,11.79,3.065,2.279,8.016,2.994,12.31,1.625,8.469-2.7,11.041-12.321,11.191-20.617.196-10.82-6.032-18.707-16.868-19.9-8.346-.919-16.023.884-25.23.983,1.236-20.196,4.742-38.334,8.498-58.709l67.567,5.661-6.456,27.895c-13.223-11.106-22.65-9.643-40.333-11.523-2.403,6.56-3.11,13.093-1.949,20.191,12.468-1.055,24.555.802,34.147,8.603,8.979,7.303,10.586,18.762,9.224,29.84-2.131,17.333-13.972,31.416-33.252,33.238Z"/>
    <path class="st0" d="M1306.161,539.424c-23.458-2.678-48.139-4.48-71.655-5.662-3.926-4.895-.713-13.188,3.577-17.462l41.365-41.217c8.796-8.765,15.142-30.145,2.65-34.146-3.257-1.043-8.173-1.187-10.682,3.161-2.484,4.304-2.174,9.227-3.283,14.569-8.435,1.214-16.616.24-24.768.142-4.003-15.963,6.212-29.464,22.2-31.887,15.367-2.329,33.27-2.023,45.038,9.643,11.007,10.913,7.462,29.281-2.155,40.723-12.519,14.894-27.438,25.706-41.975,39.031,39.97,5.99,33.799-7.348,41.808-6.405,4.566.537-.676,20.351-2.118,29.511h-.002Z"/>
    <path class="st0" d="M778.126,488.137c-3.013,8.443.569,18.736.015,27.383,29.947,1.802,19.4-7.94,35.765-8.388l.401,25.05c-23.34,1.243-45.435,4.123-68.607,2.678,4.895-6.074,5.936-10.191,5.566-16.369l-4.605-76.951c-.386-6.445-3.071-10.117-7.638-15.866l67.117-4.341c3.352,8.264,2.113,17.303,1.468,26.19-14.108-.358-9.277-13.384-33.607-6.727-.454,9.995.274,18.188,1.33,27.48,7.745,2.025,14.215-1.271,22.95-4.111,1.813,8.111,2.345,16.659-.201,24.577-5.268-1.585-15.815-6.025-19.956-.606h.002Z"/>
    <path class="st0" d="M1006.465,514.169c12.849,5.082,18.449-9.952,26.568-10.598,1.612,4.625,4.55,13.907.929,18.847-18.21,13.275-56.665,13.162-65.614-15.259-6.824-21.671-6.225-45.218.845-66.652,10.071-30.532,41.226-26.729,66.79-19.842,2.28,8.366,1.189,16.523.449,24.945-7.758,3.007-17.48-17.251-30.847-11.24-15.388,6.919-12.473,52.683-9.417,67.511,1.268,6.15,5.302,10.312,10.297,12.288h0Z"/>
    <path class="st0" d="M954.061,527.513c-11.521,1.952-22.987,1.295-35.585.954-1.185-4.771,3.548-6.413,3.482-10.18l-1.566-89.707c-2.001-3.469-4.947-5.15-5.853-10.571,13.408-1.298,25.949-1.664,38.964-.376.393,4.483-5.267,6.579-5.527,10.804l1.616,86.292c.08,4.256,1.622,5.342,4.468,12.785h0Z"/>
    <path class="st5" d="M730.252,1112.185c-13.334-4.142-47.64,49.398-108.958,1.901,35.894-21.779,73.773-29.969,111.315-7.464,1.049.629,2.161,2.721,2.292,3.505.175,1.047-3.146,2.525-4.649,2.058Z"/>
    <path class="st5" d="M1301.038,1109.935c28.11-25.557,84.495-18.499,112.301,4.802-16.236,14.097-37.526,20.357-58.97,18.85-33.459-2.352-49.839-8.333-53.331-23.651"/>
    <path class="st0" d="M1389.263,955.85l-28.311,18.265c.468-15.74,7.55-19.067,8.019-32.161l-24.761-19.927,31.963-1.063,11.98-33.583,11.706,32.427,31.788,2.104-24.499,20.102,7.9,31.897c-8.698-5.086-16.369-10.711-25.787-18.061h.002Z"/>
    <path class="st0" d="M972.505,771.339l-348.633,4.136c72.347-8.951,145.258-11.67,219.1-12.371l132.791-1.261c.045,3.544-.326,5.684-3.257,9.495h-.001Z"/>
    <path class="st5" d="M1464.559,1058.802c-28.961,38.711-60.728,38.678-103.745,24.593,14.692-9.213,27.018-20.112,42.34-28.556,13.689-7.544,45.347-2.598,61.405,3.963Z"/>
    <path class="st5" d="M673.347,1082.653l-24.94,6.158c-35.2,8.692-57.096-.456-80.608-30.515,16.979-4.482,33.338-9.721,50.609-6.453,21.645,4.096,34.038,23.785,54.938,30.809h.001Z"/>
    <path class="st0" d="M1377.028,777.641l-136.951-4.191-184.826-2.282c-1.75-3.015-2.39-5.386-1.617-9.331,97.707.069,194.177,3.03,291.608,10.685,10.976,4.109,21.473-2.575,31.786,5.12h0Z"/>
    <path class="st5" d="M1341.388,1148.922c-19.244,18.909-61.943,13.742-80.635-5.851l14.68-13.562c5.73-5.294,8.435-11.397,17.233-9.211,18.074,4.491,35.211,14.76,48.722,28.624h0Z"/>
    <path class="st5" d="M737.728,1087.588c-4.61-1.487-9.027-1.484-13.449.14-23.124-3.112-39.753-42.536-44.157-63.313,51.76,7.566,45.272,27.865,53.931,50.025,1.66,4.249,5.325,6.796,3.675,13.148h0Z"/>
    <path class="st5" d="M690.432,1074.988c-8.356,4.572-13.736-5.897-19.565-5.447-7.353.567-8.442-.203-13.498-4.953-8.687-8.162-20.214-14.913-24.275-27.156-3.414-10.29-5.851-21.2-4.588-32.029l17.053,9.773c7.226,4.141,15.33,4.926,19.701,13.047l25.172,46.764h0Z"/>
    <path class="st5" d="M1342.529,1076.359l8.892-19.869c4.417-9.87,9.754-18.969,16.022-27.72,3.291-4.595,9.31-3.875,14.112-2.942,1.34-11.439,8.069-13.458,20.923-16.669-1.8,10.8-1.745,22.091-7.305,32.054-10.595,18.986-29.177,32.161-52.645,35.147h.001Z"/>
    <path class="st5" d="M1447.927,1023.669c-11.734,11.634-25.757,17.566-42.188,20.218,8.521-31.078,21.416-42.938,54.421-56.299,5.089,5.761-8.656,32.534-12.234,36.081h0Z"/>
    <path class="st5" d="M625.452,1040.572c-3.739,5.918-7.532.908-11.151.065-25.319-5.892-43.317-25.817-43.974-52.827,27.099,5.768,47.191,25.656,55.126,52.761h0Z"/>
    <path class="st5" d="M745.212,1157.94c-12.235,6.774-33.358,4.509-45.693-2.399-3.523-10.988,8.566-21.754,17.761-24.795,4.66-1.541,15.829-12.532,23.447-6.403,3.506,2.821-1.484,7.174-1.016,9.953,1.255,7.45,9.393,14.146,15.452,18.135l-9.951,5.51h0Z"/>
    <path class="st5" d="M774.027,1044.038c3.211,4.417-20.988,26.637-25.381,29.407-8.08,5.094-14.558-35.956-12.927-39.966.693-2.455,6.491-.549,8.59.345,3.384,1.442.29,5.945,4.314,9.304,2.142,1.788,1.519-2.244,3.046-3.287,6.441-4.4,17.583-2.372,22.359,4.198h-.001Z"/>
    <path class="st0" d="M1102.724,1174.073c8.529,4.875,8.041,29.622,1.004,34.418-4.833,3.293-12.08,3.046-17.105.797-9.359-4.187-8.78-28.838-1.272-34.516,4.617-3.492,11.52-4.046,17.374-.7h-.001Z"/>
    <path class="st0" d="M1161.677,1179.752c-10.42,9.597,7.171,4.053,11.946,10.235,2.55,3.302,2.999,8.011,1.687,12.974-2.166,8.196-11.125,9.127-18.577,7.239-11.742-2.975-9.495-27.394-3.809-33.616,5.693-6.229,18.543-4.594,19.8-2.949,1.11,1.454,1.123,3.958.07,5.396-1.727,2.359-7.559-2.556-11.116.72h-.001Z"/>
    <path class="st0" d="M960.305,1187.969c5.349-2.75,10.04-1.939,12.917.575,3.44,3.005,4.222,8.019,3.215,12.932-1.781,8.688-10.37,10.283-18.005,9.039-13.517-2.203-11.694-27.173-5.416-33.896,5.787-6.196,19.95-5.77,20.789-.947,1.334,7.667-10.223-1.244-12.876,5.121-.956,2.294-3.055,5.145-.623,7.176h-.001Z"/>
    <path class="st0" d="M831.794,1187.529c2.422,2.365,2.392,8.043.281,10.462-3.957,2.557-93.321-8.697-87.246-6.143-.788-.331-1.605-1.446-1.071-2.908.927-2.542,3.583-.071,5.62-.104l82.417-1.307h0Z"/>
    <path class="st0" d="M1290.54,1190.399l-92.301,8.015c-.679-4.998-.071-7.813.306-11.621l91.995,3.606Z"/>
    <path class="st0" d="M1139.421,1209.658c-7.033,1.168-15.054,1.385-22.441-.03-9.679-6.619,23.117-23.343,12.094-31.406-3.076-2.25-3.339,3.624-9.492,4.183-2.009.183-4.239-3.638-1.749-6.587,3.741-4.431,15.143-5.196,20.217-1.319,11.97,9.147-7.795,23.337-11.892,28.424,5.647,2.315,8.954-.559,14.475-1.927,1.332,1.172.936,8.306-1.213,8.663h0Z"/>
    <path class="st0" d="M1071.736,1210.106c-7.076.638-16.411,1.309-23.552-.548-5.822-7.108,20.317-21.443,13.079-30.499-4.024-5.035-4.293,3.212-10.306,3.129-1.647-.023-4.319-3.737-2.266-6.172,4.494-5.329,15.35-4.805,21.115-.569,8.841,6.495-3.372,19.986-11.071,26.532,4.636,3.818,9.113-.006,13.618-2.731,1.472,3.751,1.076,8.423-.617,10.858h0Z"/>
    <path class="st0" d="M890.588,1209.489c.96-10.775,7.673-17.828,10.751-27.837,1.653-5.375-11.747,1.512-14.049-1.375-1.158-1.452-1.018-6.214.344-6.876,7.804-.745,16.467-.748,25.397.168-5.216,13.45-10.881,23.988-11.093,36.559-4.653.333-7.893,1.016-11.351-.639h.001Z"/>
    <path class="st0" d="M932.641,1209.144c-.657,2.699-10.153,2.277-10.968-.065.873-9.293,6.383-18.513,11.214-27.284-3.244-4.213-7.833-1.539-12.998.009-1.808-2.567-1.2-5.318-.826-9.088l23.426-.123c-.048,10.608-8.101,18.35-9.849,36.552h0Z"/>
    <path class="st0" d="M880.869,1209.646c-6.774,1.282-12.126,1.53-19.173.08,7.14-4.256,4.372-25.563,4.172-26.054-.734-1.801-3.628-.487-7.401-2.602,4.45-5.075,10.677-8.173,18.307-8.583l-.285,27.107c-.042,4.031,1.213,6.347,4.381,10.052h-.001Z"/>
    <circle class="st0" cx="1012.685" cy="1192.486" r="8.95"/>
    <circle class="st0" cx="1032.059" cy="766.849" r="8.426"/>
    <circle class="st0" cx="997.982" cy="766.564" r="8.205"/>
    <path class="st5" d="M1309.907,1087.546c-3.216,1.489-5.608-4.569-9.876-2.067,12.628-32.593-11.817-34.392,28.029-55.358,7.873-4.143,14.354-7.708,23.957-4.881-8.86,25.13-14.209,49.39-42.11,62.305h0Z"/>
    <path class="st3" d="M822.078,1036.585c11.894-17.092,25.335-33.717,35.501-52.442,7.807-14.379,9.524-36.725-4.225-45.733-7.323-4.798-15.851-4.164-23.116-.616-11.8,5.763-18.781,17.093-22.499,30.068-10.413.804-20.207.325-31.519-.246l-1.25-59.374c34.831-26.962,79.524-33.491,120.528-20.036,20.258,6.647,34.393,21.624,37.333,43.447,3.319,24.638-4.236,50.255-18.881,70.876-7.599,10.7-15.989,22.938-27.093,29.792-14.786,9.127-33.41,5.976-49.851,10.232-5.256,1.361-14.141.785-14.929-5.968h.001Z"/>
    <path class="st3" d="M1026.491,884.433c7.282,6.943-4.459,14.768-11.99,7.623-2.294,4.111-2.469,8.982-.525,14.616l-3.082,4.188c-2.677-.102-8.519,62.447.389,56.821,6.157,1.597,3.337,17.989-1.454,20.236,1.157,7.224-1.318,14.824,1.707,21.741,3.757.959,3.486,2.493-.374,2.858-22.137-4.497-44.748-2.26-67.24,3.92.954-6.582-.809-12.306-.364-18.009,1.748-22.401.686-44.185,1.461-66.795l1.618-47.167c22.238-.16,44.001-2.576,66.404-.987l13.45.954h0Z"/>
    <path class="st3" d="M1212.858,1039.87c.051,11.944-1.383,43.977-16.13,43.182-5.566-.3-9.762-3.658-11.466-9.86-6.908-25.145-5.479-91.898-2.341-119.051.982-8.494,4.64-23.577,13.865-23.392,14.271.287,15.749,34.152,15.799,45.604l.273,63.517Z"/>
    <path class="st5" d="M1276.048,1063.558c-1.864,11.046-3.384,22.098-9.489,32.451l-70.726,1.005c-23.648.336-46.069,2.923-69.51,2.023-4.436-10.838-7.856-20.925-8.497-33.569l54.041-1.639c2.847,13.175,9.049,29.418,23.076,30.214,17.911,1.017,23.838-13.866,26.422-31.06l54.683.574h0Z"/>
    <path class="st5" d="M952.574,1098.265c-2.02-7.81-1.357-15.617.01-24.213l23.544,10.246c14.203,6.181,43.637,4.737,53.549-14.538l73.155-2.138c-2.122,13.211-6.828,24.944-14.896,34.981l-76.756.779c-19.604.199-37.866-1.804-58.606-5.117h0Z"/>
    <path class="st5" d="M845.713,1063.193l13.517.296c-4.93,7.383-12.45,9.018-17.018,18.155,18.97,2.958,36.855.581,55.467,1.348,9.692.399,17.827-3.008,24.902-9.457.283,8.042-2.01,15.73-3.369,24.447-31.072-1.874-6.697-.714-34.721-2.04-31.066,1.269-6.546.263-36.007,1.541-11.823-.19-8.613.025-29.939-.097-18.094,1.167-7.296,0-35.534,1.644-12.454.5,4.513-.258-16.276.53-10.312.391,29.984-32.991,28.284-32.839l27.756-2.496"/>
    <path class="st5" d="M1263.61,913.148c-45.903-2.578-89.308-4.378-136.756-1.795,16.583-30.78,68.448-33.425,97.992-25.703,14.798,5.328,29.076,11.247,38.764,27.498Z"/>
    <path class="st5" d="M1011.162,1012.516c-.16-.841.704-2.102.374-2.858,28.274,1.706,56.493-.504,85.743-2.25,4.026,9.327,5.512,18.106,6.103,27.951-23.763,2.618-46.867,4.237-70.669,2.533-4.715-10.33-10.584-23.148-21.551-25.376h0Z"/>
    <path class="st5" d="M1013.04,883.479c3.158.571-13.905-.527,13.45.902,21.066,1.494,42.432-1.349,64.181.2-.923,10.475-1.964,18.585-3.879,27.376-24.091-.476-28.303,1.191-51.797,1.191-12.387,0-3.567,0-25.219.354"/>
    <path class="st5" d="M1170.697,975.575l-57.38,1.947c-.283-11.122.59-20.899,3.007-32.012,19.276-1.822,37.639-2.425,57.763-1.866-1.149,10.376-3.413,17.905-3.39,31.931h0Z"/>
    <path class="st5" d="M1276.248,975.777l-55.063-2.609-3.985-31.856c19.017-.002,36.586.288,55.12,3.33,2.546,10.687,3.789,20.144,3.928,31.136h0Z"/>
    <path class="st5" d="M1170.345,1033.089l-55.01.684c-2.968-10.114-2.205-19.527-1.025-29.791l55.137-1.217.898,30.323h0Z"/>
    <path class="st5" d="M1279.037,1032.86l-54.81.039.309-30.524c18.634-.05,35.613-.675,53.97,1.128l.531,29.357h0Z"/>
    <path class="st5" d="M900.441,1129.663l-135.886-1.139c4.948-8.647,37.06-8.826,79.488-12.622l17.072-.13c10.938-1.065,95.862,14.366,39.326,13.892h0Z"/>
    <path class="st5" d="M1022.638,987.589c-4.275-.144-8.548-.019-12.809.328-1.104-6.893-.805-13.83-.965-20.72,23.145-.322,53.896-.787,73.711,16.394-19.639,4.284-37.834,4.74-55.878,4.134"/>
    <path class="st5" d="M1245.231,1120.386c-21.34,19.5-74.695,17.244-92.67,3.266l92.67-3.266Z"/>
    <path class="st5" d="M1058.969,1127.111c-32.478,12.895-71.65,10.801-105.509-2.678,9.019-1.924,17.572.071,26.916.323l78.593,2.355Z"/>
    <path class="st3" d="M871.325,468.929c-1.359,5.177-13.595,7.199-14.719,2.997-2.798-10.466-3.758-22.214-1.307-32.606,1.022-4.333,12.868-2.716,14.647.904,4.297,8.742,4.089,18.38,1.378,28.705h.001Z"/>
    <path class="st3" d="M1469.811,501.919c-.716,11.348-1.021,44.259-17.101,42.086-3.453-.467-8.654-4.491-8.546-10.272.27-14.54,1.548-72.924,18.194-74.615,14.75-1.498,10.085,33.692,7.453,42.801h0Z"/>
    <path class="st3" d="M580.816,506.561c-5.433,3.695-11.193,3.912-17.639,3.446l4.334-41.717,13.305,38.272h0Z"/>
    <path class="st3" d="M1093.626,486.773c-6.205.627-11.1.939-16.78-.686,2.548-12.998,4.195-24.301,9.213-37.726,3.715,12.6,5.936,25.232,7.567,38.412h0Z"/>
    <path class="st3" d="M1095.89,1178.466c4.231,8.684,2.271,18.457.665,26.949-9.723,8.248-6.866-39.675-.665-26.949Z"/>
    <path class="st3" d="M1163.836,1204.843c-4.808,2.156-4.633-4.232-4.954-6.22-.37-2.295,1.704-8.546,5.159-6.175,2.888,1.981,3.358,10.798-.206,12.396h0Z"/>
    <path class="st3" d="M963.552,1204.735c-5.364.914-6.427-12.933-.378-12.916,4.118.011,5.414,12.058.378,12.916Z"/>
    <path class="st0" d="M796.369,938.839l-8.083,5.215c.134-4.494,2.156-5.444,2.289-9.182l-7.069-5.689,9.126-.304,3.42-9.588,3.342,9.258,9.076.601-6.995,5.739,2.256,9.107c-2.483-1.452-4.673-3.058-7.362-5.156h0Z"/>
    <path class="st0" d="M656.462,954.869l-28.856,18.617c.477-16.044,7.696-19.434,8.173-32.78l-25.238-20.311,32.579-1.084,12.211-34.23,11.932,33.052,32.401,2.144-24.971,20.489,8.052,32.512c-8.866-5.184-16.684-10.917-26.284-18.409h.001Z"/>
    <path class="st0" d="M725.316,992.448l-16.19,10.445c.268-9.001,4.318-10.904,4.586-18.391l-14.16-11.395,18.278-.608,6.851-19.205,6.694,18.544,18.178,1.203-14.01,11.495,4.518,18.241c-4.974-2.909-9.361-6.125-14.746-10.328h0Z"/>
    <path class="st0" d="M470.412,523.979l-24.903,23.646c-2.507-15.854,3.957-20.524,1.951-33.728l-28.567-15.277,31.813-7.108,5.65-35.901,17.855,30.266,32.236-3.903-20.737,24.765,13.943,30.454c-9.673-3.45-18.42-7.633-29.242-13.214h.001Z"/>
    <path class="st0" d="M1566.063,530.054l-31.493,13.691c3.072-15.754,10.745-17.929,13.38-31.021l-21.61-24.134,32.324,4.213,17.6-31.797,6.414,34.55,31.625,7.37-27.963,16.169,2.674,33.387c-7.908-6.553-14.693-13.478-22.951-22.427h0Z"/>
    <path class="st0" d="M1181.079,489.417l-16.19,10.445c.268-9.001,4.318-10.904,4.586-18.391l-14.16-11.395,18.278-.608,6.851-19.205,6.694,18.544,18.178,1.203-14.01,11.495,4.518,18.241c-4.974-2.909-9.361-6.125-14.746-10.328h.001Z"/>
    <path class="st0" d="M1322.258,987.84l-16.19,10.445c.268-9.001,4.318-10.904,4.586-18.391l-14.16-11.395,18.278-.608,6.851-19.205,6.694,18.544,18.178,1.203-14.01,11.495,4.518,18.241c-4.974-2.909-9.361-6.125-14.746-10.328h.001Z"/>
    <path class="st0" d="M827.643,911.882l-8.083,5.215c.134-4.494,2.156-5.444,2.289-9.182l-7.069-5.689,9.126-.304,3.42-9.588,3.342,9.258,9.076.601-6.995,5.739,2.256,9.107c-2.483-1.452-4.673-3.058-7.362-5.156h0Z"/>
    <path class="st0" d="M867.398,914.076l-8.083,5.215c.134-4.494,2.156-5.444,2.289-9.182l-7.069-5.689,9.126-.304,3.42-9.588,3.342,9.258,9.076.601-6.995,5.739,2.256,9.107c-2.483-1.452-4.673-3.058-7.362-5.156h0Z"/>
    <path class="st0" d="M895.84,942.595l-8.083,5.215c.134-4.494,2.156-5.444,2.289-9.182l-7.069-5.689,9.126-.304,3.42-9.588,3.342,9.258,9.076.601-6.995,5.739,2.256,9.107c-2.483-1.452-4.673-3.058-7.362-5.156h0Z"/>
    <path class="st0" d="M888.476,982.727l-8.083,5.215c.134-4.494,2.156-5.444,2.289-9.182l-7.069-5.689,9.126-.304,3.42-9.588,3.342,9.258,9.076.601-6.995,5.739,2.256,9.107c-2.483-1.452-4.673-3.058-7.362-5.156h0Z"/>
    <path class="st0" d="M867.398,1022.441l-8.083,5.215c.134-4.494,2.156-5.444,2.289-9.182l-7.069-5.689,9.126-.304,3.42-9.588,3.342,9.258,9.076.601-6.995,5.739,2.256,9.107c-2.483-1.452-4.673-3.058-7.362-5.156h0Z"/>
    <path class="st0" d="M981.113,914.076l-8.083,5.215c.134-4.494,2.156-5.444,2.289-9.182l-7.069-5.689,9.126-.304,3.42-9.588,3.342,9.258,9.076.601-6.995,5.739,2.256,9.107c-2.483-1.452-4.673-3.058-7.362-5.156h0Z"/>
    <path class="st0" d="M981.113,982.727l-8.083,5.215c.134-4.494,2.156-5.444,2.289-9.182l-7.069-5.689,9.126-.304,3.42-9.588,3.342,9.258,9.076.601-6.995,5.739,2.256,9.107c-2.483-1.452-4.673-3.058-7.362-5.156h0Z"/>
    <ellipse class="st2" cx="1019.024" cy="768" rx="806.25" ry="537.5"/>
  </g>
  <metadata>
    <sfw xmlns="http://ns.adobe.com/SaveForWeb/1.0/">
      <slices/>
      <sliceSourceBounds x="-20.82" y="0" width="2079.69" height="1536" bottomLeftOrigin="true"/>
    </sfw>
  </metadata>
</svg>