<?xml version="1.0" encoding="UTF-8"?>
<svg id="Layer_1" xmlns="http://www.w3.org/2000/svg" width="2048" height="1536" version="1.1" xmlns:xlink="http://www.w3.org/1999/xlink" viewBox="0 0 2048 1536">
  <!-- Generator: Adobe Illustrator 30.1.0, SVG Export Plug-In . SVG Version: 2.1.1 Build 136)  -->
  <defs>
    <style>
      .st0, .st1 {
        fill-rule: evenodd;
      }

      .st0, .st2 {
        fill: #599592;
      }

      .st1, .st3 {
        fill: #faf7ea;
      }

      .st4 {
        fill: none;
      }

      .st5 {
        fill: #a61a26;
      }

      .st6 {
        fill: #dfa52a;
      }

      .st7 {
        clip-path: url(#clippath);
      }

      .st8 {
        fill: #d46020;
      }
    </style>
    <clipPath id="clippath">
      <ellipse class="st4" cx="1015.865" cy="763.197" rx="806.25" ry="537.5"/>
    </clipPath>
  </defs>
  <path class="st0" d="M1327.64,800.482c-.219-34.24-30.838-58.077-63.446-57.868l-71.979.461c-22.656.145-42.279,14.344-51.244,34.958-4.957,11.398-5.933,22.847-5.863,35.421l.893,159.728c.167,29.809,22.635,57.337,52.983,57.479l82.603.388c14.729.069,28.042-5.258,38.327-14.845,13.021-12.137,18.919-28.983,18.804-46.982l-1.08-168.74h.002ZM1244.822,952.944h-25.101v-133.272h25.101v133.272Z"/>
  <g class="st7">
    <g>
      <path class="st5" d="M1852.216,743.956v59.992l-509.011.048c-.487-24.565-11.976-45.985-33.653-60.078l542.664.038h0Z"/>
      <path class="st5" d="M584.082,803.898c-42.025.85-357.006-.72-407.544-.286v-60l559.109.414c-21.959,14.941-33.027,36.588-33.022,60.036l-118.543-.164h0Z"/>
      <path class="st2" d="M1879.879,948.95v57.701l-547.041-.047c5.849-11.029,9.394-21.495,9.669-32.87l.599-24.789,536.772.005h.001Z"/>
      <polygon class="st2" points="176 1008.337 176 950.337 704.608 950.131 704.338 1007.728 176 1008.337"/>
      <path class="st8" d="M1852.149,815.943v58.016l-386.288.026c-.704-20.329-5.409-38.657-11.331-58.051l397.619.009h0Z"/>
      <path class="st6" d="M1852.149,883.762v56.567l-399.458-.052c7.708-19.139,13.096-36.674,13.582-56.475l385.877-.04h-.001Z"/>
      <path class="st8" d="M591.418,814.505l1.537.147c-3.696,18.902-11.571,37.75-11.877,57.752l-456.84.321v-58c.291-.515.761-.577,1.395-.223l465.786.003h0Z"/>
      <path class="st6" d="M132.365,940.673v-57l449.028.519c1.208,19.39,7.166,37.863,15.592,56.444l-464.62.038h0Z"/>
      <path class="st8" d="M1424.003,544.071l-141.425-15.574-123.357-8.239,2.047-8.097c50.476,2.379,99.66,5.925,149.783,12.292,38.2,5.281,75.501,9.812,112.952,19.618h0Z"/>
      <path class="st8" d="M625.823,543.577c43.22-11.663,87.186-16.881,131.727-22.607,39.925-4.24,78.881-7.125,118.767-9.026,1.073,2.858,1.511,5.417,1.314,8.506-84.516,3.467-167.216,12.281-251.808,23.128h0Z"/>
      <polygon class="st6" points="637.243 445.898 615.223 461.408 623.176 435.949 601.807 420.157 628.849 419.473 637.124 395.061 645.841 419.544 672.237 420.021 651.247 435.714 659.01 461.201 637.243 445.898"/>
      <path class="st6" d="M1186.897,478.489l-18.687,13.102c1.303-7.908,4.01-14.366,6.155-21.875l-18.651-14.164,23.666-.682,7.736-22.084,7.676,22.151,23.612.571-18.559,13.837,6.987,23.07-19.935-13.925h0Z"/>
      <path class="st8" d="M1027.808,630.48c.628.471-10.742,16.677-10.922,17.338-.598-1.604-11.733-17.136-10.675-18.644,2.292-2.424,7.027.072,10.794,2.618,2.299-2.459,9.719-6.357,10.803-1.312Z"/>
      <polygon class="st6" points="1389.791 439.045 1367.808 454.72 1375.995 429.086 1355.396 413.444 1381.431 412.697 1389.867 388.634 1398.424 412.92 1425.544 413.056 1404.108 428.825 1411.597 454.326 1389.791 439.045"/>
      <path class="st8" d="M1376.827,655.002c-110.011-16.335-228.228-20.127-339.444-21.376-1.128,3.73-1.748,7.056-1.757,10.197,117.639.09,241.382,5.91,357.556,13.279-5.639-1.725-10.497-1.276-16.355-2.1h0Z"/>
      <path class="st8" d="M859.585,636.648c-64.124,3.731-155.085,9.885-217.898,20.097,116.625-7.012,236.293-13.886,354.059-12.722,1.813-3.382,2.293-6.621,2.38-10.347l-138.541,2.972h0Z"/>
      <path class="st6" d="M1138.006,635.601l-1-.1,1,.1Z"/>
      <path class="st6" d="M1127.006,644.955l1,.024-1-.024Z"/>
      <polygon class="st6" points="846.123 478.577 826.293 492.634 833.56 469.71 814.877 455.628 838.355 454.763 845.994 432.962 854.025 454.991 877.993 455.421 858.835 469.354 865.953 492.293 846.123 478.577"/>
      <path class="st5" d="M997.573,511.831c-15.311-.49-17.441-16.836-15.804-28.033l20.852.118c-.161,3.841.09,8.828,2.309,10.493l19.282.576c2.138.064,5.048-2.38,5.056-4.477l.058-14.173c.044-10.703-20.216-5.705-25.531-1.748l-21.337-5.76-.087-46.142,64.863-.018.061,17.28-43.769.008.081,20.06c5.05-3.742,9.181-6.301,15.312-6.689,11.392-.72,30.092-1.274,31.057,15.098.548,9.298.588,18.503.139,27.887-.442,9.239-8.076,15.528-17.145,15.719-11.766.249-23.055.197-35.399-.198h.002Z"/>
      <path class="st5" d="M965.387,511.899l-70.074-.055-.098-25.592c-.03-7.895,4.118-14.662,11.605-18.037,9.952-4.487,20.238-8.244,30.537-12.198,4.197-1.611,5.967-4.008,5.685-8.831-.142-2.412-.777-5.488-2.184-7.864-7.41-.548-14.989-.602-22.534.033-1.545,3.379-1.763,6.919-1.802,10.848l-20.503-.061c-1.064-11.875,1.545-26.548,16.11-27.39,11.934-.69,23.807-.677,35.741.033,8.82.525,15.375,6.885,16.197,15.561,1.167,12.306,1.607,25.689-11.389,30.905l-26.3,10.554c-2.688,1.079-6.339,2.367-8.46,4.51-1.877,1.897-1.317,7.123-.842,10.139l48.198.058.114,17.387h-.001Z"/>
      <path class="st5" d="M1139.169,440.452c-.257-10.27-8.27-17.894-18.159-17.848l-35.807.168c-9.53.045-17.383,7.623-17.436,17.632l-.27,51.884c-.039,7.515,2.881,13.202,8.711,18.273,12.566,2.765,31.104,2.026,46.353,1.515,9.211-.308,16.399-7.665,16.631-16.64.475-18.419.439-36.455-.023-54.984h0ZM1117.791,490.409c0,2.23-2.526,4.797-4.584,4.788l-19.356-.081c-2.537-.01-4.691-2.102-4.7-4.742l-.155-45.131c-.01-3.089,1.668-5.691,4.937-5.688l18.142.021c3.206.003,5.745,2.375,5.743,5.753l-.028,45.08h0Z"/>
      <polygon class="st5" points="800.271 357.702 811.661 398.295 820.091 396.968 823.401 409.23 787.84 418.282 783.648 405.224 792.959 402.443 778.246 349.291 769.59 351.085 765.684 338.405 800.211 328.651 837.168 371.81 850.597 315.031 884.085 306.737 887.592 319.418 878.464 322.494 891.863 376.291 900.287 375.199 903.614 387.795 866.137 396.526 862.902 383.914 871.516 381.084 861.387 340.124 850.723 390.854 833.024 395.388 800.271 357.702"/>
      <polygon class="st5" points="943.411 370.578 972.305 368.332 972.498 357.382 987.196 356.676 990.345 381.312 913.093 387.278 911.736 373.691 921.567 372.365 915.558 317.436 905.939 317.165 904.482 304.271 980.781 297.717 984.118 322.267 968.389 323.394 966.9 313.509 937.714 315.969 940.09 334.97 971.43 332.058 972.727 346.795 941.444 349.257 943.411 370.578"/>
      <path class="st5" d="M1182.385,377.56c-1.465,5.063.98,10.409,5.726,11.82l17.872,5.312c3.857,1.146,7.356-1.848,8.224-5.144l2.275-8.631,21.291,6.573c-1.313,7.483-3.071,14.834-8.407,20.278-4.658,4.753-12.578,5.312-19.044,3.971-13.288-2.755-25.726-6.677-38.394-11.486-10.114-3.839-15.721-14.271-12.716-25.148l11.388-41.219c3.116-11.279,12.264-18.128,24.63-16.479,13.435,1.792,26.853,5.944,39.369,11.512,6.082,2.706,11.783,7.921,12.779,14.525,1.053,6.979-1.196,13.667-3.182,20.349l-21.083-6.256,1.799-9.547c.514-2.728-1.038-6.641-3.882-7.696-7.443-2.76-24.907-10.208-27.664-.681l-10.981,37.946h0Z"/>
      <polygon class="st5" points="1140.722 394.166 1100.001 387.023 1101.707 374.258 1111.639 375.257 1119.801 318.967 1109.804 316.583 1111.92 303.783 1154.606 310.927 1152.563 323.63 1142.129 322.392 1133.388 378.996 1142.838 381.502 1140.722 394.166"/>
      <path class="st5" d="M1331.431,439.142l-.852-77.103-43.302-18.267-5.601,12.534,8.762,4.346-42.509,45.699-8.087-2.564-4.984,12.001,36.841,14.688,4.898-12.158-8.602-4.507,8.225-8.822,32.755,13.191-.12,11.393-8.349-2.58-4.535,12.296,40.26,16.782,5.073-12.619-9.876-4.31h.003ZM1286.422,393.335l22.909-24.969.632,34.892-23.541-9.924h0Z"/>
      <path class="st5" d="M778.769,408.081l-7.77,3.023-55.129-53.067-39.068,16.761,5.342,13.205,9.264-3.628,3.891,59.009-8.784,4.098,5.67,12.821,34.406-14.939-4.726-12.283-7.411,2.302c-.374-3.012-.748-7.787-.344-10.882l28.174-12.231,7.805,7.583-7.775,4.478,6.003,11.713,36.058-15.441-5.605-12.523h0ZM711.648,410.379l-3.631-32.268,23.601,23.317-19.97,8.95h0Z"/>
      <path class="st5" d="M1081.597,370.164l-12.95-21.252c7.102-.939,13.813-4.242,15.435-11.226,1.855-7.985,2.358-16.979.478-25.18-1.789-7.8-9.871-12.191-17.68-13.056-21.736-2.407-42.611-2.222-64.412-2.334l.002,12.913,9.716,1.014-.942,55.789-9.472.379-.051,13.012,40.715,1.441-.051-12.902-9.52-.902.627-19.056,13.523.901,18.31,32.953,25.752,1.705.24-12.953-9.72-1.248v.002ZM1063.175,329.855c-.081,4.38-3.812,6.179-7.063,5.994l-22.403-1.27.549-22.673c6.945.981,29.282-1.798,29.098,8.15l-.181,9.799Z"/>
      <polygon class="st6" points="651.126 890.641 623.983 909.451 633.422 877.848 606.787 858.35 640.151 857.763 650.987 826.028 661.99 857.661 695.379 858.319 668.869 877.824 678.783 909.791 651.126 890.641"/>
      <path class="st6" d="M1372.845,1117.964c16.288-8.67,32.947-14.686,51.667-11.987-14.365,21.935-39.829,32.186-65.164,26.303l-25.67,20.437c16.991-3.793,33.169-3.009,49.456,3.099-18.097,16.707-46.468,20.102-67.498,7.53l-28.384,13.123c16.98-.549,31.715,2.212,45.227,11.902-21.172,11.118-48.015,12.427-65.746-4.877l-34.448,8.314c17.061,1.677,34.221,9.223,46.455,22.969-22.353,7.319-49.924.051-62.175-20.204l-35.12,3.971c16.667,5.217,30.299,14.756,37.69,31.277-21.608,2.821-46-9.262-53.946-30.578l-30.907,1.937c15.915,6.01,27.521,16.448,33.627,32.363-21.176.534-43.945-10.887-51.495-31.446l-35.565,2.487c17.613,3.867,33.08,15.022,39.468,33.22-20.99,1.065-42.932-10.16-51.337-30.868-12.775,1.403-25.344,4.062-37.294,9.631,7.173,5.553,15.009,11.913,20.131,18.614,1.189,1.846-4.251,7.141-6.841,4.134-5.993-6.959-13.293-13.714-21.791-18.737-8.954,5.825-15.316,12.315-22.689,19.679-1.963.865-6.344-2.196-6.251-4.586,5.605-7.296,12.858-13.206,20.851-18.995-11.369-5.276-24.32-8.469-37.211-9.679-8.896,20.838-29.835,31.011-51.721,30.96,5.834-17.67,21.223-29.238,39.079-33.316l-35.111-2.421c-7.655,21.206-30.845,31.761-51.797,31.606,6.245-15.931,18.021-26.333,34.078-32.586l-31.263-1.903c-7.398,21.14-32.916,33.042-53.624,30.439,7.308-16.55,20.765-26.078,37.846-31.199l-35.343-4.277c-12.803,21.129-39.486,27.697-62.391,20.37,12.28-13.822,28.446-20.244,45.755-22.825l-33.679-8.264c-17.815,17.214-44.355,16.303-65.926,4.52,14.489-9.537,30.69-13.031,47.511-11.002l-30.408-13.812c-21.882,13.006-48.927,8.636-67.687-7.33,15.655-6.274,31.108-6.865,48.41-3.5l-24.738-20.188c-25.334,6.092-49.936-4.582-64.987-25.968,19.861-3.398,35.124,3.004,52.026,12.117l-12.874-18.964c-22.727-10.506-31.489-34.316-28.359-58.051,19.515,13.917,30.063,31.465,31.748,54.619,3.073,7.422,9.615,14.588,15.792,20.642-5.776-18.078-5.392-36.301,6.646-50.915,11.831,17.141,13.804,46.202,4.159,63.318,9.165,8.901,18.896,16.089,30.418,22.415-10.202-16.509-12.967-34.643-4.704-51.845,15.231,16.28,22.173,37.26,16.937,58.843,11.412,6.583,23.156,11.404,36.225,15.112-15.712-15.346-23.766-27.348-20.889-50.306,20.844,12.66,32.267,29.202,32.939,54.667,12.031,3.806,24.205,6.696,37.181,8.488-17.123-12.04-28.037-22.286-29.163-45.432,21.338,6.895,39.336,23.962,40.995,47.096,13.327,2.036,25.604,3.596,39.619,4.145-17.274-8.309-30.756-20.924-34.713-40.612,21.636,3.004,43.776,18.072,47.098,41.382l37.303,2.145c-17.857-7.741-31.098-21.976-33.266-41.727,21.1,4.461,42.288,19.681,44.44,42.347l36.332,2.757c-17.68-9.253-29.915-23.497-30.628-43.655,21.022,5.812,40.317,20.963,42.013,44.582,15.831,1.644,30.516,7.371,44.529,12.433,13.758-5.706,28.555-10.227,43.489-12.496,2.351-23.297,19.78-37.616,42.334-44.537-.488,19.081-12.078,34.01-29.59,43.434l35.287-2.509c1.374-23.546,23.014-37.875,44.07-42.244-1.752,19.587-15.491,33.095-32.601,41.654l37.24-2.219c2.089-23.271,24.725-37.523,46.15-41.54-1.626,11.667-7.784,21.723-16.482,29.442-5.046,4.478-10.737,7.221-16.737,11.268,13.463-.367,25.729-2.025,38.66-4.245,1.326-23.55,19.783-40.159,41.037-46.871-.992,20.75-11.108,33.204-27.933,44.124-2.346.932-1.274,1.003.62.84,12.15-1.842,23.58-4.223,35.388-8.106.615-25.584,11.046-39.809,30.834-53.851.276-.196,1.921-.795,1.964-.471l.24,1.804c2.517,18.908-5.741,35.071-21.234,47.756,12.864-2.418,24.269-8.299,36.142-14.747-4.524-18.65.038-36.515,11.215-51.442l4.188-5.592c4.203-5.613,6.409,14.361,6.505,15.953.696,11.602-2.467,21.571-8.137,31.934-.11-.094.831.711,1.141.977,10.201-6.238,19.038-12.836,27.76-21.172-10.193-20.148-7.084-44.149,4.45-63.406,12.051,14.389,11.672,31.889,7.663,49.495,23.225-20.439,10.971-28.956,22.552-48.141,6.105-10.114,13.671-19.211,23.846-25.592,2.752,24.717-5.717,46.995-28.267,58.372l-12.641,18.192v-.002Z"/>
      <circle class="st3" cx="1286" cy="1176.837" r=".635"/>
      <circle class="st3" cx="914" cy="1200.837" r=".635"/>
      <path class="st5" d="M1100.386,1126.608l-40.278-.096-.085-16.315c-.024-4.524,2.667-8.852,7.053-10.655l19.338-7.95c1.987-.995,1.845-7.48.406-9.198-3.881-.767-8.593-.724-13.116-.54l-1.602,6.054-11.754-.007c.068-3.035.124-5.359.417-8.325,1.061-10.743,19.42-8.373,29.291-8.065,5.201.162,9.656,4.159,10.136,9.376.745,8.085.81,16.77-7.2,20.155l-19.192,8.11c-1.616.683-1.681,5.531-.621,6.907l27.236.296-.027,10.253h-.002Z"/>
      <path class="st5" d="M1161.698,1126.585l-.081-17.043c-.02-4.194,3.346-8.531,7.285-10.135l19.249-7.835c1.01-2.719.973-6.708.025-9.569l-13.3-.199-1.483,6.139-11.632-.063c-.612-6.445.554-15.386,8.534-16.023,7.629-.608,14.8-.571,22.41-.003,4.277.319,8.08,4.099,8.42,8.452.73,9.356,1.523,17.352-7.377,20.986l-18.865,7.704c-.432,2.023-.634,4.74-.636,7.063l27.229.22.111,10.229-39.889.076h0Z"/>
      <path class="st5" d="M901.88,1126.314l-14.25-.007,21.802-43.586-26.877-.247-.041-10.873,40.629.052c.881,5.963.029,10.692-2.37,15.645l-18.894,39.015h0Z"/>
      <path class="st5" d="M853.046,1126.293l-14.264.038,21.837-43.583-26.639-.345-.035-10.851,40.398.13c-.002,3.356.859,8.224-.369,10.797l-20.928,43.813h0Z"/>
      <path class="st5" d="M794.744,1126.568l-.308-9.779,10.913-.421.053-31.899-10.862,2.918.094-9.336,13.906-5.946c2.048-.876,6.481-.342,9.427-.265l.099,44.348,9.906.312-.132,10.112-33.095-.044h0Z"/>
      <circle class="st5" cx="1017.435" cy="1098.212" r="11.723" transform="translate(-229.572 1926.595) rotate(-80.783)"/>
      <path class="st5" d="M1252.277,1102.77c-.305-7.367-6.506-10.892-13.671-10.829-6.535.057-10.112,1.11-14.878,5.645l-.205-15.801,14.46.099,1.661,5.232,11.473-.048c1.428-5.607-.729-13.777-7.497-14.908-7.599-1.27-15.705-.961-23.417-.424-5.555.387-9.456,5.051-9.448,10.547l.049,33.05c.008,5.124,3.911,10.527,9.189,10.93,7.207.551,14.13.582,21.261.345,5.728-.191,10.607-4.125,10.938-10.067.25-4.498.268-9.36.085-13.772h0ZM1224.156,1116.365c-.572-4.214-1.221-9.323.396-12.186,3.98-3.555,9.882-2.846,14.69-.927l.162,13.096-15.248.017h0Z"/>
      <path class="st5" d="M973.073,1099.895c-1.201-9.564-21.226-10.942-28.155-2.414l-.034-15.495,14.8-.011,1.197,5.252,11.509-.213c1.012-2.837.476-7.812-1.587-10.942-4.331-6.572-19.781-4.82-28.824-4.447-5.449.225-9.895,5.217-9.88,10.664l.092,33.084c.017,6.007,4.721,10.688,10.794,10.931,10.807.433,29.598,2.992,30.331-9.32.335-5.624.442-11.63-.243-17.089ZM945.911,1116.278c-1.169-2.802-1.928-9.624.07-11.816,3.589-3.937,9.973-2.986,14.54-1.256l.109,12.856c-4.733.917-9.75.946-14.719.215h0Z"/>
      <path class="st5" d="M1151.92,1083.305c-.006-6.359-4.46-11.572-10.879-11.751-7.126-.198-13.905-.192-21.04.074-5.607.21-10.185,4.958-10.191,10.709l-.034,33.028c-.007,6.356,5.014,11.03,11.229,11.136,12.431.213,30.963,3.052,30.949-11.131l-.033-32.065h0ZM1139.024,1115.773c-6.241.485-10.547.501-16.525-.138l-.08-32.865c5.925-1.198,10.895-1.216,16.738.174l-.133,32.829Z"/>
      <path class="st6" d="M1395.81,890.489l-27.614,19.027,9.735-31.443-27.063-19.964,33.552-.316,11.235-31.554,10.917,31.368,33.478.688-26.477,19.664,9.885,31.474c-10.019-5.724-17.359-11.404-27.649-18.944h.001Z"/>
      <path class="st2" d="M1073.745,1029.173l-96.824-.173c-28.095-.05-50.269-23.936-53.057-51.354-1.9-18.684-2.044-36.263-2.657-54.874l87.482.032.171,30.251,27.854.046-.051-47.54-21.824.07c-6.424,2.984-11.018,7.205-16.027,12.333l-75.534-16.941-.163-159.045,199.75-.047.333,76.994-114.866-.055-.045,17.535c7.19-1.547,13.658-3.46,20.916-3.435l32.198.112c31.639.11,59.335,21.242,60.241,53.317.885,31.318,2.18,61.452,1.449,92.757-.62,26.568-22.487,50.065-49.347,50.017h.001Z"/>
      <path class="st3" d="M937.066,890.342l-1.037-2.709.052-132.408,1.077-.697,172.326.088.419,51.52-114.126-.045.416,51.531c9.07-5.955,17.939-10.134,28.378-11.931l40.832.154c10.922.041,21.536,4.411,29.808,11.119,11.624,9.426,15.205,22.932,15.357,37.408l.818,77.917c.094,8.905-1.357,17.277-5.594,25.083-6.3,11.608-18.204,20.404-32.097,20.383l-93.213-.14c-22.7-.034-40.437-17.39-44.236-39.475-2.458-14.291-1.89-27.942-2.31-42.595l62.541-.084.338,24.057c.036,2.588,2.326,5.537,5.112,5.572l43.229.53c2.408.03,5.088-2.66,5.099-5.272l.227-59.027c.017-4.4-2.671-8.194-7.473-8.232-9.006-.07-17.892-.066-26.934.419-7.81.418-14.13,5.117-20.25,9.676l-58.759-12.841h0Z"/>
      <path class="st2" d="M1103.91,943.296l-.179,33.822c-.094,17.696-12.393,33.371-31.759,33.393l-88.924.099c-18.816.021-34.412-11.211-38.785-29.895-2.803-11.976-2.421-24.203-2.056-36.725l46.212-.157.529,16.51c.236,7.361,5.951,12.533,13.122,12.59l44.969.356c14.548.115,10.604-21.097,10.95-29.949l45.921-.042v-.002Z"/>
      <path class="st5" d="M988.005,813.497l-.924,2c-13.861-.006-27.728-.012-41.601-.018l-1.194-2-.024-50.924,156.984.102-.081,35.798-112.601-.021c-.286,5.282-.589,10.118-.559,15.063h0Z"/>
      <path class="st6" d="M1099.055,873.411c3.435,7.228,4.585,13.674,4.625,21.999l.231,47.886-45.921.042-.257-42.043c.645-8.078-5.028-14.969-13.352-15.311-17.729-.727-36.505-2.315-50.596,9.856l-49.412-10.882-.144-11.527.695-2,42.169-.006c.997.89,2.39.89,4.177,0,35.207-.005,70.232-.01,105.078-.014l2.708,2h0Z"/>
      <path class="st8" d="M988.005,813.497l.351,57.583,15.689-9.918c5.936-3.753,13.511-7.731,20.868-7.984,14.915-.512,29.353-.55,43.886.278,13.689.78,24.881,8.643,30.256,19.954l-154.827.021.058-59.953,43.719.019h0Z"/>
      <path class="st2" d="M717.777,1029.788l.15-93.348c.019-11.65,2.858-22.021,6.83-32.592,7.346-13.835,18.388-25.321,33.329-31.197l70.256-27.632.272-25.659-27.163-.266-.167,28.611-83.753.016.36-46.545c.132-16.995,7.911-32.523,20.063-43.696,11.685-10.539,25.416-15.553,41.092-15.407l70.86.658c33.25.309,60.155,23.714,62.085,57.775,1.024,18.067.836,36.168.312,54.526-.704,24.619-15.699,45.203-38.486,53.964l-71.713,27.571.63,15.083,110.868.014-.012,78-195.812.126v-.002Z"/>
      <path class="st3" d="M899.974,964.458c-.763,17.267,4.923,34.959-2.964,53.269-40.498-.027-122.952.161-165.01-.301-.668-1.484-1.002-2.226-1.002-2.226l-.09-80.387s-.297.041.305-1.717c-.05-22.632,13.028-42.288,34.904-50.917l67.959-26.807c2.478-.978,7.311-3.715,7.338-6.495l.347-35.601c.031-3.16-2.694-5.817-5.734-5.918l-41.13-1.367c-1.232-.041-3.719.494-4.554,1.164-1.002.803-1.715,3.504-1.719,5.022l-.054,22.554-57.573.021c-.027-12.999-.287-24.403.797-36.405,2.315-25.641,22.49-44.2,48.257-43.873,25.914.33,50.921.184,76.568,2.36,23.671,2.008,41.259,20.94,42.608,44.317,1.077,18.679,1.047,36.552-.022,55.189-1.037,18.078-11.139,33.698-28.077,40.351l-72.935,28.652c-5.259,2.066-8.29,6.393-8.138,11.956.253,9.287-.545,18.405,1.062,26.882,33.797-.6,69.151-.846,102.882.27"/>
      <polygon class="st2" points="891.783 972.802 892.162 1009.805 739.635 1009.926 739.312 943.359 782.59 943.385 782.787 972.618 891.783 972.802"/>
      <path class="st5" d="M892.105,813.518l-.68,2.001c-13.576.021-27.154.042-40.735.063l-1.196-1.998c.047-7.57-5.695-13.584-12.637-13.794l-42.944-1.297c-3.633-.11-8.255,1.738-10.163,4.093-2.186,2.698-2.686,6.514-2.791,9.751l-1.313,2.88c-13.147.663-26.366.79-39.656.379l-1.169-2.008c-.345-7.819-.312-14.771,1.238-22.079,3.438-16.212,17.01-28.383,33.927-29.278,13.152-.696,25.818-.202,39.034.24l42.33,1.416c13.052.437,24.637,7.999,31.14,18.68,6.06,9.953,5.567,20.344,5.616,30.949v.002Z"/>
      <path class="st6" d="M811.16,872.156c24.759-.804,49.61-.976,74.553-.515l1.206,2.003c-4.546,9.374-12.57,14.863-22.303,18.63l-68.901,26.664c-9.52,3.684-14.817,13.531-13.125,24.447-10.017-.017-20.816-.024-32.398-.02-3.816,0-6.761.265-10.88-.007-1.365-22.318,3.127-42.481,24.771-52.754,15.494-7.354,31.564-12.201,47.076-18.449h.001Z"/>
      <path class="st8" d="M892.105,813.518l.165,35.801c.041,8.88-1.777,16.956-5.351,24.325l-67.941-.189c-2.777-.008-5.661-.614-7.818-1.299l28.316-11.405c5.09-2.051,9.773-7.688,9.808-13.298l.209-33.869,42.612-.065h0Z"/>
      <path class="st8" d="M738.819,813.589l38.25.245c1.012.007,3.359-1.08,3.889-1.497l-.472,14.523-41.538-.022c-.324-4.572-.401-8.917-.129-13.249h0Z"/>
      <path class="st1" d="M1315.35,801.715c-.108-24.522-21.267-45.606-44.95-45.665l-73.548-.182c-27.492-.068-48.173,19.269-48.47,45.92l-.338,3.044c-.362,56.59-.441,113.226-.238,169.91l.408,2.473c2.581,22.479,20.946,41.009,43.787,41.077l81.947.242c14.779.044,27.484-8.206,34.935-20.346,5.226-8.515,7.256-17.683,7.21-28.041l-.743-168.432h0Z"/>
      <path class="st2" d="M1265.78,943.391l43.29-.109-.169,29.143c-.12,20.655-13.702,38.632-34.156,38.65l-85.361.074c-17.871-2.733-31.426-16.579-33.133-35.007-1.003-10.824-.251-21.458-.452-32.776l43.244.012-.005,16.024c-.003,8.443,6.965,13.729,14.897,13.726l40.102-.012c6.23-.002,11.38-5.58,11.472-11.688l.271-18.035v-.002Z"/>
      <path class="st5" d="M1308.331,812.337c.115.6.193,1.073-.417,1.333-.002.777-.201,1.973-.688,1.997-11.166.535-26.149.599-37.215-.182-2.454.515-3.917-.159-4.388-2.021-.019-7.394-5.599-13.837-13.608-13.864l-40.941-.138c-9.581-.032-11.528,7.948-13.005,14.005l-.674,2.001c-13.436.017-26.875.033-40.316.05l-1.183-1.999c-.005-6.242-.411-12.437,1.063-19.133,3.842-17.448,18.612-30.943,37.056-30.992l72.907-.196c14.886-.04,26.737,6.017,35.208,18.511,4.954,7.308,7.506,22.801,6.202,30.629h-.001Z"/>
      <path class="st6" d="M1198.202,873.531l.841,69.845-43.244-.012.141-69.914.681-1.999c13.464.026,26.931.052,40.402.078l1.179,2.002h0Z"/>
      <path class="st6" d="M1265.78,943.391l-.006-69.946.687-1.995,38.303.276c1.768-.816,3.169-.613,4.201.612l.104,70.944"/>
      <path class="st8" d="M1308.041,814.494c.154-.433.425-.409.788-.034l.265,58.701c-.519.348-2.937,1.386-4.194,1.378l-38.998-.27-.152-59.982,42.291.207h0Z"/>
      <polygon class="st8" points="1198.068 813.466 1198.202 873.531 1155.94 873.45 1155.895 813.518 1198.068 813.466"/>
    </g>
  </g>
  <path class="st0" d="M1252,807.213l-40.103-.122c-2.701-.008-5.355,2.271-5.35,5.337l.261,144.794c.008,4.504,1.233,7.958,6.256,7.959l41.376.008c2.234,0,3.61-5.11,3.611-6.924l.075-144.827c.002-3.4-2.986-6.217-6.126-6.226h0ZM1244.822,952.944l-24.937.031v-.031h-.163v-133.272l24.937-.031v.031h.163v133.272Z"/>
  <metadata>
    <sfw xmlns="http://ns.adobe.com/SaveForWeb/1.0/">
      <slices/>
      <sliceSourceBounds x="124.24" y="235.3" width="1755.64" height="1075" bottomLeftOrigin="true"/>
    </sfw>
  </metadata>
</svg>