<?xml version="1.0" encoding="UTF-8"?>
<svg id="Layer_1" xmlns="http://www.w3.org/2000/svg" width="177.75" height="118.5" version="1.1" viewBox="0 0 177.75 118.5">
  <!-- Generator: Adobe Illustrator 30.1.0, SVG Export Plug-In . SVG Version: 2.1.1 Build 136)  -->
  <defs>
    <style>
      .st0 {
        fill: #eee3ca;
      }

      .st1 {
        fill: #29406f;
      }

      .st2 {
        fill: #8c3e3c;
      }
    </style>
  </defs>
  <path class="st0" d="M123.869,75.651c-.573-3.198-2.468-5.991-5.474-7.245-4.488-1.872-9.357-1.665-13.513.701-4.698,2.675-4.022,8.998-4.558,13.778-2.625-4.271-6.637-4.715-11.031-4.605-.164-.724-.159-1.297.023-2.066l7.534.16c.803.017,1.516.346,2.369.105.178-2.431.596-4.688.955-7.106.076-.511.676-1.568.093-1.926-3.08-.014-6.017-.021-9.051-.005l-12.409.067-.162,3.749c-2.453-3.341-6.663-4.104-10.399-4.139-4.434-.042-8.525,1.324-11.873,4.259.108,2.742.242,5.366.188,8.137-.014.684.286,1.298,1.034,1.353,1.282.094,2.598.131,3.894.116,2.812-.032,1.553-2.963,4.27-3.971.588-.218,1.125-.106,1.546.292.942.892-.051,3.72-.797,4.957-1.494,2.478-3.284,4.62-5.215,6.787l-6.226,6.989c-.189.213.218.73.223.98l.086,4.952,20.571-.092c.938-.004,1.188-.866,1.302-1.622.234-1.55,1.742-8.668.811-8.946-1.453-.435-1.837,1.565-3.498,1.825-1.593.25-3.145.253-4.932.12.98-1.52,2.265-2.453,3.416-3.708,1.749-1.908,3.488-3.665,4.852-5.844.334.803-.448,3.462.863,3.365l6.745-.501c1.264-.094,2.669.195,3.534,1.132,1.924,2.082.4,5.807-1.46,6.117-4.853.809-6.603-3.542-7.827-2.65-.317.231-.246.651-.257,1.062l-.246,8.604c7.256,2.906,18.558,3.462,22.066-5.693.884,2.543,2.396,4.804,4.779,6.059,5.24,2.758,13.809,1.953,16.704-4.099,1.009-2.109,1.582-4.241,1.726-6.607.304-5.024.229-9.903-.654-14.838ZM112.618,94.618c-.724-.039-1.269-.475-1.49-1.281-.898-3.268-.712-11.943-.304-15.472.127-1.104.603-3.064,1.802-3.04,1.855.037,2.047,4.438,2.053,5.927l.036,8.255c.007,1.552-.18,5.715-2.096,5.612Z"/>
  <path class="st0" d="M42.054,15.962c.15,2.409-.524,5.088.598,6.952l.851,1.414c-1.43.283-2.814.598-4.266.303.554-.799.977-1.313.886-2.136l-1.178-10.702c-.057-.516-.777-.663-.752-1.349l4.523-.401,2.801,5.213c.691-2.035,1.204-3.842,2.027-5.697,1.578-.175,3.014-.328,4.596-.163-.17.677-.692.844-.943,1.383l.936,11.577c.278.378.695.433.943,1.072-1.668.555-3.421.514-5.19.428l.562-1.592-.495-6.814-2.452,6.296-3.447-5.784Z"/>
  <path class="st0" d="M135.087,24.984c-2.095.198-4.202-.403-5.777-1.544-.402-.755-.046-1.805-.049-2.664,1.076.107,2.008.116,2.974.43-.008.651.042,1.265.402,1.532.398.296,1.042.389,1.6.211,1.101-.351,1.435-1.601,1.454-2.679.025-1.406-.784-2.431-2.192-2.586-1.085-.119-2.082.115-3.279.128.161-2.625.616-4.982,1.104-7.63l8.781.736-.839,3.625c-1.718-1.443-2.944-1.253-5.242-1.498-.312.853-.404,1.702-.253,2.624,1.62-.137,3.191.104,4.438,1.118,1.167.949,1.376,2.438,1.199,3.878-.277,2.253-1.816,4.083-4.321,4.32Z"/>
  <path class="st0" d="M126.839,23.968c-3.049-.348-6.256-.582-9.312-.736-.51-.636-.093-1.714.465-2.269l5.376-5.357c1.143-1.139,1.968-3.918.344-4.438-.423-.136-1.062-.154-1.388.411-.323.559-.283,1.199-.427,1.893-1.096.158-2.159.031-3.219.018-.52-2.075.807-3.829,2.885-4.144,1.997-.303,4.324-.263,5.853,1.253,1.43,1.418.97,3.805-.28,5.292-1.627,1.936-3.566,3.341-5.455,5.072,5.194.778,4.392-.955,5.433-.832.593.07-.088,2.645-.275,3.835Z"/>
  <path class="st0" d="M58.216,17.303c-.392,1.097.074,2.435.002,3.559,3.892.234,2.521-1.032,4.648-1.09l.052,3.255c-3.033.161-5.905.536-8.916.348.636-.789.771-1.324.723-2.127l-.598-10.001c-.05-.838-.399-1.315-.993-2.062l8.723-.564c.436,1.074.275,2.249.191,3.404-1.833-.047-1.206-1.739-4.368-.874-.059,1.299.036,2.364.173,3.571,1.007.263,1.847-.165,2.983-.534.236,1.054.305,2.165-.026,3.194-.685-.206-2.055-.783-2.593-.079Z"/>
  <path class="st0" d="M87.891,20.686c1.67.66,2.398-1.293,3.453-1.377.21.601.591,1.807.121,2.449-2.367,1.725-7.364,1.711-8.527-1.983-.887-2.816-.809-5.877.11-8.662,1.309-3.968,5.358-3.474,8.68-2.579.296,1.087.155,2.147.058,3.242-1.008.391-2.272-2.242-4.009-1.461-2,.899-1.621,6.847-1.224,8.774.165.799.689,1.34,1.338,1.597Z"/>
  <path class="st0" d="M81.08,22.42c-1.497.254-2.987.168-4.625.124-.154-.62.461-.833.453-1.323l-.203-11.658c-.26-.451-.643-.669-.761-1.374,1.743-.169,3.372-.216,5.064-.049.051.583-.684.855-.718,1.404l.21,11.215c.01.553.211.694.581,1.661Z"/>
  <path class="st2" d="M51.994,98.404c-1.733-.538-6.191,6.42-14.16.247,4.665-2.83,9.588-3.895,14.467-.97.136.082.281.354.298.456.023.136-.409.328-.604.267Z"/>
  <path class="st2" d="M126.174,98.112c3.653-3.321,10.981-2.404,14.595.624-2.11,1.832-4.877,2.646-7.664,2.45-4.348-.306-6.477-1.083-6.931-3.074"/>
  <path class="st0" d="M137.639,78.087l-3.679,2.374c.061-2.046.981-2.478,1.042-4.18l-3.218-2.59,4.154-.138,1.557-4.364,1.521,4.214,4.131.273-3.184,2.612,1.027,4.145c-1.13-.661-2.127-1.392-3.351-2.347Z"/>
  <path class="st0" d="M85.027,51.891l-45.308.537c9.402-1.163,18.878-1.517,28.474-1.608l17.258-.164c.006.461-.042.739-.423,1.234Z"/>
  <path class="st2" d="M147.425,91.467c-3.764,5.031-7.892,5.027-13.483,3.196,1.909-1.197,3.511-2.614,5.503-3.711,1.779-.98,5.893-.338,7.98.515Z"/>
  <path class="st2" d="M44.599,94.566l-3.241.8c-4.575,1.13-7.42-.059-10.476-3.966,2.207-.582,4.333-1.263,6.577-.839,2.813.532,4.424,3.091,7.14,4.004Z"/>
  <path class="st0" d="M137.599,52.71l-17.798-.545-24.02-.297c-.227-.392-.311-.7-.21-1.213,12.698.009,25.235.394,37.897,1.389,1.426.534,2.791-.335,4.131.665Z"/>
  <path class="st2" d="M131.418,103.179c-2.501,2.457-8.05,1.786-10.479-.76l1.908-1.763c.745-.688,1.096-1.481,2.24-1.197,2.349.584,4.576,1.918,6.332,3.72Z"/>
  <path class="st2" d="M52.966,95.208c-.599-.193-1.173-.193-1.748.018-3.005-.404-5.166-5.528-5.739-8.228,6.727.983,5.884,3.621,7.009,6.501.216.552.692.883.478,1.709Z"/>
  <path class="st2" d="M46.819,93.57c-1.086.594-1.785-.766-2.543-.708-.956.074-1.097-.026-1.754-.644-1.129-1.061-2.627-1.938-3.155-3.529-.444-1.337-.76-2.755-.596-4.162l2.216,1.27c.939.538,1.992.64,2.56,1.696l3.271,6.077Z"/>
  <path class="st2" d="M131.566,93.749l1.156-2.582c.574-1.283,1.268-2.465,2.082-3.603.428-.597,1.21-.504,1.834-.382.174-1.487,1.049-1.749,2.719-2.166-.234,1.404-.227,2.871-.949,4.166-1.377,2.467-3.792,4.18-6.842,4.568Z"/>
  <path class="st2" d="M145.263,86.901c-1.525,1.512-3.347,2.283-5.483,2.627,1.107-4.039,2.783-5.58,7.073-7.317.661.749-1.125,4.228-1.59,4.689Z"/>
  <path class="st2" d="M38.374,89.098c-.486.769-.979.118-1.449.008-3.29-.766-5.629-3.355-5.715-6.865,3.522.75,6.133,3.334,7.164,6.857Z"/>
  <path class="st2" d="M53.938,104.351c-1.59.88-4.335.586-5.938-.312-.458-1.428,1.113-2.827,2.308-3.222.606-.2,2.057-1.629,3.047-.832.456.367-.193.932-.132,1.293.163.968,1.221,1.838,2.008,2.357l-1.293.716Z"/>
  <path class="st2" d="M57.683,89.548c.417.574-2.728,3.462-3.299,3.822-1.05.662-1.892-4.673-1.68-5.194.09-.319.844-.071,1.116.045.44.187.038.773.561,1.209.278.232.197-.292.396-.427.837-.572,2.285-.308,2.906.546Z"/>
  <path class="st0" d="M65.191,108.196c.315.307.311,1.045.036,1.36-.514.332-12.128-1.13-11.339-.798-.102-.043-.209-.188-.139-.378.121-.33.466-.009.73-.013l10.711-.17Z"/>
  <path class="st0" d="M124.809,108.569l-11.995,1.042c-.088-.649-.009-1.015.04-1.51l11.956.469Z"/>
  <path class="st0" d="M105.17,111.072c-.914.152-1.956.18-2.916-.004-1.258-.86,3.004-3.034,1.572-4.082-.4-.292-.434.471-1.234.544-.261.024-.551-.473-.227-.856.486-.576,1.968-.675,2.627-.171,1.556,1.189-1.013,3.033-1.546,3.694.734.301,1.164-.073,1.881-.25.173.152.122,1.079-.158,1.126Z"/>
  <path class="st0" d="M96.374,111.13c-.92.083-2.133.17-3.061-.071-.757-.924,2.64-2.787,1.7-3.964-.523-.654-.558.417-1.339.407-.214-.003-.561-.486-.294-.802.584-.693,1.995-.624,2.744-.074,1.149.844-.438,2.597-1.439,3.448.602.496,1.184,0,1.77-.355.191.487.14,1.095-.08,1.411Z"/>
  <path class="st0" d="M72.831,111.05c.125-1.4.997-2.317,1.397-3.618.215-.699-1.527.197-1.826-.179-.15-.189-.132-.808.045-.894,1.014-.097,2.14-.097,3.301.022-.678,1.748-1.414,3.117-1.442,4.751-.605.043-1.026.132-1.475-.083Z"/>
  <path class="st0" d="M78.297,111.005c-.085.351-1.319.296-1.425-.008.113-1.208.83-2.406,1.457-3.546-.422-.548-1.018-.2-1.689.001-.235-.334-.156-.691-.107-1.181l3.044-.016c-.006,1.379-1.053,2.385-1.28,4.75Z"/>
  <path class="st0" d="M71.568,111.071c-.88.167-1.576.199-2.492.01.928-.553.568-3.322.542-3.386-.095-.234-.471-.063-.962-.338.578-.659,1.388-1.062,2.379-1.115l-.037,3.523c-.006.524.158.825.569,1.306Z"/>
  <circle class="st0" cx="88.699" cy="108.84" r="1.163"/>
  <circle class="st0" cx="92.767" cy="51.307" r="1.095"/>
  <circle class="st0" cx="88.338" cy="51.27" r="1.066"/>
  <path class="st2" d="M127.326,95.202c-.418.193-.729-.594-1.284-.269,1.641-4.236-1.536-4.47,3.643-7.194,1.023-.538,1.865-1.002,3.113-.634-1.151,3.266-1.847,6.419-5.473,8.097Z"/>
  <path class="st1" d="M63.928,88.58c1.546-2.221,3.293-4.382,4.614-6.815,1.015-1.869,1.238-4.773-.549-5.943-.952-.624-2.06-.541-3.004-.08-1.533.749-2.441,2.221-2.924,3.908-1.353.104-2.626.042-4.096-.032l-.162-7.716c4.527-3.504,10.335-4.352,15.664-2.604,2.633.864,4.47,2.81,4.852,5.646.431,3.202-.55,6.531-2.454,9.211-.988,1.391-2.078,2.981-3.521,3.872-1.922,1.186-4.342.777-6.479,1.33-.683.177-1.838.102-1.94-.776Z"/>
  <path class="st1" d="M90.493,68.806c.946.902-.58,1.919-1.558.991-.298.534-.321,1.167-.068,1.899l-.4.544c-.348-.013-1.107,8.116.051,7.385.8.208.434,2.338-.189,2.63.15.939-.171,1.926.222,2.825.488.125.453.324-.049.371-2.877-.584-5.815-.294-8.739.509.124-.855-.105-1.599-.047-2.34.227-2.911.089-5.742.19-8.681l.21-6.13c2.89-.021,5.718-.335,8.63-.128l1.748.124Z"/>
  <path class="st2" d="M122.926,92.085c-.242,1.435-.44,2.872-1.233,4.217l-9.192.131c-3.073.044-5.987.38-9.033.263-.577-1.408-1.021-2.719-1.104-4.363l7.023-.213c.37,1.712,1.176,3.823,2.999,3.927,2.328.132,3.098-1.802,3.434-4.037l7.107.075Z"/>
  <path class="st2" d="M80.887,96.595c-.263-1.015-.176-2.03.001-3.147l3.06,1.332c1.846.803,5.671.616,6.959-1.889l9.507-.278c-.276,1.717-.887,3.242-1.936,4.546l-9.975.101c-2.548.026-4.921-.234-7.616-.665Z"/>
  <path class="st2" d="M67,92.038l1.757.039c-.641.96-1.618,1.172-2.212,2.359,2.465.384,4.79.076,7.208.175,1.26.052,2.317-.391,3.236-1.229.037,1.045-.261,2.044-.438,3.177-4.038-.244-.87-.093-4.512-.265-4.037.165-.851.034-4.679.2-1.537-.025-1.119.003-3.891-.013-2.352.152-.948,0-4.618.214-1.619.065.587-.033-2.115.069-1.34.051,3.897-4.288,3.676-4.268l3.607-.324"/>
  <path class="st2" d="M121.309,72.538c-5.966-.335-11.606-.569-17.773-.233,2.155-4,8.895-4.344,12.735-3.34,1.923.692,3.779,1.462,5.038,3.574Z"/>
  <path class="st2" d="M88.501,85.451c-.021-.109.092-.273.049-.371,3.674.222,7.342-.066,11.143-.292.523,1.212.716,2.353.793,3.632-3.088.34-6.091.551-9.184.329-.613-1.343-1.375-3.008-2.801-3.298Z"/>
  <path class="st2" d="M88.745,68.682c.41.074-1.807-.068,1.748.117,2.738.194,5.514-.175,8.341.026-.12,1.361-.255,2.415-.504,3.558-3.131-.062-3.678.155-6.732.155-1.61,0-.464,0-3.277.046"/>
  <path class="st2" d="M109.234,80.651l-7.457.253c-.037-1.445.077-2.716.391-4.16,2.505-.237,4.892-.315,7.507-.242-.149,1.348-.444,2.327-.441,4.15Z"/>
  <path class="st2" d="M122.952,80.677l-7.156-.339-.518-4.14c2.471,0,4.755.037,7.163.433.331,1.389.492,2.618.51,4.046Z"/>
  <path class="st2" d="M109.189,88.125l-7.149.089c-.386-1.314-.287-2.538-.133-3.872l7.166-.158.117,3.941Z"/>
  <path class="st2" d="M123.314,88.095l-7.123.005.04-3.967c2.422-.007,4.628-.088,7.014.147l.069,3.815Z"/>
  <path class="st2" d="M74.112,100.676l-17.66-.148c.643-1.124,4.816-1.147,10.33-1.64l2.219-.017c1.421-.138,12.458,1.867,5.111,1.805Z"/>
  <path class="st2" d="M89.993,82.212c-.556-.019-1.111-.002-1.665.043-.144-.896-.105-1.797-.125-2.693,3.008-.042,7.004-.102,9.579,2.131-2.552.557-4.917.616-7.262.537"/>
  <path class="st2" d="M118.921,99.47c-2.773,2.534-9.707,2.241-12.043.424l12.043-.424Z"/>
  <path class="st2" d="M94.714,100.344c-4.221,1.676-9.312,1.404-13.712-.348,1.172-.25,2.284.009,3.498.042l10.214.306Z"/>
  <path class="st0" d="M72.194,16.784c1.639-.982,2.029-2.552,2.084-4.293.071-2.243-1.243-3.969-3.627-4.152-2.353-.18-4.738.04-7.3.304.676.755,1.117.988,1.158,1.848l.465,9.76c.048,1.003-.021,1.683-.875,2.569,1.979.175,3.549.164,5.342-.149-.478-.739-.897-.996-.918-1.674l-.09-2.899c-.014-.444.42-.434.641-.313-.039-.021,1.618,4.298,1.959,4.833,1.454.05,2.759.14,4.323-.114-1.245-1.907-2.188-3.683-3.162-5.719ZM70.328,14.807c-.177.673-1.767.936-1.913.389-.364-1.36-.488-2.887-.17-4.237.133-.563,1.672-.353,1.904.117.559,1.136.531,2.389.179,3.73Z"/>
  <path class="st0" d="M151.975,15.784c-.264-2.549-2.198-4.03-4.64-4.19-1.984-.13-3.84.493-4.809,2.457-1.242,2.518-1.502,5.562-1.245,8.369.23,2.513,2.089,3.864,4.591,4.104,2.179.209,3.897-.465,4.816-2.428,1.19-2.54,1.58-5.485,1.288-8.313ZM148.107,19.094c-.093,1.475-.133,5.752-2.222,5.469-.449-.061-1.125-.584-1.111-1.335.035-1.89.201-9.478,2.365-9.697,1.917-.195,1.311,4.379.969,5.562Z"/>
  <path class="st0" d="M38.746,24.829c-.809-.992-1.267-1.719-1.599-2.739l-2.882-8.862c-.283-.87-.343-1.502.061-2.521-2.377.308-4.536.349-6.748,1.184.632.634,1.14,1.042,1.036,1.866l-1.381,10.944c-.07.557-.76.848-.74,1.433,1.448.23,2.822.025,4.377-.406-1.037-.805-1.308-2.274-.543-3.149.658-.098,2.044-.559,2.67-.21,1.062.593.758,2.136.422,3.172,1.853-.073,3.473-.159,5.328-.712ZM30.281,20.145l.563-5.422,1.729,4.974c-.706.48-1.455.509-2.292.448Z"/>
  <path class="st0" d="M103.656,20.688l-2.094-10.237c-.158-.772-.051-1.26.543-2.035-2.299-.026-4.368-.211-6.628.043-.084.583.52.848.612,1.307l-2.611,11.195c-.143.615-.698.754-1.09,1.362,1.504.429,2.866.38,4.469.089-.868-.675-.988-2.514-.151-2.917.889-.428,2.07.057,2.875-.13.785,1.666-.32,2.539-.06,3.204.085.217,4.487.411,5.138-.072-.663-.634-.862-1.116-1.004-1.808ZM97.038,17.037c.331-1.689.545-3.158,1.197-4.903.483,1.637.771,3.279.983,4.992-.806.081-1.442.122-2.181-.089Z"/>
  <path class="st0" d="M100.401,106.447c-.761-.435-1.658-.363-2.258.091-.976.738-1.051,3.941.165,4.486.653.292,1.595.324,2.223-.104.915-.623.978-3.839-.13-4.473ZM99.599,110.521c-1.264,1.072-.892-5.156-.087-3.502.55,1.128.295,2.398.087,3.502Z"/>
  <path class="st0" d="M109.615,108.516c-.621-.803-2.907-.083-1.552-1.33.462-.426,1.22.213,1.445-.094.137-.187.135-.512-.009-.701-.163-.214-1.833-.426-2.573.383-.739.809-1.031,3.982.495,4.369.969.245,2.133.125,2.414-.941.17-.645.112-1.257-.219-1.686ZM108.343,110.446c-.625.28-.602-.55-.644-.808-.048-.298.221-1.111.671-.802.375.257.436,1.403-.027,1.611Z"/>
  <path class="st0" d="M83.571,108.328c-.374-.327-.984-.432-1.679-.075-.316-.264-.043-.635.081-.933.345-.827,1.847.331,1.674-.666-.109-.627-1.95-.682-2.702.123-.816.874-1.053,4.119.704,4.405.992.162,2.109-.046,2.34-1.175.131-.638.029-1.29-.418-1.681ZM82.314,110.432c-.697.119-.835-1.681-.049-1.678.535.001.704,1.567.049,1.678Z"/>
  <path class="st0" d="M60.587,75.876l-1.05.678c.017-.584.28-.707.298-1.193l-.919-.739,1.186-.039.445-1.246.434,1.203,1.179.078-.909.746.293,1.184c-.323-.189-.607-.397-.957-.67Z"/>
  <path class="st0" d="M42.404,77.96l-3.75,2.419c.062-2.085,1-2.526,1.062-4.26l-3.28-2.64,4.234-.141,1.587-4.449,1.551,4.295,4.211.279-3.245,2.663,1.046,4.225c-1.152-.674-2.168-1.419-3.416-2.392Z"/>
  <path class="st0" d="M51.353,82.843l-2.104,1.357c.035-1.17.561-1.417.596-2.39l-1.84-1.481,2.375-.079.89-2.496.87,2.41,2.362.156-1.821,1.494.587,2.371c-.646-.378-1.217-.796-1.916-1.342Z"/>
  <path class="st0" d="M18.225,21.961l-3.236,3.073c-.326-2.06.514-2.667.254-4.383l-3.713-1.985,4.134-.924.734-4.666,2.32,3.933,4.189-.507-2.695,3.219,1.812,3.958c-1.257-.448-2.394-.992-3.8-1.717Z"/>
  <path class="st0" d="M160.616,22.751l-4.093,1.779c.399-2.047,1.396-2.33,1.739-4.032l-2.809-3.137,4.201.548,2.287-4.132.834,4.49,4.11.958-3.634,2.101.348,4.339c-1.028-.852-1.91-1.752-2.983-2.915Z"/>
  <path class="st0" d="M110.584,17.469l-2.104,1.357c.035-1.17.561-1.417.596-2.39l-1.84-1.481,2.375-.079.89-2.496.87,2.41,2.362.156-1.821,1.494.587,2.371c-.646-.378-1.217-.796-1.916-1.342Z"/>
  <path class="st0" d="M128.931,82.245l-2.104,1.357c.035-1.17.561-1.417.596-2.39l-1.84-1.481,2.375-.079.89-2.496.87,2.41,2.362.156-1.821,1.494.587,2.371c-.646-.378-1.217-.796-1.916-1.342Z"/>
  <path class="st0" d="M64.651,72.373l-1.05.678c.017-.584.28-.707.298-1.193l-.919-.739,1.186-.039.445-1.246.434,1.203,1.179.078-.909.746.293,1.184c-.323-.189-.607-.397-.957-.67Z"/>
  <path class="st0" d="M69.818,72.658l-1.05.678c.017-.584.28-.707.298-1.193l-.919-.739,1.186-.039.445-1.246.434,1.203,1.179.078-.909.746.293,1.184c-.323-.189-.607-.397-.957-.67Z"/>
  <path class="st0" d="M73.514,76.364l-1.05.678c.017-.584.28-.707.298-1.193l-.919-.739,1.186-.039.445-1.246.434,1.203,1.179.078-.909.746.293,1.184c-.323-.189-.607-.397-.957-.67Z"/>
  <path class="st0" d="M72.557,81.58l-1.05.678c.017-.584.28-.707.298-1.193l-.919-.739,1.186-.039.445-1.246.434,1.203,1.179.078-.909.746.293,1.184c-.323-.189-.607-.397-.957-.67Z"/>
  <path class="st0" d="M69.818,86.741l-1.05.678c.017-.584.28-.707.298-1.193l-.919-.739,1.186-.039.445-1.246.434,1.203,1.179.078-.909.746.293,1.184c-.323-.189-.607-.397-.957-.67Z"/>
  <path class="st0" d="M84.596,72.658l-1.05.678c.017-.584.28-.707.298-1.193l-.919-.739,1.186-.039.445-1.246.434,1.203,1.179.078-.909.746.293,1.184c-.323-.189-.607-.397-.957-.67Z"/>
  <path class="st0" d="M84.596,81.58l-1.05.678c.017-.584.28-.707.298-1.193l-.919-.739,1.186-.039.445-1.246.434,1.203,1.179.078-.909.746.293,1.184c-.323-.189-.607-.397-.957-.67Z"/>
  <metadata>
    <sfw xmlns="http://ns.adobe.com/SaveForWeb/1.0/">
      <slices/>
      <sliceSourceBounds x="2622.53" y="3548.75" width="155.36" height="103.34" bottomLeftOrigin="true"/>
    </sfw>
  </metadata>
</svg>