<?xml version="1.0" encoding="UTF-8"?>
<svg id="Layer_1" xmlns="http://www.w3.org/2000/svg" width="2048" height="1536" version="1.1" viewBox="0 0 2048 1536">
  <!-- Generator: Adobe Illustrator 30.1.0, SVG Export Plug-In . SVG Version: 2.1.1 Build 136)  -->
  <defs>
    <style>
      .st0 {
        fill: #c9a24d;
      }

      .st1 {
        fill: #7a1f28;
      }

      .st2 {
        fill: #be4e31;
      }

      .st3 {
        fill: #e6dcc8;
      }
    </style>
  </defs>
  <path class="st0" d="M1023.035,541.401c-7.519-10.654-4.99-9.397-17.33-16.529,8.826-3.291,13.694-8.54,17.296-17.793,3.044,9.486,8.396,14.177,17.236,17.719l-9.448,5.268c-3.272,1.824-5.064,7.042-7.753,11.335h0Z"/>
  <path class="st1" d="M987.638,518.676l-29.473.772-32.646,1.289c-81.356,3.637-175.747,14.624-255.039,35.104l-32.104,8.292c3.334,1.443,6.24-.312,10.018-1.022,45.2-8.497,90.253-14.713,136.265-19.182,68.576-6.66,136.386-10.214,205.273-10.885l.145-14.074c-.326-.063-1.861-.307-2.44-.292v-.002Z"/>
  <path class="st1" d="M1406.267,562.11c-42.957-11.329-86.382-20.016-130.234-26.005l-33.252-4.085c-43.955-5.539-89.648-9.279-135.035-11.141-18.365-.754-36.843-1.489-55.089-1.031.057-.278-1.465,1.584-1.444,2.064l.489,11.654c104.106,1.001,207.372,5.502,309.788,22.645l57.316,9.594c-3.834-2.311-7.935-2.479-12.539-3.693v-.002Z"/>
  <path class="st0" d="M932.647,676.028c-51.875,1.685-102.795,4.195-153.993,11.113l-78.296,10.756-24.803,3.9c-.578.091-2.105-.112-2.013.323.098.459.298,1.221.43,1.647.133.429,1.844-1.101,2.477-1.181l23.935-3.022c86.558-10.93,173.427-18.709,261.182-18.717l122.905-.011,110.141,4.281c62.366,2.424,128.646,12.086,191.264,17.528-151.42-24.757-299.252-31.618-453.229-26.617Z"/>
  <polygon class="st0" points="1348.21 903.219 1314.083 927.396 1326.45 887.282 1292.366 861.899 1334.639 861.57 1347.842 821.118 1361.611 861.446 1403.601 861.76 1369.231 887.307 1381.609 927.326 1348.21 903.219"/>
  <polygon class="st0" points="702.937 903.159 668.918 927.255 681.33 887.169 646.587 861.641 689.212 861.333 702.275 821.123 715.869 861.32 758.689 861.67 724.048 887.27 736.712 927.096 702.937 903.159"/>
  <polygon class="st0" points="766.929 967.768 750.739 977.723 755.354 958.578 739.956 946.255 759.65 944.932 767.031 925.547 774.111 944.69 793.735 946.248 778.766 958.41 783.611 977.486 766.929 967.768"/>
  <polygon class="st0" points="1313.594 966.532 1301.037 973.267 1304.038 957.942 1292.892 948.327 1307.644 947.06 1313.86 931.649 1319.822 947.342 1335.335 948.193 1323.317 958.097 1326.309 973.516 1313.594 966.532"/>
  <path class="st0" d="M1171.139,1150.768c-39.547,3.606-77.693,5.208-116.676,6.425l-.86-7.952c41.874-.273,83.029-2.303,124.963-5.911l51.072-4.394c-12.429,6.397-42.601,10.383-58.499,11.833h0Z"/>
  <path class="st0" d="M996.162,1157.617l-37.688-1.356c-40.007-1.439-83.346-3.671-122.378-11.315-5.945-1.624-11.546-3.206-16.76-6.141,29.356,3.615,57.239,6.705,86.407,7.754l90.63,3.262-.21,7.795h0Z"/>
  <path class="st0" d="M1025.48,1170.792c-3.701-7.949-8.26-13.153-16.053-16.936,8.565-3.799,13.14-8.403,15.998-16.929,3.151,8.509,7.473,13.496,15.9,16.816-8.113,3.704-12.113,9.325-15.845,17.049h0Z"/>
  <path class="st0" d="M1386.67,1000.836c-11.58,18.41-28.844,26.996-50.659,31.559,8.109-11.931,14.126-23.392,17.423-36.958,2.956-12.161,9.332-22.064,18.782-30.216,8.252-6.105,17.182-10.775,27.903-14.166.329,17.86-4.964,34.565-13.449,49.781h0Z"/>
  <path class="st0" d="M1227.402,1089.938c20.071,2.497,44.577,5.363,61.91,18.261-29.519,11.726-59.515,6.813-85.362-14.39l32.803-10.799c14.562-4.794,29.461-5.854,44.465-2.755,12.125,4.031,22.799,10.837,31.991,20.809-18.167,2.631-37.679-10.092-54.728-13.419-10.273-2.005-20.84-2.855-31.08,2.293h.001Z"/>
  <path class="st0" d="M1409.633,1052.249c-16.823,13.555-38.981,16.9-58.901,9.116l-28.066-10.968,35.754-12.714c22.245-7.91,38.239-.073,59.068,8.237l-7.855,6.329Z"/>
  <path class="st0" d="M1334.734,1019.071c-10.348,21.342-32.074,34.83-55.51,40.194,10.997-11.064,18.884-23.624,23.506-38.486,3.599-11.573,10.103-20.925,19.97-28.004,6.41-4.285,13.169-7.603,20.487-10.163-.314,13.188-3.09,24.963-8.452,36.459h0Z"/>
  <path class="st0" d="M1364.343,1084.867c-22.722,11.342-39.573,10.665-60.094-2.029-10.381-6.421-20.791-9.796-33.246-11.865,25.214-12.292,51.72-13.65,74.77,1.604l18.57,12.29Z"/>
  <path class="st0" d="M1395.354,1022.429l-11.731-2.254c15.557-22.68,44.423-39.837,72.652-37.643-10.264,25.177-31.806,45.091-60.92,39.897h0Z"/>
  <path class="st0" d="M1242.233,1061.86c5.921-6.787,10.793-12.966,15.724-19.981,8.998-12.801,26.247-30.85,41.479-36.843-2.073,19.556-10.593,37.753-26.366,50.073-16.131,12.599-35.063,21.133-55.827,24.993l24.989-18.241h0Z"/>
  <path class="st0" d="M1447.911,939.297c-1.821,24.137-22.642,41.337-43.924,49.923l5.904-20.512c6.229-21.644,20.464-35.876,37.519-50.457.786,7.966,1.031,14.02.501,21.046h0Z"/>
  <path class="st0" d="M1149.234,1120.428l-26.496-.062c-1.717-10.717,17.422-19.892,16.122-37.761-.121-1.67-3.21-4.18-4.778-4.075s-4.295,2.285-4.775,3.779l-1.113,3.458c-.297.922-3.449.466-4.599.229l.191-9.283c4.56-3.077,10.111-4.113,15.607-3.528,6.423.684,10.875,5.777,10.239,12.618-.425,4.572-2.71,9.749-5.691,13.257l-11.474,13.499,12.154-.178,5.013-5.078-.401,13.125h0Z"/>
  <path class="st0" d="M1082.638,1120.394l-26.352-.082c-.032-2.278.304-5.671,1.53-7.33,4.597-6.223,8.433-11.611,12.157-18.29,3.125-5.605,3.528-15.984-1.806-16.125-5.736-.152-5.983,7.271-6.855,7.297l-4.017.123c-.043-2.876.081-6.602.422-9.89,5.106-2.509,10.824-3.473,16.178-2.658,6.383.972,10.062,6.687,9.145,13.156-.896,6.325-4.849,11.757-8.973,16.622l-7.752,9.144c15.348,1.347,9.597-.4,16.603-4.223l-.278,12.254-.002.002Z"/>
  <path class="st0" d="M933.086,1120.204c.472-14.815,6.475-25.28,12.71-38.493-19.211-1.181-8.298,3.247-17.701,4.625l.531-12.709,25.112.238c.078,3.823-.997,6.464-2.425,9.759-5.051,11.65-7.104,23.354-8.526,36.349-2.937.274-5.575.315-9.701.23h0Z"/>
  <path class="st0" d="M902.285,1120.227c1.123-8.808,2.622-15.768,5.93-23.083l6.767-14.963c-18.039-2.961-9.386,4.664-17.329,3.948l.326-12.435,25.492.159c-.469,3.623-1.165,6.262-2.557,9.372-5.33,11.916-7.478,23.888-8.839,37.027l-9.791-.024h0Z"/>
  <path class="st0" d="M874.926,1120.126l4.423-5.083-.214-32.207-5.077,1.826c-.946.34-2.505-1.791-2.894-3.051l10.251-7c1.583-1.081,5.61-.76,7.784-.459l.062,41.411,3.891,4.605-18.227-.041h.001Z"/>
  <path class="st0" d="M1022.534,1109.616c-2.095-.709-6.703,2.077-9.107,2.979.77-7.32-.086-12.239-6.504-16.921l10.708-5.17c1.939-.936,4.051-4.782,6.059-7.393,2.906,6.912,6.897,10.72,14.648,12.377-6.416,4.774-8.326,10.005-6.958,17.121l-8.845-2.993h-.001Z"/>
  <path class="st0" d="M1116.976,1084.127h0c-1.673-6.557-6.006-10.894-11.99-11.162-6.146-.276-11.663,2.743-14.027,9.074-4.2,11.247-5.237,38.906,12.114,39.36,17.517.458,16.988-25.173,13.902-37.272ZM1103.919,1116.685c-1.252.327-3.681-2.178-3.874-3.556-.794-5.68-3.621-35.6,4.099-35.357,1.253.039,3.473,2.432,3.594,3.778h0c.559,6.241,2.65,33.447-3.818,35.135Z"/>
  <path class="st0" d="M1180.157,1092.16c-3.988-3.325-8.662-2.13-13.997-.685h0c-.997-6.826,4.302-14.6,7.756-13.006,6.055,2.794,2.592,3.371,6.941,3.693.983.073,1.685-6.247.743-7.051-2.935-2.504-19.208-5.141-23.934,9.454-2.944,9.091-3.423,19.25-.158,28.381,2.494,6.974,9.486,9.439,16.199,8.048,6.419-1.33,10.524-7.058,10.871-14.375.242-5.107-.338-11.055-4.421-14.459ZM1170.955,1116.882c-5.861-.262-6.831-21.381-.822-21.337,6.325.045,5.6,21.551.822,21.337Z"/>
  <path class="st0" d="M984.18,1094.064c-3.281-5.061-9.885-4.761-14.92-2.318h0c-1.197-4.581-.238-11.402,5.764-13.088,1.979-.555,4.821,2.224,8.074,4.094.84-1.962,1.257-5.377.761-7.578-8.546-4.511-19.824-1.345-23.314,8.426-3.573,10.005-4.127,21.706.99,31.44,4.103,7.805,16.52,8.514,21.878,1.668,5.018-6.412,5.022-16.082.768-22.644ZM973.057,1116.893c-5.311-.152-4.045-14.93-4.149-18.733,1.616-1.221,3.052-2.258,4.112-2.752h0c4.813-2.246,6.283,21.664.036,21.485Z"/>
  <path class="st0" d="M711.923,1031.562c-6.628-.226-12.109-2.989-17.969-5.505-31.001-13.309-42.865-42.011-44.59-75.03,23.183,7.411,40.907,20.082,46.874,44.828,2.706,12.864,7.43,23.654,15.685,35.707Z"/>
  <path class="st0" d="M760.617,1107.994c17.914-12.906,41.489-16.137,61.975-16.852-8.169-3.945-16.463-4.566-25.106-3.937-24.732,1.799-39.156,16.452-61.628,13.781,24.526-25.747,53.572-27.317,84.348-14.937,8.201,3.299,16.298,5.067,25.224,7.991-23.91,18.338-55.66,27.473-84.812,13.954h0Z"/>
  <path class="st0" d="M695.665,1062.403c-22.375,8.111-46.894.26-63.712-16.734l20.472-8.167c25.259-9.18,49.993,3.163,73.434,13.955l-30.194,10.946h0Z"/>
  <path class="st0" d="M770.118,1059.215c-10.286-1.163-18.398-5.646-26.928-10.197-25.788-13.759-36.522-38.396-36.99-66.659,18.724,5.666,32.212,18.974,38.896,36.703,5.701,15.12,13.219,28.294,25.021,40.154h0Z"/>
  <path class="st0" d="M722.859,1092.357c-13.408,1.369-25.573-1.336-37.122-8.169l17.729-11.606c24.683-13.818,47.04-14.931,73.179-1.354-25.21,3.96-31.58,15.027-53.786,21.129h0Z"/>
  <path class="st0" d="M786.742,1036.502c18.764,23.515,16.961,23.801,44.002,43.706-26.3-4.657-50.862-18.298-67.57-38.939-8.712-10.763-12.845-24.153-14.709-38.025,16.099,7.894,27.624,19.909,38.277,33.259h0Z"/>
  <path class="st0" d="M602.049,918.131c25.673,22.957,36.137,37.343,43.403,71.022-30.865-11.967-50.164-36.792-43.403-71.022Z"/>
  <path class="st0" d="M665.432,1020.251l-12.125,2.105c-28.443,4.937-49.799-14.87-60.37-39.864,27.112-3.23,57.438,15.547,72.495,37.76h0Z"/>
  <path class="st2" d="M654.629,1015.307c-4.167-.934-7.583-2.391-10.106-5.426,4.016,1.138,7.205,2.854,10.106,5.426Z"/>
  <path class="st2" d="M633.291,1004.63l-3.806-1.717c1.353-.025,2.588.56,3.806,1.717Z"/>
  <path class="st2" d="M641.378,1008.503c-1.484-.007-3.471-1.122-4.852-2.697l4.852,2.697Z"/>
  <circle class="st2" cx="656.062" cy="1016.158" r=".499"/>
  <circle class="st2" cx="635.062" cy="1005.158" r=".499"/>
  <circle class="st2" cx="643.062" cy="1009.158" r=".499"/>
  <path class="st3" d="M955.537,1021.054l.373-51.61,28.797,2.258c2.238,8.847,4.652,18.576,12.771,24.229,9.594,6.679,23.777,6.476,33.918.699,18.001-10.256,19.629-40.185,11.992-58.52-4.231-10.158-12.726-16.45-23.019-19.471-9.661-2.295-19.116-2.295-29.089-1.656l-35.366,6.517,6.012-122.803,133.932.107-4.222,42.386-94.501-1.887-3.106,38.218c43.243-12.337,97.997.043,109.404,49.164,4.096,17.636,3.608,35.879-1.621,53.256-5.378,17.874-17.638,31.602-33.951,40.167-32.71,17.175-77.831,12.928-112.326-1.051l.002-.003Z"/>
  <path class="st3" d="M791.297,1027.809l-1.965-26.245,36.591-37.571c16.978-17.433,30.926-36.691,43.45-57.536,10.414-17.333,18.906-47.053,3.09-62.738-12.043-11.943-33.474-10.39-44.272,2.374-7.659,9.054-9.335,19.824-10.202,31.937l-31.263-.119-4.481-48.112c29.455-21.232,59.56-35.372,96.334-33.044,31.75,2.01,58.39,18.196,62.132,51.892,2.442,21.996-3.475,43.043-15.713,61.622-8.417,12.811-17.85,24.215-29.169,34.683l-42.883,39.657,55.307-2.057c5.685-3.489,9.618-9.482,13.487-14.947l23.945.626-8.035,57.823-146.352,1.755h-.001Z"/>
  <path class="st3" d="M1269.594,842.581c-7.414-19.067-22.329-33.078-41.951-38.887-20.836-6.168-42.831-6.696-63.557-.661-50.039,14.572-52.098,68.981-52.151,112.64-.024,19.487,1.342,38.252,5.558,57.195,6.423,28.862,22.765,52.172,53.465,58.82h0c18.175,3.936,35.834,3.688,53.359-.389,22.474-5.229,39.526-21.277,46.957-42.907,4.119-11.99,6.39-23.821,7.509-36.676,2.805-32.217,2.567-78.901-9.189-109.135ZM1222.789,975.734h0c-1.972,16.077-7.247,33.934-26.148,33.605-8.8-.153-16.257-4.457-20.007-12.791-5.059-11.244-6.965-23.568-7.73-36.11-1.677-27.474-2.002-77.756.853-104.643.994-9.358,3.581-18.453,9.087-25.82,3.826-5.119,10.644-6.105,16.641-6.221,21.6-.418,26.043,22.793,27.595,40.369,2.296,25.988,2.829,86.166-.292,111.611Z"/>
  <path class="st0" d="M770.91,447.412l1.676,42.164c.068,1.719,2.135,3.753,3.936,4.147,1.035.518,2.187,1.587,2.255,2.357s-1.652,1.905-2.516,1.978l-16.42,1.395c-.364-.104-1.288-2.134-.869-2.409l2.534-1.66c1.551-1.016,3.327-3.338,3.21-5.668l-2.617-52.059c-.348-6.931-1.853-4.143-6.106-7.522-.464-.368,1.2-2.386,1.838-2.441l20.47-1.777,18.661,41.998,13.458-45.007,21.481-1.959c3.938,5.097-5.338,2.138-4.527,10.638l5.065,53.063c.44,4.611,5.61,3.835,5.559,4.937l-.142,3.052-25.912,1.839.19-3.536c3.806-.927,4.935-3.169,4.667-6.193l-3.767-42.527-15.178,47.858c-2.345.681-5.155,1.042-7.465.836l-19.483-43.505h.002Z"/>
  <path class="st0" d="M863.342,457.628l.984,25.463c11.357-.668,22.366,2.391,25.351-9.425.861-.374,3.867-.497,4.869-.347l.395,16.04-50.02,2.677c-1.276.068-1.101-3.676-.103-3.937,2.692-.703,4.305-3.486,4.154-6.371l-2.715-51.921c-.325-6.213-3.127-3.802-5.877-6.704-.418-.441.84-2.601,1.968-2.659l47.543-2.424c.512,5.266.783,10.711.679,15.604-5.835,3.047-4.683-7.82-10.691-7.508l-18.056.939.931,22.853c21.307.897,12.15-4.448,21.353-5.904l.725,18.038c-9.415-1.705.934-6.701-21.488-4.414h-.002Z"/>
  <path class="st0" d="M1251.345,500.71c-10.836,1.222-21.983.133-30.746-6.315-2.291-1.686,2.042-11.019,3.932-12.435,1.19-.891,5.173-.61,5.568.871.843,3.161,3.095,7.952,5.343,9.601,3.035,2.227,7.752,3.054,11.159,1.578,5.751-2.492,8.075-8.349,8.399-14.32.418-7.707-3.737-14.102-11.373-16.356-5.618-1.658-11.665-1.131-18.658-.786l6.731-35.74c11.983,2.699,24.296,6.471,36.217,4.216l7.04-1.332-5.359,14.254-33.001-3.058-3.291,13.824c9.995-1.828,18.514-1.424,27.077,2.314,8.36,3.65,12.558,11.644,11.974,20.696-.754,11.696-8.539,21.582-21.014,22.988h.002Z"/>
  <path class="st0" d="M1214.084,475.902l-3.705,20.606-53.219-4.694c12.102-14,42.546-35.208,36.044-55.357-1.644-5.094-6.457-7.639-11.11-7.278-4.704.365-8.262,3.693-9.116,9.553l-10.248-2.29c1.476-4.356,3.46-8.84,7.215-11.15,10.243-6.299,31.368-5.288,38.408,5.454,4.99,7.615,3.545,17.736-1.918,24.861-9.379,12.232-15.163,15.078-25.814,27.316,36.413,6.788,20.145-8.981,33.464-7.022h0Z"/>
  <path class="st0" d="M1037.958,480.846c15.526-.554,7.691-13.838,18.109-11.009l.007,13.655c-9.345,3.76-19.166,5.56-29.291,3.778-24.856-4.376-28.33-33.615-22.805-51.115,7.464-23.638,31.603-25.318,51.868-18.825l-.178,16.758-5.182-.272c-1.462-3.526-3.032-7.916-5.947-10.242-4.042-3.225-10.134-2.877-15.049-.838-3.344,1.387-7.233,5.855-8.587,10.653-3.79,13.433-5.197,48.252,17.055,47.458h0Z"/>
  <path class="st0" d="M995.057,486.855l-24.032-.011c-.687,0-1.814-2.466-1.313-2.737l2.2-1.187c1.343-.725,3.487-2.627,3.466-4.278l-.676-53.035c-.038-2.959-1.681-4.803-4.085-6.173l-2.156-1.229c-.509-.29.891-2.723,1.591-2.721l25.031.065c.515.001,1.417,2.43.988,2.667l-2.519,1.387c-1.847,1.017-3.614,3.479-3.579,5.954l.752,52.183c.025,1.715,1.7,4.158,2.925,4.691l2.526,1.1c.674.293-.309,3.323-1.12,3.323h0Z"/>
  <path class="st0" d="M1493.792,478.714l-114.553-8.808c-4.248-.327-9.007-.956-9.519-6.617-.169-1.875,3.784-3.089,6.137-2.761l121.03,16.854c3.749.522,6.566.941,9.87,1.728-4.638,1.167-7.918-.007-12.965-.395h0Z"/>
  <path class="st0" d="M667.659,469.64l-71.079,5.018-63.163,4.962c2.158-.971,4.394-1.077,7.264-1.555,41.978-6.987,83.318-13.249,125.708-17.505,1.586-.159,5.459,1.162,5.422,2.517-.052,1.895-2.159,4.498-4.152,6.562h0Z"/>
  <path class="st0" d="M668.799,487.92l-119.39,5.497c39.038-6.871,78.135-11.567,117.991-14.395,2.072-.147,4.348,2.132,4.908,3.456.63,1.49-1.205,5.336-3.508,5.442h-.001Z"/>
  <path class="st0" d="M1480.988,493.567l-108.447-5.697c-2.115-.111-4.532-3.063-4.532-4.639s2.707-4.491,4.771-4.347c36.825,2.58,72.58,7.118,108.986,12.589.571.716.317,1.493-.778,2.094h0Z"/>
  <path class="st0" d="M965.173,482.395c-3.295-.674-6.932-2.737-8.753-5.636l-13.747-21.888c2.567-1.656,6.364-3.532,8.321-5.729,6.131-6.882,6.491-17.8,1.141-25.117-8.925-12.207-38.155-5.836-52.033-6.418l.083,2.856c.021.717,5.128.814,5.303,6.144l1.715,52.132c.089,2.7-1.515,4.913-3.41,6.149l-1.939,1.265c-.442.289.707,2.61,1.504,2.588l24.993-.69.229-3.49c.029-.455-5.792-.408-5.908-4.889l-.542-20.996h0c.946-.588,4.462-1.209,5.316-.396,4.047,3.85,10.148,19.837,17.185,27.226,3.729,3.915,25.337,3.197,20.543-3.111ZM936.522,447.826h0c-3.886,4.482-9.518,4.078-14.645,3.798l-.795-27.362c5.232-1.115,11.493-1.82,15.539,2.496,4.889,5.214,4.769,15.451-.099,21.068Z"/>
  <path class="st0" d="M1343.665,459.534c-3.342-15.309-15.92-23.83-31.105-24.316-12.367-.396-23.117,4.735-27.607,16.882-4.79,12.958-5.356,28.071.184,41.124,4.711,11.098,15.671,16.795,27.374,17.691,11.216.859,22.304-3.51,27.436-14.248h0c5.668-11.859,6.372-24.977,3.719-37.133ZM1314.007,504.77c-19.628.917-15.378-39.905-11.35-53.565,1.734-5.879,5.822-9.826,11.392-9.594,4.92.206,9.923,3.683,11.309,9.542,2.93,12.382,4.971,52.854-11.351,53.617Z"/>
  <path class="st0" d="M1128.868,487.177l-2.425-1.453c-1.308-.784-3.201-2.685-3.76-4.427l-21.092-65.682c-5.705.799-10.899,1.918-15.96,3.224-1.088.381.939,3.868.476,5.172l-19.302,54.297c-1.049,2.948-3.001,4.641-5.333,5.517-.891.335-1.749,3.427-.74,3.466l19.536.763c.757.03,2.189-2.824,1.602-3.043l-2.626-.977c-7.115-2.648-.968-12.191.883-19.137v-.002s21.615.714,21.615.714l4.703,14.619c.671,2.083-1.491,4.302-3.822,4.997-.703.21-1.747,1.372-1.87,2.049s1.644,1.655,2.382,1.687l23.291,1.021c1.033.045,3.172-2.368,2.442-2.805ZM1082.133,458.476l8.893-27.038,8.601,27.32-17.494-.282Z"/>
  <path class="st0" d="M755.807,496.422c-2.014-.476-4.947-3.021-5.954-5.338l-26.23-60.366c-6.254,1.448-11.076,3.132-16.6,5.248,3.638,4.273,2.015,6.555,1.046,10.283l-13.791,53.069c-1.465,5.64-8.658,5.595-4.757,9.001l19.894-2.502.184-2.592c.047-.668-7.348-1.187-6.482-5.338l3.278-15.717,21.78-2.37,6.341,15.136c.641,1.53-2.682,3.962-3.868,4.806l-1.784,1.269c-.373.266.872,2.002,1.374,1.947l25.714-2.822c.994-.109.763-3.499-.145-3.714ZM708.03,475.774l6.832-27.431,10.627,25.041-17.459,2.39Z"/>
  <metadata>
    <sfw xmlns="http://ns.adobe.com/SaveForWeb/1.0/">
      <slices/>
      <sliceSourceBounds x="533.42" y="365.21" width="973.34" height="756.73" bottomLeftOrigin="true"/>
    </sfw>
  </metadata>
</svg>