<?xml version="1.0" encoding="UTF-8"?>
<svg id="Layer_1" xmlns="http://www.w3.org/2000/svg" width="2048" height="1536" version="1.1" viewBox="0 0 2048 1536">
  <!-- Generator: Adobe Illustrator 30.1.0, SVG Export Plug-In . SVG Version: 2.1.1 Build 136)  -->
  <defs>
    <style>
      .st0 {
        fill: #eee3ca;
      }

      .st1 {
        fill: none;
      }

      .st2 {
        fill: #29406f;
      }

      .st3 {
        fill: #8c3e3c;
      }
    </style>
  </defs>
  <path class="st0" d="M1288.284,937.101c-4.406-24.605-18.989-46.1-42.119-55.748-34.533-14.405-71.999-12.812-103.98,5.396-36.151,20.582-30.946,69.235-35.071,106.016-20.202-32.865-51.069-36.282-84.877-35.435-1.259-5.569-1.22-9.982.175-15.895l57.972,1.231c6.179.132,11.661,2.663,18.229.814,1.369-18.708,4.589-36.071,7.35-54.684.584-3.933,5.199-12.065.716-14.819-23.7-.106-46.303-.161-69.644-.035l-95.484.516-1.25,28.847c-18.877-25.709-51.267-31.576-80.019-31.852-34.116-.327-65.595,10.187-91.358,32.772.829,21.098,1.863,41.29,1.444,62.609-.104,5.266,2.202,9.989,7.957,10.409,9.866.721,19.99,1.005,29.963.89,21.635-.25,11.951-22.8,32.858-30.556,4.522-1.678,8.658-.817,11.893,2.245,7.25,6.863-.395,28.624-6.133,38.141-11.493,19.063-25.268,35.547-40.127,52.226l-47.905,53.774c-1.458,1.636,1.679,5.62,1.713,7.541l.666,38.101,158.29-.706c7.218-.032,9.139-6.661,10.016-12.476,1.798-11.925,13.403-66.696,6.242-68.839-11.182-3.346-14.136,12.042-26.918,14.044-12.261,1.92-24.203,1.951-37.952.92,7.542-11.692,17.429-18.876,26.281-28.534,13.459-14.684,26.838-28.197,37.331-44.966,2.571,6.176-3.443,26.638,6.642,25.889l51.905-3.855c9.723-.723,20.534,1.501,27.195,8.708,14.805,16.02,3.081,44.683-11.234,47.068-37.345,6.222-50.81-27.253-60.229-20.391h0c-2.438,1.776-1.891,5.013-1.981,8.17l-1.893,66.203c55.836,22.365,142.801,26.64,169.793-43.802,6.801,19.567,18.43,36.968,36.77,46.62,40.325,21.223,106.258,15.029,128.53-31.541,7.761-16.229,12.174-32.634,13.276-50.84,2.34-38.657,1.767-76.2-5.033-114.176ZM1201.704,1083.052c-5.566-.3-9.762-3.658-11.466-9.86-6.908-25.145-5.479-91.898-2.341-119.051.982-8.494,4.64-23.577,13.865-23.392,14.271.287,15.749,34.152,15.799,45.604l.273,63.517c.051,11.944-1.383,43.977-16.13,43.182Z"/>
  <ellipse class="st1" cx="1024" cy="768" rx="806.25" ry="537.5"/>
  <ellipse class="st1" cx="1024" cy="768" rx="806.25" ry="537.5"/>
  <path class="st0" d="M658.741,477.818c1.154,18.535-4.032,39.154,4.602,53.496l6.55,10.88c-11.006,2.176-21.651,4.6-32.828,2.331,4.266-6.145,7.515-10.102,6.817-16.436l-9.065-82.351c-.437-3.974-5.977-5.101-5.785-10.382l34.801-3.089,21.55,40.109c5.316-15.657,9.264-29.565,15.6-43.837,12.141-1.347,23.194-2.522,35.364-1.255-1.306,5.206-5.327,6.492-7.252,10.645l7.199,89.081c2.136,2.912,5.347,3.336,7.257,8.252-12.832,4.267-26.324,3.958-39.932,3.295l4.324-12.25-3.809-52.43-18.869,48.447-26.525-44.506h.001Z"/>
  <path class="st0" d="M1374.599,547.235c-16.121,1.524-32.332-3.1-44.451-11.883-3.091-5.813-.353-13.892-.38-20.501,8.279.822,15.455.891,22.886,3.307-.063,5.01.326,9.73,3.096,11.79,3.065,2.279,8.016,2.994,12.31,1.625,8.469-2.7,11.041-12.321,11.191-20.617.196-10.82-6.032-18.707-16.868-19.9-8.346-.919-16.023.884-25.23.983,1.236-20.196,4.742-38.334,8.498-58.709l67.567,5.661-6.456,27.895c-13.223-11.106-22.65-9.643-40.333-11.523-2.403,6.56-3.11,13.093-1.949,20.191,12.468-1.055,24.555.802,34.147,8.603,8.979,7.303,10.586,18.762,9.224,29.84-2.131,17.333-13.972,31.416-33.252,33.238Z"/>
  <path class="st0" d="M1311.137,539.424c-23.458-2.678-48.139-4.48-71.655-5.662-3.926-4.895-.713-13.188,3.577-17.462l41.365-41.217c8.796-8.765,15.142-30.145,2.65-34.146-3.257-1.043-8.173-1.187-10.682,3.161-2.484,4.304-2.174,9.227-3.283,14.569-8.435,1.214-16.616.24-24.768.142-4.003-15.963,6.212-29.464,22.2-31.887,15.367-2.329,33.27-2.023,45.038,9.643,11.007,10.913,7.462,29.281-2.155,40.723-12.519,14.894-27.438,25.706-41.975,39.031,39.97,5.99,33.799-7.348,41.808-6.405,4.566.537-.676,20.351-2.118,29.511h-.002Z"/>
  <path class="st0" d="M783.102,488.137c-3.013,8.443.569,18.736.015,27.383,29.947,1.802,19.4-7.94,35.765-8.388l.401,25.05c-23.34,1.243-45.435,4.123-68.607,2.678,4.895-6.074,5.936-10.191,5.566-16.369l-4.605-76.951c-.386-6.445-3.071-10.117-7.638-15.866l67.117-4.341c3.352,8.264,2.113,17.303,1.468,26.19-14.108-.358-9.277-13.384-33.607-6.727-.454,9.995.274,18.188,1.33,27.48,7.745,2.025,14.215-1.271,22.95-4.111,1.813,8.111,2.345,16.659-.201,24.577-5.268-1.585-15.815-6.025-19.956-.606h.002,0Z"/>
  <path class="st0" d="M1011.441,514.169c12.849,5.082,18.449-9.952,26.568-10.598,1.612,4.625,4.55,13.907.929,18.847-18.21,13.275-56.665,13.162-65.614-15.259-6.824-21.671-6.225-45.218.845-66.652,10.071-30.532,41.226-26.729,66.79-19.842,2.28,8.366,1.189,16.523.449,24.945-7.758,3.007-17.48-17.251-30.847-11.24-15.388,6.919-12.473,52.683-9.417,67.511,1.268,6.15,5.302,10.312,10.297,12.288h0Z"/>
  <path class="st0" d="M959.037,527.513c-11.521,1.952-22.987,1.295-35.585.954-1.185-4.771,3.548-6.413,3.482-10.18l-1.566-89.707c-2.001-3.469-4.947-5.15-5.853-10.571,13.408-1.298,25.949-1.664,38.964-.376.393,4.483-5.267,6.579-5.527,10.804l1.616,86.292c.08,4.256,1.622,5.342,4.468,12.785h0Z"/>
  <path class="st3" d="M735.228,1112.185c-13.334-4.142-47.64,49.398-108.958,1.901,35.894-21.779,73.773-29.969,111.315-7.464,1.049.629,2.161,2.721,2.292,3.505.175,1.047-3.146,2.525-4.649,2.058Z"/>
  <path class="st3" d="M1306.014,1109.935c28.11-25.557,84.495-18.499,112.301,4.802-16.236,14.097-37.526,20.357-58.97,18.85-33.459-2.352-49.839-8.333-53.331-23.651"/>
  <path class="st0" d="M1394.239,955.85l-28.311,18.265c.468-15.74,7.55-19.067,8.019-32.161l-24.761-19.927,31.963-1.063,11.98-33.583,11.706,32.427,31.788,2.104-24.499,20.102,7.9,31.897c-8.698-5.086-16.369-10.711-25.787-18.061h.002Z"/>
  <path class="st0" d="M977.481,771.339l-348.633,4.136c72.347-8.951,145.258-11.67,219.1-12.371l132.791-1.261c.045,3.544-.326,5.684-3.257,9.495h-.001Z"/>
  <path class="st3" d="M1469.535,1058.802c-28.961,38.711-60.728,38.678-103.745,24.593,14.692-9.213,27.018-20.112,42.34-28.556,13.689-7.544,45.347-2.598,61.405,3.963Z"/>
  <path class="st3" d="M678.323,1082.653l-24.94,6.158c-35.2,8.692-57.096-.456-80.608-30.515,16.979-4.482,33.338-9.721,50.609-6.453,21.645,4.096,34.038,23.785,54.938,30.809h.001Z"/>
  <path class="st0" d="M1382.004,777.641l-136.951-4.191-184.826-2.282c-1.75-3.015-2.39-5.386-1.617-9.331,97.707.069,194.177,3.03,291.608,10.685,10.976,4.109,21.473-2.575,31.786,5.12h0Z"/>
  <path class="st3" d="M1346.364,1148.922c-19.244,18.909-61.943,13.742-80.635-5.851l14.68-13.562c5.73-5.294,8.435-11.397,17.233-9.211,18.074,4.491,35.211,14.76,48.722,28.624h0Z"/>
  <path class="st3" d="M742.704,1087.588c-4.61-1.487-9.027-1.484-13.449.14-23.124-3.112-39.753-42.536-44.157-63.313,51.76,7.566,45.272,27.865,53.931,50.025,1.66,4.249,5.325,6.796,3.675,13.148h0Z"/>
  <path class="st3" d="M695.408,1074.988c-8.356,4.572-13.736-5.897-19.565-5.447-7.353.567-8.442-.203-13.498-4.953-8.687-8.162-20.214-14.913-24.275-27.156-3.414-10.29-5.851-21.2-4.588-32.029l17.053,9.773c7.226,4.141,15.33,4.926,19.701,13.047l25.172,46.764h0Z"/>
  <path class="st3" d="M1347.505,1076.359l8.892-19.869c4.417-9.87,9.754-18.969,16.022-27.72,3.291-4.595,9.31-3.875,14.112-2.942,1.34-11.439,8.069-13.458,20.923-16.669-1.8,10.8-1.745,22.091-7.305,32.054-10.595,18.986-29.177,32.161-52.645,35.147h.001Z"/>
  <path class="st3" d="M1452.903,1023.669c-11.734,11.634-25.757,17.566-42.188,20.218,8.521-31.078,21.416-42.938,54.421-56.299,5.089,5.761-8.656,32.534-12.234,36.081h0Z"/>
  <path class="st3" d="M630.428,1040.572c-3.739,5.918-7.532.908-11.151.065-25.319-5.892-43.317-25.817-43.974-52.827,27.099,5.768,47.191,25.656,55.126,52.761h0Z"/>
  <path class="st3" d="M750.188,1157.94c-12.235,6.774-33.358,4.509-45.693-2.399-3.523-10.988,8.566-21.754,17.761-24.795,4.66-1.541,15.829-12.532,23.447-6.403,3.506,2.821-1.484,7.174-1.016,9.953,1.255,7.45,9.393,14.146,15.452,18.135l-9.951,5.51h0Z"/>
  <path class="st3" d="M779.003,1044.038c3.211,4.417-20.988,26.637-25.381,29.407-8.08,5.094-14.558-35.956-12.927-39.966.693-2.455,6.491-.549,8.59.345,3.384,1.442.29,5.945,4.314,9.304,2.142,1.788,1.519-2.244,3.046-3.287,6.441-4.4,17.583-2.372,22.359,4.198h-.001Z"/>
  <path class="st0" d="M836.77,1187.529c2.422,2.365,2.392,8.043.281,10.462-3.957,2.557-93.321-8.697-87.246-6.143-.788-.331-1.605-1.446-1.071-2.908.927-2.542,3.583-.071,5.62-.104l82.417-1.307h0Z"/>
  <path class="st0" d="M1295.516,1190.399l-92.301,8.015c-.679-4.998-.071-7.813.306-11.621l91.995,3.606Z"/>
  <path class="st0" d="M1144.397,1209.658c-7.033,1.168-15.054,1.385-22.441-.03-9.679-6.619,23.117-23.343,12.094-31.406-3.076-2.25-3.339,3.624-9.492,4.183-2.009.183-4.239-3.638-1.749-6.587,3.741-4.431,15.143-5.196,20.217-1.319,11.97,9.147-7.795,23.337-11.892,28.424,5.647,2.315,8.954-.559,14.475-1.927,1.332,1.172.936,8.306-1.213,8.663h0Z"/>
  <path class="st0" d="M1076.712,1210.106c-7.076.638-16.411,1.309-23.552-.548-5.822-7.108,20.317-21.443,13.079-30.499-4.024-5.035-4.293,3.212-10.306,3.129-1.647-.023-4.319-3.737-2.266-6.172,4.494-5.329,15.35-4.805,21.115-.569,8.841,6.495-3.372,19.986-11.071,26.532,4.636,3.818,9.113-.006,13.618-2.731,1.472,3.751,1.076,8.423-.617,10.858h0Z"/>
  <path class="st0" d="M895.564,1209.489c.96-10.775,7.673-17.828,10.751-27.837,1.653-5.375-11.747,1.512-14.049-1.375-1.158-1.452-1.018-6.214.344-6.876,7.804-.745,16.467-.748,25.397.168-5.216,13.45-10.881,23.988-11.093,36.559-4.653.333-7.893,1.016-11.351-.639h.001Z"/>
  <path class="st0" d="M937.617,1209.144c-.657,2.699-10.153,2.277-10.968-.065.873-9.293,6.383-18.513,11.214-27.284-3.244-4.213-7.833-1.539-12.998.009-1.808-2.567-1.2-5.318-.826-9.088l23.426-.123c-.048,10.608-8.101,18.35-9.849,36.552h0Z"/>
  <path class="st0" d="M885.845,1209.646c-6.774,1.282-12.126,1.53-19.173.08,7.14-4.256,4.372-25.563,4.172-26.054-.734-1.801-3.628-.487-7.401-2.602,4.45-5.075,10.677-8.173,18.307-8.583l-.285,27.107c-.042,4.031,1.213,6.347,4.381,10.052h-.001Z"/>
  <circle class="st0" cx="1017.661" cy="1192.486" r="8.95"/>
  <circle class="st0" cx="1037.035" cy="766.849" r="8.426"/>
  <circle class="st0" cx="1002.958" cy="766.564" r="8.205"/>
  <path class="st3" d="M1314.883,1087.546c-3.216,1.489-5.608-4.569-9.876-2.067,12.628-32.593-11.817-34.392,28.029-55.358,7.873-4.143,14.354-7.708,23.957-4.881-8.86,25.13-14.209,49.39-42.11,62.305h0Z"/>
  <path class="st2" d="M827.054,1036.585c11.894-17.092,25.335-33.717,35.501-52.442,7.807-14.379,9.524-36.725-4.225-45.733-7.323-4.798-15.851-4.164-23.116-.616-11.8,5.763-18.781,17.093-22.499,30.068-10.413.804-20.207.325-31.519-.246l-1.25-59.374c34.831-26.962,79.524-33.491,120.528-20.036,20.258,6.647,34.393,21.624,37.333,43.447,3.319,24.638-4.236,50.255-18.881,70.876-7.599,10.7-15.989,22.938-27.093,29.792-14.786,9.127-33.41,5.976-49.851,10.232-5.256,1.361-14.141.785-14.929-5.968h.001Z"/>
  <path class="st2" d="M1031.467,884.433c7.282,6.943-4.459,14.768-11.99,7.623-2.294,4.111-2.469,8.982-.525,14.616l-3.082,4.188c-2.677-.102-8.519,62.447.389,56.821,6.157,1.597,3.337,17.989-1.454,20.236,1.157,7.224-1.318,14.824,1.707,21.741,3.757.959,3.486,2.493-.374,2.858-22.137-4.497-44.748-2.26-67.24,3.92.954-6.582-.809-12.306-.364-18.009,1.748-22.401.686-44.185,1.461-66.795l1.618-47.167c22.238-.16,44.001-2.576,66.404-.987l13.45.954h0Z"/>
  <path class="st3" d="M1281.024,1063.558c-1.864,11.046-3.384,22.098-9.489,32.451l-70.726,1.005c-23.648.336-46.069,2.923-69.51,2.023-4.436-10.838-7.856-20.925-8.497-33.569l54.041-1.639c2.847,13.175,9.049,29.418,23.076,30.214,17.911,1.017,23.838-13.866,26.422-31.06l54.683.574h0Z"/>
  <path class="st3" d="M957.55,1098.265c-2.02-7.81-1.357-15.617.01-24.213l23.544,10.246c14.203,6.181,43.637,4.737,53.549-14.538l73.155-2.138c-2.122,13.211-6.828,24.944-14.896,34.981l-76.756.779c-19.604.199-37.866-1.804-58.606-5.117h0Z"/>
  <path class="st3" d="M850.689,1063.193l13.517.296c-4.93,7.383-12.45,9.018-17.018,18.155,18.97,2.958,36.855.581,55.467,1.348,9.692.399,17.827-3.008,24.902-9.457.283,8.042-2.01,15.73-3.369,24.447-31.072-1.874-6.697-.714-34.721-2.04-31.066,1.269-6.546.263-36.007,1.541-11.823-.19-8.613.025-29.939-.097-18.094,1.167-7.296,0-35.534,1.644-12.454.5,4.513-.258-16.276.53-10.312.391,29.984-32.991,28.284-32.839l27.756-2.496"/>
  <path class="st3" d="M1268.586,913.148c-45.903-2.578-89.308-4.378-136.756-1.795,16.583-30.78,68.448-33.425,97.992-25.703,14.798,5.328,29.076,11.247,38.764,27.498Z"/>
  <path class="st3" d="M1016.138,1012.516c-.16-.841.704-2.102.374-2.858,28.274,1.706,56.493-.504,85.743-2.25,4.026,9.327,5.512,18.106,6.103,27.951-23.763,2.618-46.867,4.237-70.669,2.533-4.715-10.33-10.584-23.148-21.551-25.376h0Z"/>
  <path class="st3" d="M1018.016,883.479c3.158.571-13.905-.527,13.45.902,21.066,1.494,42.432-1.349,64.181.2-.923,10.475-1.964,18.585-3.879,27.376-24.091-.476-28.303,1.191-51.797,1.191-12.387,0-3.567,0-25.219.354"/>
  <path class="st3" d="M1175.673,975.575l-57.38,1.947c-.283-11.122.59-20.899,3.007-32.012,19.276-1.822,37.639-2.425,57.763-1.866-1.149,10.376-3.413,17.905-3.39,31.931h0Z"/>
  <path class="st3" d="M1281.224,975.777l-55.063-2.609-3.985-31.856c19.017-.002,36.586.288,55.12,3.33,2.546,10.687,3.789,20.144,3.928,31.136h0Z"/>
  <path class="st3" d="M1175.321,1033.089l-55.01.684c-2.968-10.114-2.205-19.527-1.025-29.791l55.137-1.217.898,30.323h0Z"/>
  <path class="st3" d="M1284.013,1032.86l-54.81.039.309-30.524c18.634-.05,35.613-.675,53.97,1.128l.531,29.357h0Z"/>
  <path class="st3" d="M905.417,1129.663l-135.886-1.139c4.948-8.647,37.06-8.826,79.488-12.622l17.072-.13c10.938-1.065,95.862,14.366,39.326,13.892h0Z"/>
  <path class="st3" d="M1027.614,987.589c-4.275-.144-8.548-.019-12.809.328-1.104-6.893-.805-13.83-.965-20.72,23.145-.322,53.896-.787,73.711,16.394-19.639,4.284-37.834,4.74-55.878,4.134"/>
  <path class="st3" d="M1250.207,1120.386c-21.34,19.5-74.695,17.244-92.67,3.266l92.67-3.266Z"/>
  <path class="st3" d="M1063.945,1127.111c-32.478,12.895-71.65,10.801-105.509-2.678,9.019-1.924,17.572.071,26.916.323l78.593,2.355Z"/>
  <path class="st0" d="M890.657,484.142c12.61-7.559,15.613-19.636,16.035-33.034.543-17.261-9.564-30.539-27.911-31.944-18.106-1.387-36.457.303-56.171,2.338,5.202,5.808,8.599,7.603,8.914,14.219l3.574,75.102c.367,7.718-.16,12.949-6.728,19.768,15.226,1.346,27.307,1.265,41.105-1.15-3.679-5.684-6.9-7.665-7.062-12.88l-.694-22.308h0s-.002,0-.002,0c-.106-3.418,3.23-3.343,4.933-2.409-.299-.164,12.448,33.074,15.072,37.185,11.188.38,21.226,1.076,33.264-.879-9.577-14.677-16.833-28.34-24.329-44.007ZM876.301,468.929h0c-1.359,5.177-13.595,7.199-14.719,2.997-2.798-10.466-3.758-22.214-1.307-32.606,1.022-4.333,12.868-2.716,14.647.904,4.297,8.742,4.089,18.38,1.378,28.705h0Z"/>
  <path class="st0" d="M1504.542,476.447c-2.028-19.617-16.909-31.008-35.705-32.239-15.265-1-29.548,3.794-37.005,18.906-9.56,19.374-11.563,42.795-9.582,64.397,1.773,19.336,16.073,29.735,35.325,31.58h0c16.768,1.607,29.985-3.579,37.058-18.68,9.154-19.544,12.16-42.204,9.91-63.964ZM1474.787,501.919h0c-.716,11.348-1.021,44.259-17.101,42.086-3.453-.467-8.654-4.491-8.546-10.272.27-14.54,1.548-72.924,18.194-74.615,14.75-1.498,10.085,33.692,7.453,42.801Z"/>
  <path class="st0" d="M633.284,546.042c-6.225-7.635-9.749-13.225-12.301-21.072l-22.179-68.19c-2.178-6.697-2.637-11.555.466-19.399-18.288,2.373-34.904,2.688-51.92,9.108,4.867,4.877,8.77,8.015,7.97,14.359l-10.624,84.211c-.541,4.289-5.847,6.527-5.696,11.023,11.14,1.768,21.71.192,33.68-3.121-7.976-6.194-10.059-17.499-4.18-24.235,5.065-.755,15.728-4.3,20.541-1.614h0c8.17,4.557,5.831,16.436,3.247,24.409,14.257-.561,26.726-1.227,40.996-5.479ZM585.792,506.562h0c-5.433,3.694-11.193,3.911-17.639,3.445l4.334-41.717,13.305,38.271s0,0,0,0h0Z"/>
  <path class="st0" d="M1132.753,514.177l-16.111-78.768c-1.216-5.944-.395-9.698,4.177-15.657-17.692-.201-33.611-1.624-51.003.331-.65,4.488,4,6.53,4.712,10.058l-20.088,86.142c-1.104,4.732-5.373,5.802-8.385,10.479,11.576,3.3,22.053,2.922,34.384.681-6.677-5.191-7.603-19.347-1.164-22.449,6.841-3.296,15.925.438,22.124-1.002h0c6.038,12.822-2.464,19.537-.461,24.653.653,1.669,34.528,3.159,39.537-.554-5.1-4.878-6.634-8.59-7.723-13.914ZM1081.822,486.087c2.548-12.998,4.195-24.301,9.213-37.726,3.715,12.6,5.936,25.232,7.567,38.412-6.205.627-11.1.939-16.78-.686Z"/>
  <path class="st0" d="M1107.7,1174.073h0s0,0,0,0c-5.854-3.346-12.757-2.792-17.374.7-7.508,5.678-8.087,30.329,1.272,34.516,5.025,2.249,12.272,2.496,17.105-.797,7.037-4.796,7.525-29.543-1.004-34.418ZM1101.531,1205.415c-9.723,8.248-6.866-39.675-.665-26.949,4.231,8.684,2.271,18.457.665,26.949Z"/>
  <path class="st0" d="M1178.599,1189.987c-4.775-6.182-22.366-.638-11.946-10.235h0s0,0,0,0c3.557-3.276,9.389,1.639,11.116-.72,1.053-1.438,1.04-3.942-.07-5.396-1.257-1.645-14.107-3.28-19.8,2.949-5.686,6.222-7.933,30.641,3.809,33.616,7.452,1.888,16.411.957,18.577-7.239,1.312-4.963.863-9.672-1.687-12.974ZM1168.811,1204.844h0c-4.808,2.155-4.633-4.233-4.954-6.221-.37-2.295,1.704-8.546,5.159-6.175,2.888,1.981,3.358,10.798-.206,12.396Z"/>
  <path class="st0" d="M978.198,1188.544c-2.877-2.514-7.567-3.325-12.916-.575-2.432-2.031-.333-4.882.623-7.176,2.653-6.365,14.21,2.546,12.876-5.121-.839-4.823-15.002-5.249-20.789.947-6.278,6.723-8.101,31.693,5.416,33.896,7.635,1.244,16.224-.351,18.005-9.039,1.007-4.913.225-9.927-3.215-12.932ZM965.281,1187.969h0s0,0,0,0h0ZM968.528,1204.735c-5.364.914-6.427-12.933-.378-12.916,4.118.011,5.414,12.058.378,12.916Z"/>
  <path class="st0" d="M801.345,938.839l-8.083,5.215c.134-4.494,2.156-5.444,2.289-9.182l-7.069-5.689,9.126-.304,3.42-9.588,3.342,9.258,9.076.601-6.995,5.739,2.256,9.107c-2.483-1.452-4.673-3.058-7.362-5.156h0Z"/>
  <path class="st0" d="M661.438,954.869l-28.856,18.617c.477-16.044,7.696-19.434,8.173-32.78l-25.238-20.311,32.579-1.084,12.211-34.23,11.932,33.052,32.401,2.144-24.971,20.489,8.052,32.512c-8.866-5.184-16.684-10.917-26.284-18.409h.001Z"/>
  <path class="st0" d="M730.292,992.448l-16.19,10.445c.268-9.001,4.318-10.904,4.586-18.391l-14.16-11.395,18.278-.608,6.851-19.205,6.694,18.544,18.178,1.203-14.01,11.495,4.518,18.241c-4.974-2.909-9.361-6.125-14.746-10.328h0Z"/>
  <path class="st0" d="M475.388,523.979l-24.903,23.646c-2.507-15.854,3.957-20.524,1.951-33.728l-28.567-15.277,31.813-7.108,5.65-35.901,17.855,30.266,32.236-3.903-20.737,24.765,13.943,30.454c-9.673-3.45-18.42-7.633-29.242-13.214h.001Z"/>
  <path class="st0" d="M1571.039,530.054l-31.493,13.691c3.072-15.754,10.745-17.929,13.38-31.021l-21.61-24.134,32.324,4.213,17.6-31.797,6.414,34.55,31.625,7.37-27.963,16.169,2.674,33.387c-7.908-6.553-14.693-13.478-22.951-22.427h0Z"/>
  <path class="st0" d="M1186.055,489.417l-16.19,10.445c.268-9.001,4.318-10.904,4.586-18.391l-14.16-11.395,18.278-.608,6.851-19.205,6.694,18.544,18.178,1.203-14.01,11.495,4.518,18.241c-4.974-2.909-9.361-6.125-14.746-10.328h.001Z"/>
  <path class="st0" d="M1327.234,987.84l-16.19,10.445c.268-9.001,4.318-10.904,4.586-18.391l-14.16-11.395,18.278-.608,6.851-19.205,6.694,18.544,18.178,1.203-14.01,11.495,4.518,18.241c-4.974-2.909-9.361-6.125-14.746-10.328h.001Z"/>
  <path class="st0" d="M832.619,911.882l-8.083,5.215c.134-4.494,2.156-5.444,2.289-9.182l-7.069-5.689,9.126-.304,3.42-9.588,3.342,9.258,9.076.601-6.995,5.739,2.256,9.107c-2.483-1.452-4.673-3.058-7.362-5.156h0Z"/>
  <path class="st0" d="M872.374,914.076l-8.083,5.215c.134-4.494,2.156-5.444,2.289-9.182l-7.069-5.689,9.126-.304,3.42-9.588,3.342,9.258,9.076.601-6.995,5.739,2.256,9.107c-2.483-1.452-4.673-3.058-7.362-5.156h0Z"/>
  <path class="st0" d="M900.816,942.595l-8.083,5.215c.134-4.494,2.156-5.444,2.289-9.182l-7.069-5.689,9.126-.304,3.42-9.588,3.342,9.258,9.076.601-6.995,5.739,2.256,9.107c-2.483-1.452-4.673-3.058-7.362-5.156h0Z"/>
  <path class="st0" d="M893.452,982.727l-8.083,5.215c.134-4.494,2.156-5.444,2.289-9.182l-7.069-5.689,9.126-.304,3.42-9.588,3.342,9.258,9.076.601-6.995,5.739,2.256,9.107c-2.483-1.452-4.673-3.058-7.362-5.156h0Z"/>
  <path class="st0" d="M872.374,1022.441l-8.083,5.215c.134-4.494,2.156-5.444,2.289-9.182l-7.069-5.689,9.126-.304,3.42-9.588,3.342,9.258,9.076.601-6.995,5.739,2.256,9.107c-2.483-1.452-4.673-3.058-7.362-5.156h0Z"/>
  <path class="st0" d="M986.089,914.076l-8.083,5.215c.134-4.494,2.156-5.444,2.289-9.182l-7.069-5.689,9.126-.304,3.42-9.588,3.342,9.258,9.076.601-6.995,5.739,2.256,9.107c-2.483-1.452-4.673-3.058-7.362-5.156h0Z"/>
  <path class="st0" d="M986.089,982.727l-8.083,5.215c.134-4.494,2.156-5.444,2.289-9.182l-7.069-5.689,9.126-.304,3.42-9.588,3.342,9.258,9.076.601-6.995,5.739,2.256,9.107c-2.483-1.452-4.673-3.058-7.362-5.156h0Z"/>
  <metadata>
    <sfw xmlns="http://ns.adobe.com/SaveForWeb/1.0/">
      <slices/>
      <sliceSourceBounds x="-717.37" y="-478.25" width="1612.5" height="1075" bottomLeftOrigin="true"/>
    </sfw>
  </metadata>
</svg>